<svg width="93" height="113" viewBox="0 0 93 113" fill="none" xmlns="http://www.w3.org/2000/svg">
<path d="M51.1575 0.641528H40.9226C40.2156 0.641528 39.6425 1.21597 39.6425 1.92458V12.1838C39.6425 12.8924 40.2156 13.4669 40.9226 13.4669H51.1575C51.8645 13.4669 52.4376 12.8924 52.4376 12.1838V1.92458C52.4376 1.21597 51.8645 0.641528 51.1575 0.641528Z" fill="white"/>
<path d="M66.5108 0.641528H56.2759C55.5689 0.641528 54.9959 1.21597 54.9959 1.92458V12.1838C54.9959 12.8924 55.5689 13.4669 56.2759 13.4669H66.5108C67.2178 13.4669 67.7909 12.8924 67.7909 12.1838V1.92458C67.7909 1.21597 67.2178 0.641528 66.5108 0.641528Z" fill="white"/>
<path d="M35.8042 16.0313H25.5693C24.8623 16.0313 24.2892 16.6057 24.2892 17.3143V27.5736C24.2892 28.2822 24.8623 28.8566 25.5693 28.8566H35.8042C36.5112 28.8566 37.0842 28.2822 37.0842 27.5736V17.3143C37.0842 16.6057 36.5112 16.0313 35.8042 16.0313Z" fill="white"/>
<path d="M51.1575 16.0313H40.9226C40.2156 16.0313 39.6425 16.6057 39.6425 17.3143V27.5736C39.6425 28.2822 40.2156 28.8566 40.9226 28.8566H51.1575C51.8645 28.8566 52.4376 28.2822 52.4376 27.5736V17.3143C52.4376 16.6057 51.8645 16.0313 51.1575 16.0313Z" fill="white"/>
<path d="M35.8042 31.421H25.5693C24.8623 31.421 24.2892 31.9954 24.2892 32.704V42.9633C24.2892 43.6719 24.8623 44.2463 25.5693 44.2463H35.8042C36.5112 44.2463 37.0842 43.6719 37.0842 42.9633V32.704C37.0842 31.9954 36.5112 31.421 35.8042 31.421Z" fill="white"/>
<path d="M51.1575 31.421H40.9226C40.2156 31.421 39.6425 31.9954 39.6425 32.704V42.9633C39.6425 43.6719 40.2156 44.2463 40.9226 44.2463H51.1575C51.8645 44.2463 52.4376 43.6719 52.4376 42.9633V32.704C52.4376 31.9954 51.8645 31.421 51.1575 31.421Z" fill="white"/>
<path d="M66.5108 31.421H56.2759C55.5689 31.421 54.9959 31.9954 54.9959 32.704V42.9633C54.9959 43.6719 55.5689 44.2463 56.2759 44.2463H66.5108C67.2178 44.2463 67.7909 43.6719 67.7909 42.9633V32.704C67.7909 31.9954 67.2178 31.421 66.5108 31.421Z" fill="white"/>
<path d="M35.8042 46.809H25.5693C24.8623 46.809 24.2892 47.3834 24.2892 48.092V58.3513C24.2892 59.0599 24.8623 59.6343 25.5693 59.6343H35.8042C36.5112 59.6343 37.0842 59.0599 37.0842 58.3513V48.092C37.0842 47.3834 36.5112 46.809 35.8042 46.809Z" fill="white"/>
<path d="M51.1575 46.809H40.9226C40.2156 46.809 39.6425 47.3834 39.6425 48.092V58.3513C39.6425 59.0599 40.2156 59.6343 40.9226 59.6343H51.1575C51.8645 59.6343 52.4376 59.0599 52.4376 58.3513V48.092C52.4376 47.3834 51.8645 46.809 51.1575 46.809Z" fill="white"/>
<path d="M30.6876 14.1067C34.5738 14.1067 37.7242 10.9488 37.7242 7.05334C37.7242 3.15789 34.5738 0 30.6876 0C26.8014 0 23.651 3.15789 23.651 7.05334C23.651 10.9488 26.8014 14.1067 30.6876 14.1067Z" fill="white"/>
<path d="M0 81.4359V68.6174H2.71226V81.4359H0Z" fill="white"/>
<path d="M17.2906 81.4359H13.8432L8.27861 71.7401H8.2025C8.31148 73.4514 8.36856 74.6773 8.36856 75.402V81.4359H5.94344V68.6174H9.36663L14.9191 78.2161H14.9831C14.8932 76.5481 14.8482 75.376 14.8482 74.6825V68.6157H17.2855V81.4341H17.2924L17.2906 81.4359Z" fill="white"/>
<path d="M28.0515 77.8763C28.0515 79.031 27.6363 79.9482 26.7974 80.614C25.9723 81.2815 24.8151 81.6144 23.3361 81.6144C21.9731 81.6144 20.764 81.3578 19.7158 80.8446V78.3184C20.5789 78.7033 21.3089 78.979 21.9039 79.1333C22.5059 79.2928 23.0559 79.3708 23.5472 79.3708C24.1422 79.3708 24.5971 79.2547 24.9102 79.031C25.2302 78.8004 25.3894 78.4675 25.3894 78.0115C25.3894 77.7618 25.3184 77.5364 25.1783 77.344C25.0382 77.1446 24.8324 76.9521 24.5573 76.7735C24.2892 76.5932 23.7392 76.3054 22.9072 75.9083C22.127 75.5425 21.5389 75.1836 21.148 74.8507C20.7571 74.5108 20.444 74.119 20.2139 73.6647C19.9839 73.2156 19.8628 72.6903 19.8628 72.0869C19.8628 70.9512 20.2468 70.06 21.0079 69.4133C21.7759 68.7648 22.838 68.4389 24.1941 68.4389C24.8601 68.4389 25.4931 68.5152 26.0934 68.6764C26.7005 68.8359 27.3336 69.0544 27.9926 69.3439L27.1157 71.454C26.4307 71.1714 25.8685 70.979 25.4205 70.8645C24.9794 70.7553 24.5383 70.6981 24.1093 70.6981C23.5973 70.6981 23.2012 70.8195 22.9262 71.057C22.6512 71.2945 22.5162 71.6084 22.5162 71.9933C22.5162 72.2308 22.5733 72.4423 22.6823 72.6209C22.7913 72.7943 22.9694 72.9677 23.2064 73.1411C23.4503 73.3075 24.0246 73.6023 24.9275 74.0323C26.1245 74.6027 26.9427 75.1801 27.3838 75.7575C27.8249 76.3279 28.0497 77.0336 28.0497 77.8676V77.8797L28.0515 77.8763Z" fill="white"/>
<path d="M32.5869 81.4359V70.8819H29.1135V68.6192H38.7673V70.8819H35.2939V81.4359H35.3009H32.5869Z" fill="white"/>
<path d="M40.7565 81.4359V68.6174H43.4688V81.4359H40.7565Z" fill="white"/>
<path d="M48.9244 81.4359V70.8819H45.4511V68.6192H55.1048V70.8819H51.6315V81.4359H51.6384H48.9244Z" fill="white"/>
<path d="M67.502 68.6174V76.9088C67.502 77.8572 67.291 78.6842 66.862 79.3969C66.4399 80.1095 65.8328 80.6539 65.0319 81.0388C64.2328 81.4168 63.2849 81.6092 62.1986 81.6092C60.5553 81.6092 59.2753 81.1862 58.3672 80.3453C57.459 79.4991 57.0041 78.3375 57.0041 76.8758V68.6174H59.7043V76.4666C59.7043 77.4549 59.9032 78.1779 60.2993 78.6409C60.6954 79.1038 61.3544 79.3327 62.2695 79.3327C63.1845 79.3327 63.7986 79.1021 64.1947 78.6409C64.5977 78.1727 64.7967 77.4411 64.7967 76.4476V68.6174H67.502Z" fill="white"/>
<path d="M72.8573 81.4359V70.8819H69.384V68.6192H79.0377V70.8819H75.5644V81.4359H75.5713H72.8573Z" fill="white"/>
<path d="M92.6302 75.0102C92.6302 77.1324 92.106 78.7605 91.0561 79.9031C90.0061 81.0457 88.503 81.6144 86.5466 81.6144C84.5903 81.6144 83.0854 81.044 82.0371 79.9031C80.9889 78.7623 80.4631 77.1272 80.4631 74.9911C80.4631 72.855 80.9872 71.2269 82.0371 70.1051C83.0923 68.9764 84.6024 68.4129 86.5656 68.4129C88.5289 68.4129 90.0321 68.9764 91.0699 70.112C92.113 71.2477 92.6371 72.8758 92.6371 75.005L92.6302 75.0119V75.0102ZM83.2964 75.0102C83.2964 76.4406 83.5645 77.5173 84.1094 78.2421C84.6543 78.9669 85.4586 79.3327 86.5397 79.3327C88.7019 79.3327 89.783 77.8901 89.783 75.0102C89.783 72.1302 88.7088 70.6825 86.5587 70.6825C85.4776 70.6825 84.6646 71.0483 84.1215 71.7783C83.5714 72.503 83.2964 73.5798 83.2964 75.0102Z" fill="white"/>
<path d="M11.5859 96.8256H8.91862V84.0072H16.2493V86.2317H11.5859V89.5347H15.9224V91.7541H11.5859V96.8256Z" fill="white"/>
<path d="M26.1124 96.8256H18.7488V84.0072H26.1124V86.2317H21.4611V89.0475H25.7924V91.272H21.4611V94.575H26.1124V96.8256Z" fill="white"/>
<path d="M39.4004 90.2907C39.4004 92.4008 38.7984 94.0167 37.5962 95.1385C36.3993 96.2604 34.673 96.8187 32.4087 96.8187H28.7883V84.0002H32.8066C34.8926 84.0002 36.5169 84.5516 37.6689 85.6543C38.8209 86.7571 39.4021 88.3019 39.4021 90.2837V90.2907H39.4004ZM36.5843 90.3618C36.5843 87.6101 35.3683 86.2317 32.9449 86.2317H31.4989V94.5802H32.663C35.2732 94.5802 36.5774 93.1758 36.5774 90.3618H36.5843Z" fill="white"/>
<path d="M49.4174 96.8256H42.0538V84.0072H49.4174V86.2317H44.7661V89.0475H49.0974V91.272H44.7661V94.575H49.4174V96.8256Z" fill="white"/>
<path d="M54.8039 89.6942H55.6808C56.5388 89.6942 57.1719 89.5538 57.5801 89.2642C57.9883 88.9747 58.1942 88.5273 58.1942 87.9118C58.1942 87.2963 57.9832 86.8732 57.568 86.6166C57.1529 86.36 56.5129 86.2317 55.6359 86.2317H54.8108V89.6942H54.8039ZM54.8039 96.8256H52.0916V84.0072H55.814C57.5542 84.0072 58.8394 84.3279 59.6714 84.9625C60.5034 85.5902 60.9255 86.5525 60.9255 87.8477C60.9255 88.6036 60.7214 89.2712 60.3045 89.8607C59.8893 90.445 59.3064 90.9062 58.5453 91.2391C60.4705 94.119 61.7246 95.9847 62.3075 96.8239H59.3012L56.2499 91.9049H54.8039V96.8256Z" fill="white"/>
<path d="M71.7434 96.8256L70.8162 93.774H66.1528L65.2256 96.8256H62.3023L66.8118 83.9569H70.126L74.6545 96.8256H71.7313H71.7434ZM70.1693 91.4974C69.3113 88.7337 68.8253 87.1697 68.7163 86.8108C68.6142 86.445 68.5364 86.1624 68.4862 85.9508C68.2942 86.7016 67.7442 88.5482 66.836 91.4974H70.1693Z" fill="white"/>
<path d="M76.2667 96.8256V84.0072H78.9789V94.5802H84.1665V96.8239H76.2667V96.8256Z" fill="white"/>
<path d="M24.4882 102.603H27.197C28.4701 102.603 29.3903 102.794 29.9594 103.175C30.5285 103.556 30.8121 104.16 30.8121 104.983C30.8121 105.554 30.653 106.024 30.3365 106.393C30.0199 106.764 29.5563 107.003 28.9492 107.113V107.178C30.4057 107.428 31.1339 108.196 31.1339 109.479C31.1339 110.339 30.8433 111.009 30.2655 111.491C29.6861 111.973 28.8765 112.214 27.8352 112.214H24.4899V102.601L24.4882 102.603ZM25.6038 106.717H27.4408C28.2279 106.717 28.7935 106.594 29.1395 106.346C29.4854 106.098 29.6584 105.68 29.6584 105.094C29.6584 104.555 29.4664 104.167 29.0807 103.927C28.6949 103.688 28.0843 103.569 27.2437 103.569H25.6038V106.717ZM25.6038 107.666V111.262H27.6052C28.3784 111.262 28.9613 111.111 29.354 110.811C29.7449 110.511 29.9403 110.041 29.9403 109.401C29.9403 108.805 29.7397 108.366 29.3401 108.087C28.9405 107.806 28.3317 107.666 27.5135 107.666H25.6038Z" fill="white"/>
<path d="M36.3093 104.878C36.6276 104.878 36.9147 104.904 37.169 104.957L37.0185 105.97C36.721 105.904 36.4581 105.871 36.2315 105.871C35.6503 105.871 35.1521 106.107 34.7387 106.582C34.3253 107.057 34.1194 107.645 34.1194 108.351V112.217H33.0314V105.011H33.9309L34.0554 106.346H34.1073C34.3737 105.878 34.6954 105.516 35.0708 105.261C35.4462 105.006 35.8596 104.879 36.311 104.879L36.3093 104.878Z" fill="white"/>
<path d="M42.9343 112.215L42.7181 111.189H42.6662C42.3081 111.64 41.95 111.947 41.5937 112.106C41.2374 112.266 40.7928 112.345 40.2583 112.345C39.5457 112.345 38.987 112.162 38.5822 111.792C38.1774 111.425 37.9751 110.901 37.9751 110.221C37.9751 108.767 39.1357 108.004 41.4588 107.933L42.6783 107.893V107.445C42.6783 106.88 42.5572 106.462 42.315 106.194C42.0729 105.925 41.6837 105.79 41.1509 105.79C40.5524 105.79 39.8743 105.973 39.1167 106.343L38.7829 105.507C39.1375 105.315 39.5249 105.164 39.947 105.053C40.369 104.944 40.7928 104.888 41.2166 104.888C42.0729 104.888 42.7094 105.079 43.1228 105.46C43.5362 105.842 43.7421 106.454 43.7421 107.295V112.214H42.936L42.9343 112.215ZM40.4746 111.445C41.1526 111.445 41.6854 111.26 42.0711 110.887C42.4586 110.514 42.6523 109.993 42.6523 109.322V108.671L41.5626 108.718C40.696 108.749 40.0733 108.883 39.6893 109.122C39.307 109.361 39.115 109.732 39.115 110.237C39.115 110.632 39.2343 110.932 39.473 111.139C39.7117 111.345 40.0438 111.447 40.4728 111.447L40.4746 111.445Z" fill="white"/>
<path d="M50.6213 110.249C50.6213 110.92 50.3722 111.437 49.8741 111.801C49.3759 112.165 48.6753 112.347 47.7759 112.347C46.8228 112.347 46.079 112.196 45.5462 111.893V110.88C45.8922 111.055 46.2623 111.194 46.6584 111.295C47.0546 111.395 47.4351 111.445 47.8035 111.445C48.3726 111.445 48.8085 111.355 49.1147 111.173C49.4209 110.991 49.5731 110.714 49.5731 110.341C49.5731 110.06 49.452 109.821 49.2098 109.621C48.9677 109.422 48.4937 109.186 47.7897 108.914C47.1203 108.664 46.6446 108.446 46.3626 108.26C46.0807 108.075 45.8714 107.863 45.733 107.626C45.5946 107.388 45.5272 107.106 45.5272 106.778C45.5272 106.19 45.7659 105.727 46.2416 105.387C46.7172 105.048 47.3711 104.878 48.2031 104.878C48.9763 104.878 49.7339 105.035 50.4726 105.351L50.0851 106.239C49.3638 105.94 48.7099 105.791 48.1235 105.791C47.6081 105.791 47.2189 105.873 46.956 106.034C46.693 106.197 46.5616 106.421 46.5616 106.705C46.5616 106.898 46.61 107.062 46.7086 107.198C46.8072 107.333 46.9646 107.463 47.1843 107.586C47.4022 107.709 47.8226 107.886 48.4435 108.118C49.2963 108.429 49.8723 108.742 50.1716 109.058C50.4708 109.374 50.6213 109.771 50.6213 110.247V110.249Z" fill="white"/>
<path d="M52.3476 103.891C52.5569 103.619 52.7835 103.291 53.0257 102.904C53.2678 102.52 53.4598 102.183 53.5999 101.899H54.9249V102.038C54.7329 102.322 54.4458 102.674 54.0653 103.09C53.6847 103.506 53.3543 103.829 53.0741 104.056H52.3459V103.891H52.3476ZM53.4823 112.215H52.3943V105.009H53.4823V112.215Z" fill="white"/>
<path d="M56.8796 112.215H55.7915V101.984H56.8796V112.215Z" fill="white"/>
<path d="M59.0971 103.055C59.0971 102.806 59.1577 102.622 59.2805 102.506C59.4033 102.39 59.5555 102.332 59.7388 102.332C59.9222 102.332 60.064 102.391 60.1921 102.509C60.3183 102.627 60.3823 102.809 60.3823 103.055C60.3823 103.302 60.3183 103.484 60.1921 103.605C60.0658 103.726 59.9136 103.785 59.7388 103.785C59.5555 103.785 59.4016 103.725 59.2805 103.605C59.1577 103.485 59.0971 103.302 59.0971 103.055ZM60.2768 112.215H59.1888V105.009H60.2768V112.215Z" fill="white"/>
<path d="M67.0073 112.215L66.7911 111.189H66.7392C66.3811 111.64 66.0231 111.947 65.6667 112.106C65.3104 112.266 64.8659 112.345 64.3314 112.345C63.6187 112.345 63.06 112.162 62.6552 111.792C62.2505 111.425 62.0481 110.901 62.0481 110.221C62.0481 108.767 63.2087 108.004 65.5318 107.933L66.7513 107.893V107.445C66.7513 106.88 66.6302 106.462 66.388 106.194C66.1459 105.925 65.7567 105.79 65.2239 105.79C64.6254 105.79 63.9473 105.973 63.1897 106.343L62.8559 105.507C63.2105 105.315 63.5979 105.164 64.02 105.053C64.4421 104.944 64.8659 104.888 65.2896 104.888C66.1459 104.888 66.7824 105.079 67.1958 105.46C67.6092 105.842 67.8151 106.454 67.8151 107.295V112.214H67.009L67.0073 112.215ZM64.5476 111.445C65.2256 111.445 65.7584 111.26 66.1441 110.887C66.5316 110.514 66.7253 109.993 66.7253 109.322V108.671L65.6356 108.718C64.769 108.749 64.1463 108.883 63.7623 109.122C63.38 109.361 63.188 109.732 63.188 110.237C63.188 110.632 63.3073 110.932 63.546 111.139C63.7848 111.345 64.1169 111.447 64.5458 111.447L64.5476 111.445Z" fill="white"/>
</svg>
