<svg width="87" height="87" viewBox="0 0 87 87" fill="none" xmlns="http://www.w3.org/2000/svg">
<path d="M44.5446 86.7241H42.2178L39.1297 86.4837C18.1209 84.4045 1.7485 67.3465 0.17434 46.395C0.128463 45.7769 0.221651 45.1172 0.0123365 44.5134C0.0410097 43.7164 -0.0263722 42.9065 0.0123365 42.1109C1.20084 17.6293 21.0097 -1.19304 45.789 0.0590134C65.6753 1.06352 82.4634 15.9379 86.0017 35.4471C90.7958 61.8733 71.1375 85.6194 44.5446 86.7226V86.7241ZM39.0723 21.6301C31.3421 21.6959 23.3924 21.8548 15.6994 22.6475C12.4809 22.9795 9.83146 22.8364 9.32968 26.7013C9.00997 29.1639 9.00424 31.8154 8.92108 34.3038C8.72181 40.3108 8.72181 46.312 8.92108 52.319C9.0028 54.7817 9.00854 57.4103 9.31964 59.85C9.71963 62.9851 11.1332 63.4487 14.0134 63.815C20.2584 64.6092 26.8948 64.728 33.1929 64.8539C45.1926 65.0929 57.5837 65.1844 69.5361 64.1356C71.2809 63.9825 74.9367 63.8394 76.237 62.7347C77.665 61.5213 77.6478 58.13 77.7596 56.3256C78.1753 49.6561 78.0692 42.6746 77.9173 35.9851C77.8485 32.9344 77.9029 29.3886 77.4169 26.3922C76.8363 22.8106 74.1439 22.9551 71.1404 22.6461C60.6575 21.5672 49.6068 21.5385 39.0695 21.6287L39.0723 21.6301Z" fill="white"/>
<path d="M42.2022 25.794C56.4269 24.9083 65.9321 40.3279 58.3796 52.515C51.2758 63.9767 34.168 63.4501 27.8427 51.5348C21.893 40.3279 29.5645 26.5796 42.2022 25.794Z" fill="white"/>
</svg>
