<svg width="150" height="87" viewBox="0 0 150 87" fill="none" xmlns="http://www.w3.org/2000/svg">
<path d="M145.8 57.9557L146.068 58.4017C144.71 59.3708 143.242 60.2645 141.811 61.1528C132.559 66.9031 123.009 72.9627 113.598 78.3929C95.6485 88.75 80.2944 88.9136 60.9809 81.8435C42.0289 74.9046 23.4673 65.9627 4.52796 58.8836C4.10521 58.666 3.61949 58.5833 3.75261 57.9539L28.4666 57.945C48.4782 57.3174 64.5644 73.9157 83.466 76.789C102.587 79.6947 113.969 68.0449 129.712 60.1944C131.385 59.3601 134.817 57.9539 136.634 57.9539H145.798L145.8 57.9557Z" fill="white"/>
<path d="M149.124 28.8589C148.797 28.9488 148.491 29.0243 148.145 29.0495C142.333 29.4739 134.454 29.2563 128.544 29.0495C122.966 28.8535 116.295 28.1559 111.146 25.964C91.1745 17.459 76.0345 1.35161 53.2939 14.7097C46.7548 18.5504 40.2551 23.2435 33.6368 26.8522C28.9631 29.4001 24.4801 29.134 19.2974 29.0405L18.8404 28.5928L19.3999 27.8861C29.6161 21.5478 39.3233 14.021 49.5197 7.7025C66.4983 -2.81638 81.05 -1.69077 98.9334 5.84146C114.392 12.3506 129.661 19.5717 144.951 26.48C145.607 26.7767 148.734 27.9221 148.959 28.2206C149.119 28.431 149.167 28.5982 149.124 28.8607V28.8589Z" fill="white"/>
<path d="M64.129 35.0588C64.2622 34.4618 64.8558 33.9583 65.4729 33.8918C67.0397 33.7228 72.9043 33.7066 74.2302 34.1219C76.2702 34.7603 78.616 39.2357 78.9668 39.2915C79.1593 39.3238 79.3644 39.2519 79.5047 39.1099C80.6002 37.9519 82.5161 34.2658 84.0219 33.9278C85.0832 33.6904 91.5631 33.73 92.7773 33.9008C93.2181 33.9619 94.3173 34.7171 94.3173 35.057V51.6696C93.988 51.7523 93.684 51.8314 93.3368 51.8584C92.5399 51.9213 87.7205 51.9483 87.3121 51.7577C87.2276 51.7181 86.9505 51.4322 86.9505 51.4017V41.1651L86.5908 40.9835C84.4014 43.4379 82.6708 46.6097 80.4689 49.012C79.2079 50.3875 78.8319 50.0171 77.6949 48.7998C75.6603 46.6223 73.9855 43.5152 72.0444 41.1957L71.4975 41.0734V51.2201C71.4975 51.2902 71.2889 51.6246 71.1953 51.6822C70.42 52.1623 65.3325 51.7901 64.1308 51.6696V35.057L64.129 35.0588Z" fill="white"/>
<path d="M96.8592 51.6444C96.7836 47.9727 96.87 44.292 96.8412 40.6185C96.8376 40.1941 96.6505 39.8003 96.6469 39.376C96.6307 37.5743 96.6505 35.7043 97.0031 33.9691L115.77 33.9134C125.382 35.4543 124.669 51.1302 115.081 51.8566C110.371 52.2144 102.535 52.2 97.8144 51.8566C97.4816 51.8332 97.1578 51.7991 96.8592 51.6426V51.6444ZM104.201 40.1761V45.2953L104.471 45.565H113.097C113.33 45.565 114.14 45.0688 114.361 44.853C115.336 43.9 115.405 42.4004 114.698 41.2712C114.597 41.1112 113.712 40.1779 113.636 40.1779H104.202L104.201 40.1761Z" fill="white"/>
<path d="M29.179 33.89H48.4062C48.8793 33.89 50.1458 34.6398 50.5577 34.9725C52.9468 36.8946 53.0313 40.2643 51.1892 42.6036C53.4756 45.1011 53.3551 49.2619 50.3527 51.1014C50.0522 51.2866 48.8487 51.8494 48.5861 51.8494H29.179L28.9092 51.5797V34.1597L29.179 33.89ZM36.3658 38.5597C35.9934 38.5597 35.8693 40.3973 36.5817 40.4998C38.7476 40.3991 41.2626 40.7569 43.3853 40.5466C44.1355 40.4728 44.9396 39.9622 44.5888 39.1494C44.5331 39.0182 44.1625 38.5615 44.0941 38.5615H36.3676L36.3658 38.5597ZM44.274 45.2054H36.3676C36.0276 45.4338 36.087 45.8258 36.087 46.1926C36.087 46.4245 36.0762 46.6565 36.1266 46.8831L36.3676 47.1797H44.274C45.0044 47.1797 45.2041 45.3727 44.274 45.2036V45.2054Z" fill="white"/>
<path d="M147.327 38.3798C147.099 38.281 146.794 38.5597 146.697 38.5597H132.142C131.734 38.8348 131.536 40.5358 132.142 40.5358H147.057L147.327 40.8055V44.7559C147.327 44.7883 146.91 45.2054 146.877 45.2054H131.872C131.82 45.8402 131.665 46.4875 132.124 47.0197L147.325 47.3595V51.6696C146.996 51.7523 146.692 51.8314 146.345 51.8584C141.81 52.2144 133.982 52.2 129.438 51.8584C127.01 51.675 124.865 50.6195 124.518 47.9745C124.243 45.8671 124.293 40.293 124.525 38.1353C124.712 36.3947 125.527 34.9814 127.2 34.3431C127.517 34.2226 128.654 33.8918 128.906 33.8918H147.055L147.325 34.1615V38.3816L147.327 38.3798Z" fill="white"/>
<path d="M0.248255 51.8494L0 51.4268L0.340002 50.8622C4.49018 46.5144 8.00534 41.2838 12.1051 36.9396C13.1665 35.814 14.2549 34.6056 15.7966 34.1633C17.3383 33.721 22.674 33.6832 24.3326 33.8846C24.9623 33.9601 26.2143 34.8214 26.2143 35.4166V51.6696L19.4755 51.8494C18.5562 51.6786 18.9052 50.0225 18.8476 49.3339C16.473 49.573 13.4993 49.0192 11.2003 49.3249C10.0939 49.4723 9.34556 51.3837 8.33454 51.8494H0.248255ZM15.2533 44.666H18.7577C19.166 44.4161 18.8476 44.2794 18.8476 44.2165V41.1633C18.8476 41.1094 19.0959 40.9116 19.0275 40.7156C18.7595 40.6706 18.6048 40.7336 18.3871 40.8828C18.0939 41.0842 15.874 43.6699 15.5232 44.1266C15.3846 44.3082 15.1778 44.3531 15.2551 44.666H15.2533Z" fill="white"/>
<path d="M54.2456 34.0698C54.5748 33.9871 54.8788 33.908 55.226 33.881C55.9546 33.8235 61.168 33.8199 61.436 33.9781C61.7418 34.1579 61.7724 34.7207 61.8012 35.0498C62.1736 39.1656 61.9595 45.3798 61.8012 49.6126C61.7742 50.3408 61.8965 51.6588 61.1284 51.8062C60.4646 51.9321 54.9904 51.9357 54.6072 51.7577C54.5226 51.7181 54.2456 51.4322 54.2456 51.4017V34.0698Z" fill="white"/>
</svg>
