<svg width="162" height="43" viewBox="0 0 162 43" fill="none" xmlns="http://www.w3.org/2000/svg">
<path d="M64.8962 42.0791L64.4148 41.0294L71.1915 2.94149C71.3956 1.76865 72.394 0.779562 73.6083 0.634912C75.1098 0.457032 79.242 0.460941 80.7495 0.634912C81.7538 0.750241 82.1282 1.36989 82.5699 2.16156L91.3276 21.8261L91.9337 21.9473L95.5172 1.72956C95.4776 1.38162 96.3947 0.640776 96.5928 0.640776H105.705C106.129 0.640776 106.355 1.89571 106.175 2.27688C103.443 14.3767 102.437 27.3717 99.6038 39.3835C99.275 40.7811 98.855 41.8875 97.1911 42.0849C95.6222 42.2706 91.2265 42.2687 89.6537 42.0849C89.0772 42.0165 88.7464 41.8289 88.3601 41.4066L79.2677 21.6443L78.6655 21.5544L75.2445 40.9532C75.2564 41.2307 74.5195 42.0791 74.4046 42.0791H64.8962Z" fill="white"/>
<path d="M127.79 33.2828H117.787C116.305 35.521 115.851 38.9828 114.558 41.2385C114.364 41.5767 114.112 41.823 113.825 42.0791H102.93C102.593 42.0791 102.532 40.9981 102.73 40.7088L117.06 5.20116C119.746 0.25374 125.958 -0.158708 131.055 0.251785C135.272 0.591908 137.77 2.52318 138.097 6.79035C138.86 16.695 138.949 27.1704 139.27 37.1043C139.319 38.6133 140.005 40.7772 138.98 42.081H128.482C128.4 42.081 127.788 41.303 127.788 41.2014V33.2847L127.79 33.2828ZM127.592 24.291C127.677 19.4003 127.489 14.4881 127.307 9.61885L126.697 9.42142L120.857 24.291H127.592Z" fill="white"/>
<path d="M18.7983 0.111045C21.9974 -0.0766093 25.8285 0.224419 29.0119 0.668142C30.0637 0.814747 32.421 1.13923 33.3006 1.51845C33.6294 1.65919 33.9087 1.82925 34.0058 2.19479C34.1028 2.56032 32.9678 8.88778 32.738 9.56802C32.4745 10.3499 32.1021 10.6275 31.2186 10.6275C27.2191 10.6236 22.3243 9.4351 18.3446 9.82996C15.8031 10.0821 14.3036 12.0036 16.6727 13.8215C21.7558 17.7212 29.9033 18.9605 30.5332 26.7286C31.3018 36.2032 24.4161 41.4418 15.5674 42.47C11.7799 42.9098 4.39501 42.5717 0.872942 41.1408C-0.0402606 40.7694 -0.0362988 40.6169 0.0211478 39.6435C0.0964227 38.369 0.789744 34.3364 1.17206 33.1518C1.55438 31.9673 2.1546 32.067 3.2857 32.1139C6.43932 32.2487 14.0837 33.7558 16.6014 32.3465C17.998 31.5665 18.5526 29.5434 17.4532 28.2963C15.714 26.324 10.318 23.906 7.95868 22.0275C3.92157 18.8119 2.91923 14.1421 4.11372 9.27481C5.77175 2.53686 12.5148 0.478534 18.7983 0.111045Z" fill="white"/>
<path d="M62.5191 16.6676C63.0935 16.8259 63.044 17.8483 63.0103 18.3252C62.9271 19.5508 62.2893 23.1417 61.9347 24.3008C61.695 25.0827 61.3919 25.372 60.5421 25.4678L46.8956 25.4893C46.7153 25.5264 46.6678 25.6418 46.6103 25.7942C46.2934 26.6328 45.6001 31.2245 45.8219 31.9731C45.9249 32.323 46.5549 32.7726 46.9114 32.8528C50.8852 33.1792 55.2333 32.5595 59.1595 32.886C60.1162 32.9661 60.4787 33.0678 60.4233 34.1331C60.3856 34.8642 59.1733 41.1877 58.9435 41.4868C58.5038 42.0595 54.3597 42.3957 53.4029 42.47C44.881 43.1288 33.251 43.1835 34.1167 31.6486C34.4931 26.6211 36.1194 19.588 37.1257 14.4842C38.4272 7.88109 39.7881 2.39612 47.3274 0.703328C51.7568 -0.291629 60.3599 -0.172391 64.8427 0.693554C65.5162 0.824521 66.1739 0.885117 66.1917 1.7061C66.2095 2.52709 65.2369 7.81268 64.9417 8.70012C64.6941 9.43901 64.3039 9.74199 63.5135 9.83191C59.8369 10.2522 55.3541 9.4742 51.6161 9.82018C48.1416 10.1408 49.0746 14.2203 48.1574 16.6696H62.5191V16.6676Z" fill="white"/>
<path d="M143.539 42.0791L143.15 41.3285L147.635 16.2161L159.976 10.4105L154.553 41.4164C154.513 41.6569 154.004 42.081 153.839 42.081H143.539V42.0791Z" fill="white"/>
<path d="M161.169 0.638822C162.246 0.93594 161.093 4.94313 160.874 5.82081L148.394 11.5853C149.174 8.53006 149.307 5.05064 150.105 2.03645C150.22 1.60446 150.502 0.638822 151.066 0.638822H161.169Z" fill="white"/>
</svg>
