<svg width="172" height="60" viewBox="0 0 172 60" fill="none" xmlns="http://www.w3.org/2000/svg">
<path d="M86.2507 55.048C86.0417 54.8489 85.7915 54.6819 85.5089 54.5501C85.4264 54.5121 85.341 54.474 85.2527 54.4388C85.2704 54.4271 85.288 54.4183 85.3057 54.4066C85.5265 54.2631 85.7179 54.0932 85.871 53.9116C86.0417 53.7125 86.1801 53.4782 86.2861 53.2116C86.3891 52.9422 86.4421 52.6288 86.4421 52.2539C86.4421 51.6096 86.2154 51.056 85.7679 50.6079C85.4823 50.3208 85.1114 50.0953 84.6639 49.9401C84.2282 49.7849 83.7189 49.7058 83.1536 49.7058H79.0349V59.5351H83.3538C83.8808 59.5351 84.3666 59.4706 84.7993 59.3447C85.2262 59.2217 85.6089 59.0401 85.9387 58.7999C86.2684 58.551 86.5216 58.2522 86.6923 57.9125C86.8719 57.5639 86.9603 57.1685 86.9603 56.7146C86.9603 56.3602 86.8925 56.038 86.763 55.7627C86.6393 55.4991 86.4656 55.2589 86.2478 55.048H86.2507ZM83.9721 53.8999C83.6983 53.979 83.398 54.0171 83.08 54.0171H80.239V50.8363H83.1448C83.8396 50.8363 84.3695 50.9769 84.7257 51.2581C85.0672 51.5246 85.2321 51.8702 85.2321 52.3388C85.2321 52.6142 85.1791 52.8543 85.0761 53.0593C84.976 53.2644 84.8317 53.4372 84.6521 53.5719C84.4637 53.7125 84.2341 53.8238 83.9721 53.8999ZM85.7561 56.7409C85.7561 57.2505 85.5589 57.6401 85.1526 57.933C84.7287 58.2405 84.1369 58.3957 83.3892 58.3957H80.2449V55.1505H83.1625C84.0398 55.1505 84.7051 55.297 85.1438 55.5811C85.5559 55.8506 85.7561 56.2196 85.7561 56.738V56.7409Z" fill="white"/>
<path d="M103.679 55.2472C104.038 55.1008 104.356 54.9016 104.624 54.6614C104.895 54.4125 105.11 54.1196 105.257 53.7857C105.41 53.4489 105.49 53.0623 105.49 52.6083C105.49 52.2422 105.419 51.8878 105.284 51.5598C105.148 51.2317 104.954 50.9418 104.707 50.6987C104.401 50.3911 104 50.1451 103.517 49.9665C103.049 49.7937 102.499 49.7058 101.886 49.7058H97.6971V59.5351H98.9041V55.6719H101.589L104.574 59.5351H106.102L102.949 55.4757C103.205 55.4171 103.45 55.3409 103.679 55.2472ZM103.603 54.02C103.388 54.187 103.126 54.3129 102.826 54.4008C102.516 54.4916 102.184 54.5355 101.807 54.5355H98.9041V50.8393H101.845C102.64 50.8393 103.255 51.0062 103.676 51.3342C104.083 51.6506 104.28 52.0752 104.28 52.6581C104.28 52.951 104.221 53.2116 104.1 53.4401C103.98 53.6685 103.815 53.8618 103.6 54.0229L103.603 54.02Z" fill="white"/>
<path d="M118.541 49.6384L113.942 59.5351H115.229L116.421 56.9225H121.62L122.812 59.5351H124.14L119.542 49.6384H118.541ZM116.948 55.789L119.026 51.2639L121.096 55.789H116.948Z" fill="white"/>
<path d="M139.196 55.0187C138.681 54.5853 137.851 54.2514 136.726 54.0259C136.199 53.9146 135.751 53.7945 135.398 53.6627C135.071 53.5426 134.815 53.4079 134.636 53.2614C134.468 53.1208 134.359 52.9773 134.297 52.8221C134.229 52.6405 134.197 52.4501 134.197 52.21C134.197 52.0079 134.241 51.8234 134.332 51.6447C134.424 51.4631 134.55 51.3108 134.724 51.1731C134.904 51.0296 135.121 50.9154 135.366 50.8334C135.622 50.7514 135.913 50.7075 136.231 50.7075C136.72 50.7075 137.179 50.7836 137.597 50.933C138.018 51.0824 138.445 51.3401 138.86 51.6974L139.061 51.8702L139.829 50.9213L139.632 50.7602C139.143 50.3648 138.631 50.0631 138.107 49.8669C137.589 49.6706 136.964 49.574 136.258 49.574C135.793 49.574 135.36 49.6413 134.968 49.7732C134.565 49.9137 134.229 50.0983 133.941 50.3355C133.644 50.5815 133.411 50.8715 133.246 51.1995C133.075 51.5393 132.993 51.8907 132.993 52.3066C132.993 52.6844 133.058 53.0359 133.187 53.3493C133.32 53.6656 133.532 53.9439 133.814 54.1723C134.085 54.3978 134.441 54.597 134.868 54.761C135.289 54.9221 135.79 55.0627 136.358 55.1769C136.903 55.2882 137.318 55.4024 137.627 55.5196C137.939 55.6367 138.189 55.7685 138.369 55.9121C138.537 56.0468 138.645 56.1874 138.704 56.3397C138.769 56.5066 138.801 56.7028 138.801 56.943C138.801 57.1715 138.754 57.3765 138.657 57.5639C138.557 57.7572 138.416 57.9271 138.242 58.0648C138.06 58.2112 137.842 58.3254 137.577 58.4074C137.038 58.5802 136.34 58.5627 135.775 58.4543C135.501 58.4016 135.236 58.3225 134.983 58.2141C134.727 58.1087 134.486 57.9769 134.244 57.8158C133.994 57.6459 133.747 57.4468 133.505 57.2183L133.311 57.0367L132.516 57.9447L132.704 58.1116C133.287 58.6271 133.9 59.0196 134.524 59.2744C135.154 59.5351 135.872 59.6698 136.652 59.6698C137.132 59.6698 137.58 59.6024 137.983 59.4677C138.386 59.3359 138.743 59.1484 139.043 58.9053C139.34 58.6652 139.579 58.3635 139.752 58.015C139.926 57.6664 140.014 57.2828 140.014 56.8434C140.014 56.0849 139.741 55.4727 139.199 55.0187H139.196Z" fill="white"/>
<path d="M150.466 49.7058H149.259V59.5351H150.466V49.7058Z" fill="white"/>
<path d="M163.499 58.3987V49.7058H162.292V59.5351H169.001V58.3987H163.499Z" fill="white"/>
<path d="M23.2399 24.0226C19.5805 27.6661 19.5805 33.5707 23.2399 37.2142C26.9023 40.8548 32.8374 40.8548 36.4998 37.2142C40.1592 33.5707 40.1592 27.6631 36.4998 24.0226C34.6686 22.2008 32.2663 21.2899 29.8669 21.2899C27.4675 21.2899 25.0681 22.2008 23.237 24.0226" fill="white"/>
<path d="M21.8209 0.913806C20.0839 0.928451 18.2115 1.30042 16.2773 2.13514C8.94375 5.29246 -1.06002 15.8276 0.0910868 23.6975C2.18428 37.9815 20.9436 45.3008 20.9436 45.3008C20.9436 45.3008 -10.0098 29.2828 27.9415 15.8627C37.4536 12.5004 31.8659 0.995814 22.027 0.913806H21.8209Z" fill="white"/>
<path d="M33.2731 44.838C22.027 48.8125 31.8894 64.1802 44.9373 58.5685C52.2738 55.4112 62.2776 44.8732 61.1235 37.0062C59.0303 22.7251 40.274 15.4029 40.274 15.4029C40.274 15.4029 71.2274 31.4179 33.2731 44.838Z" fill="white"/>
<path d="M91.9327 22.1481C96.0955 22.1481 99.3693 21.2811 101.754 19.5443C104.139 17.8134 105.331 15.2799 105.331 11.9498V11.8443C105.331 8.66066 104.165 6.17112 101.833 4.38158C99.5018 2.5979 96.2368 1.69874 92.0357 1.69874H80.1861V22.1481H91.9327ZM79.0143 0.641422H92.1476C96.7373 0.641422 100.282 1.61966 102.773 3.58786C105.263 5.55313 106.509 8.28869 106.509 11.7916V11.8971C106.509 15.5083 105.207 18.2996 102.614 20.2648C100.014 22.2272 96.4547 23.2113 91.9356 23.2113H80.192V37.8146H79.0173V0.641422H79.0143Z" fill="white"/>
<path d="M118.02 16.7853C119.827 16.0033 121.34 15.2535 122.568 14.5272C123.787 13.8037 124.773 13.0774 125.518 12.351C126.263 11.6247 126.784 10.872 127.084 10.0929C127.388 9.31672 127.538 8.47907 127.538 7.59455V7.49204C127.538 6.71003 127.37 5.93388 127.031 5.15188C126.693 4.37573 126.225 3.67573 125.624 3.05481C125.021 2.43682 124.273 1.93891 123.39 1.56694C122.503 1.19498 121.508 1.01046 120.413 1.01046C119.241 1.01046 118.205 1.20669 117.301 1.59623C116.395 1.98284 115.632 2.49832 115.011 3.13389C114.393 3.77238 113.916 4.48995 113.577 5.28367C113.242 6.08033 113.071 6.86819 113.071 7.64727V7.75271C113.071 8.98869 113.424 10.3243 114.136 11.7623C114.846 13.1945 116.138 14.8669 118.02 16.7795M117.663 37.2845C120.013 37.2845 122.194 36.6987 124.205 35.533C126.216 34.3644 128.023 32.7711 129.625 30.7531L117.719 18.0067C116.474 18.5719 115.255 19.1665 114.063 19.7845C112.868 20.4025 111.811 21.1288 110.883 21.9636C109.959 22.7954 109.211 23.7443 108.643 24.8046C108.072 25.8677 107.789 27.1389 107.789 28.6267V28.7322C107.789 29.8686 108.022 30.9435 108.481 31.9715C108.943 32.9995 109.612 33.9104 110.483 34.71C111.354 35.5037 112.397 36.1363 113.607 36.5962C114.814 37.056 116.171 37.2845 117.663 37.2845ZM130.346 31.497C128.636 33.6205 126.731 35.2928 124.635 36.5142C122.533 37.7355 120.219 38.3476 117.69 38.3476C116.047 38.3476 114.552 38.0899 113.194 37.5774C111.84 37.0619 110.668 36.3648 109.688 35.4774C108.708 34.5928 107.948 33.5648 107.412 32.402C106.879 31.2305 106.609 30.0121 106.609 28.7351V28.6297C106.609 27.0744 106.903 25.7096 107.492 24.541C108.081 23.3724 108.855 22.3443 109.821 21.4598C110.783 20.5724 111.89 19.7962 113.138 19.1226C114.39 18.4489 115.656 17.8134 116.936 17.2071C115.043 15.2594 113.727 13.5431 112.994 12.0581C112.264 10.5703 111.896 9.15564 111.896 7.80836V7.69999C111.896 6.81547 112.085 5.91338 112.461 4.99372C112.838 4.07405 113.38 3.23933 114.092 2.49539C114.808 1.75146 115.691 1.15104 116.745 0.691212C117.796 0.23138 119.021 0 120.413 0C121.697 0 122.848 0.213807 123.866 0.641422C124.885 1.06611 125.751 1.62845 126.463 2.34016C127.178 3.04602 127.732 3.83974 128.124 4.72719C128.515 5.61171 128.712 6.5343 128.712 7.49204V7.59455C128.712 8.54936 128.542 9.45438 128.206 10.3038C127.864 11.1531 127.311 11.9761 126.546 12.7757C125.777 13.5724 124.753 14.3602 123.469 15.1393C122.185 15.9155 120.616 16.715 118.759 17.5293L130.29 29.9037C131.324 28.451 132.248 26.8928 133.069 25.2293C133.885 23.5657 134.703 21.6531 135.525 19.4916L136.538 19.8138C135.757 21.9343 134.909 23.9025 134.003 25.7067C133.093 27.5138 132.089 29.1598 130.985 30.6447L137.5 37.6564L136.699 38.3476L130.346 31.497Z" fill="white"/>
<path d="M151.67 36.7543C154.411 36.7543 156.928 36.3004 159.221 35.3983C161.515 34.4962 163.484 33.2543 165.121 31.6815C166.755 30.1058 168.027 28.2665 168.936 26.1548C169.846 24.0518 170.3 21.7732 170.3 19.3305V19.2251C170.3 16.7853 169.846 14.5008 168.936 12.3774C168.027 10.2481 166.746 8.3912 165.092 6.7979C163.437 5.20752 161.462 3.9569 159.168 3.05481C156.872 2.15272 154.334 1.69874 151.561 1.69874H140.777V36.7543H151.67ZM139.605 0.641422H151.617C154.534 0.641422 157.213 1.11883 159.654 2.07364C162.089 3.02845 164.191 4.34058 165.954 6.00418C167.715 7.66777 169.075 9.62426 170.035 11.8736C170.994 14.1201 171.477 16.5569 171.477 19.1753V19.2807C171.477 21.9021 170.994 24.3359 170.035 26.5853C169.075 28.8318 167.715 30.7882 165.954 32.4548C164.191 34.1184 162.089 35.4276 159.654 36.3882C157.216 37.3401 154.537 37.8175 151.617 37.8175H139.605V0.641422Z" fill="white"/>
</svg>
