<svg width="87" height="43" viewBox="0 0 87 43" fill="none" xmlns="http://www.w3.org/2000/svg">
<path d="M86.705 1.69885C86.8242 0.968701 86.3698 0.633443 85.7607 0.633443H76.5757C75.965 0.633443 75.3913 1.08798 75.2962 1.69885L73.5382 11.6389L85.9879 5.80092L86.705 1.69724V1.69885Z" fill="white"/>
<path d="M72.7486 16.0891L68.3349 41.1271C68.2157 41.6767 68.5509 42.2521 69.2325 42.2521H78.4175C79.2667 42.2521 79.6486 41.7492 79.7566 41.1271L85.1854 10.2528L72.7357 16.0907H72.747L72.7486 16.0891Z" fill="white"/>
<path d="M30.6635 2.29684L29.384 9.47425C29.2648 10.1448 28.8813 10.5397 28.1996 10.5397H28.032C25.7841 10.3237 23.4395 10.0368 20.2457 10.0368C17.2324 10.0368 14.3738 11.1022 13.0218 18.494L11.9566 24.2723C11.7407 25.6117 11.6215 26.7368 11.6215 27.6813C11.6215 31.8801 13.8098 32.7295 16.2736 32.7295C19.4674 32.7295 21.87 32.4539 24.1663 32.2266H24.3339C24.8833 32.2266 25.1831 32.4426 25.1831 33.0164V33.292L23.9036 40.4694C23.7844 41.1996 23.4492 41.414 22.5049 41.7009C20.9386 42.2038 18.0913 42.705 14.5526 42.705C6.21842 42.705 0 38.0517 0 28.8176C0 27.4186 0.167586 25.8986 0.454417 24.2836L1.51956 18.5052C4.0543 4.36641 11.2895 0 21.8732 0C25.341 0 28.1996 0.549629 29.5983 1.06541C30.209 1.28139 30.6635 1.4603 30.6635 2.00993V2.29684Z" fill="white"/>
<path d="M69.5322 1.67468L62.811 40.0987C62.5951 41.2238 61.472 42.1683 60.3472 42.1683H53.4101C52.4062 42.1683 51.7955 41.7138 51.341 40.6484L43.0536 21.8788C42.886 21.4839 42.7184 21.4242 42.5508 21.4242C42.3832 21.4242 42.2753 21.5435 42.2156 21.9271L38.8542 41.0304C38.735 41.6412 38.1243 42.1554 37.5152 42.1554H29.1197C28.5702 42.1554 28.1755 41.7605 28.1755 41.2109V41.0433L34.8741 2.63209C35.09 1.50705 36.2132 0.562523 37.3379 0.562523H44.1671C45.2322 0.562523 45.6866 1.23304 46.1281 2.17756L54.6428 21.4968C54.8104 21.8917 54.8587 21.9997 55.0376 21.9997C55.2165 21.9997 55.3728 21.94 55.4324 21.4968L58.9002 1.66339C59.0194 1.05252 59.6301 0.538346 60.2392 0.538346H68.6347C69.1842 0.538346 69.5322 0.933241 69.5322 1.43613V1.67629V1.67468Z" fill="white"/>
</svg>
