<svg width="85" height="79" viewBox="0 0 85 79" fill="none" xmlns="http://www.w3.org/2000/svg">
<path d="M11.7757 68.9447V54.2639H17.1562V68.5455C17.1562 72.2579 18.8662 73.9718 21.9057 73.9718C24.9451 73.9718 26.5556 72.1904 26.5556 68.3621V54.2477H31.9698V68.6952C31.9698 75.2029 28.1002 78.1831 21.8061 78.1831C15.512 78.1831 11.7742 75.4538 11.7742 68.9285V68.9447H11.7757Z" fill="white"/>
<path d="M47.9474 77.85V67.2469C47.9474 64.7172 47.2329 63.4348 45.1568 63.4348C43.0808 63.4348 41.785 65.2983 41.785 68.2623V77.85H36.5041V63.9513C36.5041 62.0878 36.4382 60.7715 36.4045 59.7561H41.4527C41.5186 60.4047 41.6855 62.4531 41.7177 63.4685C42.6313 60.6057 44.8904 59.4231 47.4803 59.4231C52.0307 59.4231 53.3103 62.4854 53.3103 65.8647V77.85H47.9459H47.9474Z" fill="white"/>
<path d="M66.7653 77.85H57.8139V54.2639H65.9688C71.4328 54.2639 74.5557 56.2609 74.5557 60.2389C74.5557 62.9021 73.1443 64.6659 70.3201 65.3321C73.9247 65.8148 75.9173 67.9615 75.9173 71.1075C75.9173 75.8676 72.0814 77.8485 66.7829 77.8485H66.7668L66.7653 77.85ZM65.4535 58.1083H63.0948V63.6006H65.4857C68.0434 63.6006 69.1561 62.751 69.1561 60.8376C69.1561 58.9242 67.9776 58.1083 65.452 58.1083H65.4535ZM66.1006 67.6299H63.1109V73.938H66.2836C68.7755 73.938 70.4519 73.1222 70.4519 70.6923C70.4519 68.2623 68.4915 67.6123 66.1006 67.6123V67.6299Z" fill="white"/>
<path d="M71.6817 15.4467C67.3963 18.5428 62.7303 21.2222 57.6982 23.4027C55.2063 24.4841 52.5168 25.2339 49.6926 25.5832C47.6824 25.8326 45.64 25.9661 43.5639 25.9661V42.4782H84.7531V5.97503L71.6817 15.4291V15.4467Z" fill="white"/>
<path d="M13.0714 15.4467C17.3568 18.5428 22.0228 21.2222 27.0724 23.4027C29.5643 24.4841 32.2377 25.2339 35.0781 25.5832C37.0882 25.8326 39.1307 25.9661 41.2067 25.9661V42.4782H0V5.97503L13.0714 15.4291V15.4467Z" fill="white"/>
<path d="M43.5463 0V23.5861C45.5229 23.5861 47.4657 23.4702 49.3924 23.2193C52 22.8862 54.4582 22.2039 56.7495 21.2222C61.6322 19.1078 66.1504 16.512 70.3011 13.5157L84.7501 3.06235V0H43.5449H43.5463Z" fill="white"/>
<path d="M41.1877 0V23.5861C39.2112 23.5861 37.2683 23.4702 35.3416 23.2193C32.7341 22.8862 30.2759 22.2039 27.9846 21.2222C23.1018 19.1078 18.5837 16.512 14.433 13.5157L0 3.06235V0H41.1877Z" fill="white"/>
</svg>
