<svg width="99" height="87" viewBox="0 0 99 87" fill="none" xmlns="http://www.w3.org/2000/svg">
<path d="M39.0528 17.6655C33.2337 17.6634 27.8048 20.6024 24.617 25.481V49.4196H48.5297C56.4908 44.1501 58.6814 33.4126 53.4253 25.4366C50.2354 20.5961 44.8401 17.6803 39.0528 17.6655ZM24.617 0V19.9833L44.351 0.211285L73.737 29.6602L54.0009 49.4196H73.9289V0H24.617Z" fill="white"/>
<path d="M18.332 68.057C18.1886 65.9885 17.3116 64.4293 15.7261 63.4235C14.4316 62.6038 12.6458 62.1706 10.5607 62.1706H3.35858L0 86.31H7.00812C11.4651 86.31 14.5981 85.3676 16.3207 83.5146C17.4486 82.2955 17.9525 80.694 17.8176 78.7459C17.6447 76.1598 16.3755 74.3766 14.3156 73.7321C16.8288 72.9588 18.5112 70.6495 18.3299 68.0549L18.332 68.057ZM11.8889 80.8525C10.8601 81.9617 8.90141 82.1138 6.93854 82.1138H5.58499L6.46628 75.7225H7.79664C10.1959 75.7225 12.4392 76.0415 12.5994 78.3508C12.6753 79.4432 12.4413 80.2609 11.8868 80.8588V80.8546L11.8889 80.8525ZM12.5404 70.5544C11.6359 71.5284 9.90708 71.7334 8.61889 71.7334H7.0292L7.8114 66.3583H9.27669C11.248 66.3583 13.0274 66.521 13.1645 68.5113C13.2235 69.3607 13.0127 70.0452 12.5383 70.5587V70.5544H12.5404ZM37.579 62.1749L35.0596 79.5615L28.9686 62.1749H22.6204L19.1269 86.31H24.1299L26.5377 68.7775L32.5338 86.31H38.9853L42.5146 62.1749H37.579ZM60.1699 64.1947C58.2724 62.8552 55.7803 62.177 52.7633 62.177H45.4705L42.074 86.3121H50.3029C55.1352 86.3121 58.8121 84.9958 61.2135 82.4054C64.2432 79.1432 64.4266 74.8013 64.2664 72.5067C64.0028 68.7226 62.6261 65.9273 60.172 64.1969H60.1699V64.1947ZM56.7523 79.6587C55.2364 81.2919 52.9045 82.1202 49.8222 82.1202H47.893L50.0836 66.3668H51.5173C55.8583 66.3668 58.5802 68.4141 58.8205 71.8433C59.0609 75.2724 58.3651 77.924 56.7544 79.6587H56.7523ZM72.8305 66.3668H82.0734L82.5815 62.177H68.209L64.8188 86.3121H79.3642L79.9819 82.1223H70.6399L71.5085 75.9337H79.8027L80.3467 71.744H72.0841L72.8326 66.3689L72.8305 66.3668ZM98.3477 62.8362C96.5472 62.1284 94.4325 61.7692 92.0648 61.7692C89.0794 61.7692 86.6106 62.6587 85.1179 64.275C83.9414 65.5427 83.4122 67.1887 83.5556 69.1642C83.8044 72.7539 86.4124 74.1632 88.7126 75.4034C90.57 76.4049 92.1724 77.2712 92.2989 79.0692C92.3621 79.9799 92.126 80.7384 91.5694 81.3321C90.861 82.0969 89.6592 82.5322 88.2698 82.5322C86.2163 82.5322 84.1965 81.7018 82.4635 80.9243L82.2126 80.8102L81.171 85.3148L81.3734 85.3866C83.8613 86.2719 86.1847 86.7241 88.2804 86.7241C91.7296 86.7241 94.3945 85.8177 95.9863 84.1041C97.2598 82.7329 97.8227 80.8757 97.6646 78.5811C97.3947 74.7146 94.5379 73.0898 92.2356 71.7841C90.4983 70.8016 89.0077 69.9501 88.9023 68.4373C88.8496 67.907 89.0246 67.3809 89.3872 66.9922C90.0914 66.2336 91.4323 65.9632 92.4528 65.9632C94.15 65.9928 95.8198 66.4006 97.342 67.1591L97.6034 67.288L98.5501 62.9144L98.3519 62.8362H98.3477Z" fill="white"/>
</svg>
