<svg width="64" height="93" viewBox="0 0 64 93" fill="none" xmlns="http://www.w3.org/2000/svg">
<path d="M14.0034 81.5876C14.0034 83.0101 14.0034 87.3374 10.0039 87.3374C6.80058 87.3374 6.12749 84.2109 6.12749 81.5876V67.4281H0.359113V81.3108C0.359113 90.395 5.51803 92.3022 9.84842 92.3022C16.2381 92.3022 19.7579 88.3978 19.7579 81.3067V67.4281H14.0034V81.5876Z" fill="white"/>
<path d="M35.4988 72.2169C37.0471 72.2169 38.4749 72.4921 39.7389 73.0344L40.5854 73.3992L41.9172 68.5348L41.3421 68.2343C40.2858 67.6823 38.1568 67.0927 35.3531 67.0927C27.4886 67.0927 22.2009 72.3219 22.2009 80.1059C22.2009 87.89 27.1448 92.6371 34.7955 92.6371C37.8131 92.6371 40.0965 91.9955 41.1343 91.4461L41.6679 91.1636L40.649 86.2303L39.7235 86.6753C38.7498 87.144 37.0425 87.4578 35.4788 87.4578C30.9402 87.4578 28.2299 84.6441 28.2299 79.932C28.2299 75.2199 30.9458 72.2164 35.4978 72.2164" fill="white"/>
<path d="M52.3541 87.625C51.7846 87.625 51.309 87.625 50.9094 87.607V81.583H52.1996C53.8613 81.583 56.6516 81.9678 56.6516 84.5402C56.6516 87.1126 54.3153 87.625 52.3541 87.625ZM56.0437 74.3813C56.0437 75.9283 54.6001 76.8894 52.2751 76.8894H50.9125V72.0692C51.3326 72.0286 51.8729 72.008 52.5259 72.008C56.0432 72.008 56.0432 73.7943 56.0432 74.3813M59.1321 78.8418C60.8697 77.6786 61.8952 75.8882 61.8952 73.8828C61.8952 71.7744 60.8876 69.9599 59.1275 68.9C57.4499 67.7384 55.4691 67.2856 52.0801 67.2856C49.808 67.2856 47.2757 67.4775 45.7818 67.7631L45.1277 67.8886V92.0367L45.8326 92.1236C47.5732 92.3392 49.3016 92.4441 51.1156 92.4441C55.463 92.4441 58.3507 91.6976 60.1873 90.1048C61.8177 88.7553 62.715 86.8404 62.715 84.7121C62.715 81.7471 61.0646 79.8466 59.1321 78.8429" fill="white"/>
<path d="M0.487368 60.6982V61.1875H63.0721V0H0V61.1875H0.487368V60.6982H0.975248V0.978024H62.0968V60.2095H0.487368V60.6982Z" fill="white"/>
<path d="M55.3793 10.6605C56.3489 14.9466 57.3196 19.3696 57.3452 23.7802C57.3745 29.2996 55.877 34.0837 53.2411 38.9075L53.2231 38.9414L44.3438 57.8398C44.2032 58.1366 44.3202 58.4927 44.6116 58.648C44.8999 58.8049 45.2626 58.7092 45.436 58.4299L56.3725 40.9844L56.3761 40.9767C58.1189 38.4799 59.3193 35.7599 59.9308 32.78C61.4519 25.3628 59.0731 17.2623 56.5742 10.3143C56.4628 10.0035 56.1319 9.83426 55.8154 9.92481C55.4968 10.0164 55.3065 10.339 55.3798 10.66" fill="white"/>
<path d="M46.4836 13.324C47.7661 16.0847 49.0518 19.0815 49.7387 22.0531C50.2497 24.2654 50.4323 26.5461 49.8028 28.7522C48.8707 32.0243 46.3271 34.4531 43.6497 36.3978L23.3311 51.1613C23.0607 51.3553 22.9945 51.7257 23.1766 52.0025C23.3577 52.2778 23.7307 52.3637 24.0154 52.1954C26.6862 50.6144 29.3503 49.0201 31.997 47.402C34.4133 45.9229 36.8183 44.4222 39.1962 42.8787C41.376 41.4603 43.5399 40.0095 45.6489 38.4887C55.9909 31.0241 54.6319 21.9976 47.545 12.6876C47.3526 12.4344 47.0002 12.367 46.7278 12.5306C46.4543 12.6932 46.3482 13.0343 46.4836 13.3235" fill="white"/>
<path d="M50.2892 11.691C50.932 13.6815 51.5615 15.6849 52.1165 17.7001C52.5577 19.3048 52.9574 20.9341 53.2344 22.5738C53.6474 25.0453 53.7726 27.5828 53.0338 30.008C52.1422 32.9256 50.1188 35.3061 47.9693 37.4016L30.0962 54.8424C29.8654 55.0673 29.8454 55.4341 30.0567 55.6805C30.2686 55.928 30.6354 55.963 30.8935 55.7675C32.1581 54.8131 33.4201 53.8557 34.6744 52.8905C37.0322 51.0759 39.3629 49.231 41.6643 47.3454C44.4633 45.0545 47.2162 42.7059 49.9434 40.3254C52.8573 37.7859 55.1228 34.7484 55.9806 30.93C56.6639 27.8878 56.3623 24.7876 55.6045 21.7908C54.6847 18.157 53.0949 14.5731 51.427 11.2228C51.2839 10.9373 50.9407 10.8107 50.6431 10.9327C50.3456 11.0546 50.1881 11.3854 50.2887 11.6915" fill="white"/>
</svg>
