<svg width="163" height="97" viewBox="0 0 163 97" fill="none" xmlns="http://www.w3.org/2000/svg">
<path d="M66.7046 28.4523H66.7104L66.7133 28.4435L66.7046 28.4523Z" fill="white"/>
<path d="M71.2496 32.8941C72.9467 32.8941 74.1672 31.8221 74.1672 30.2825C74.1672 29.1408 73.1908 28.4552 72.1214 28.4552H66.7104L65.4579 32.8941H71.2496Z" fill="white"/>
<path d="M100.975 30.602C100.975 30.1314 100.871 28.4784 98.4499 28.4784H93.3382C93.312 28.6091 91.859 33.8586 91.859 33.8586H97.0666C100.01 33.8586 100.978 31.7001 100.978 30.602H100.975Z" fill="white"/>
<path d="M71.5111 40.7117C71.7291 40.3282 71.8773 39.2068 71.5634 38.6752C71.2496 38.1436 71.1188 37.5161 68.8289 37.5161H64.1444V37.5074L62.6478 42.6958H67.8467C70.773 42.6958 71.2438 41.1997 71.514 40.7117H71.5111Z" fill="white"/>
<path d="M100.06 23.6473C102.219 23.6909 105.32 24.2225 106.523 27.4529C107.36 29.6724 106.723 31.9093 105.886 33.3212C105.163 34.5413 103.344 36.447 101.254 37.0135C102.344 37.0135 103.623 37.885 103.71 39.8169C103.736 40.366 104.032 47.8959 104.032 47.8959H97.4996L97.2729 41.191C97.2032 40.4066 97.4647 38.5881 94.5471 38.5881H90.531L87.9621 47.7042H80.9237L87.8749 23.656H72.6939C74.7746 23.6909 77.6312 24.1876 79.1045 25.98C80.8714 28.1385 80.3251 30.8286 79.6102 32.3102C79.4707 32.5978 78.3548 34.5558 76.4397 35.4448C76.6141 35.4883 78.1543 36.4819 78.6861 38.1174C79.4358 40.4328 78.5379 43.7591 76.8756 45.1622C75.629 46.2081 74.5595 47.6432 68.4191 47.6432H54.2407L61.1657 23.6473H48.667V64.8731H113.619V23.6473H100.06Z" fill="white"/>
<path d="M113.619 0H48.667V15.7658H113.619V0Z" fill="white"/>
<path fill-rule="evenodd" clip-rule="evenodd" d="M126.789 85.0343C126.833 84.9472 126.876 84.8252 126.876 84.738C127.26 83.5092 127.26 82.536 126.789 81.8213C126.109 80.7232 124.334 80.177 121.12 80.177H113.552L109.025 96.1608H114.267L115.834 90.6237H117.444C118.42 90.6237 119.01 90.7108 119.341 90.9636C119.89 91.3906 119.803 92.1053 119.428 93.3748C119.428 93.4968 119.385 93.584 119.341 93.6711C119.001 94.9435 118.879 95.8296 118.914 96.1608H124.2L124.322 95.6988C123.729 95.6988 123.982 94.9755 124.575 92.9129C125.508 89.6563 124.575 89.2728 123.096 88.6453C125.002 88.1834 126.223 86.7396 126.772 85.0489L126.789 85.0314V85.0343ZM121.797 85.5834C121.544 86.6031 120.698 87.0185 119.341 87.0621C119.21 87.1056 119.045 87.1056 118.879 87.1056H116.851L117.74 83.9362H120.196C121.381 83.9362 122.137 84.4417 121.805 85.5805H121.797V85.5834Z" fill="white"/>
<path fill-rule="evenodd" clip-rule="evenodd" d="M12.2634 80.177H4.56244L0 96.152H5.24245L6.63733 91.2076H9.30214C9.59856 91.2076 9.89497 91.164 10.1478 91.164C14.2075 90.9113 16.6195 88.7964 17.5058 85.5834C18.4386 82.2832 16.8258 80.1683 12.2634 80.1683V80.177ZM12.5162 85.5834C12.1762 86.8994 11.2434 87.402 10.1478 87.4455C10.0606 87.4455 9.98215 87.4891 9.89497 87.4891H7.69221L8.71222 83.9362H10.1914C11.3334 83.9362 12.9434 84.1018 12.5162 85.5805V85.5834Z" fill="white"/>
<path fill-rule="evenodd" clip-rule="evenodd" d="M102.855 80.177H95.2445L90.6821 96.1608H99.5222C103.163 95.9516 105.828 94.6385 106.749 91.3383C107.211 89.6069 106.706 88.1253 105.105 87.6983C106.334 87.0621 107.726 85.8361 108.188 84.1889C109.077 81.0195 106.456 80.1741 102.858 80.1741L102.855 80.177ZM101.966 90.9549C101.626 92.0965 100.693 92.39 99.5106 92.4335H96.9765L97.8222 89.4733H99.5106C101.155 89.4733 102.341 89.5604 101.966 90.952V90.9549ZM103.021 85.1651C102.768 86.1412 101.879 86.6002 100.827 86.6002H98.6678L99.4263 83.9362H101.245C102.344 83.9362 103.361 83.9362 103.021 85.1651Z" fill="white"/>
<path fill-rule="evenodd" clip-rule="evenodd" d="M53.2904 80.177H38.618L37.4323 84.401H42.1255L38.7807 96.152H44.0261L47.368 84.401H52.1077L53.2904 80.177Z" fill="white"/>
<path fill-rule="evenodd" clip-rule="evenodd" d="M17.7674 96.152H31.0827L32.1463 92.4364H24.0647L24.7854 89.9381H31.3355L32.4427 86.2196H25.8403L26.4767 83.9391H34.2532L35.3168 80.177H22.2862L17.7674 96.152Z" fill="white"/>
<path fill-rule="evenodd" clip-rule="evenodd" d="M83.1904 79.75C82.3883 79.75 81.5805 79.8807 80.822 80.0027C76.8844 80.8917 73.6703 83.852 72.4876 88.0382C70.9212 93.4881 73.4204 96.5791 78.41 96.5791C79.2121 96.5791 80.0199 96.4919 80.822 96.3263C84.6289 95.481 87.9301 92.6078 89.2349 88.0817C90.4206 83.8926 88.8949 79.75 83.1904 79.75ZM83.9925 88.0817C83.3996 90.1966 82.3477 91.8438 80.822 92.4335C80.3948 92.5991 79.9764 92.6863 79.5056 92.6863C77.0151 92.6863 77.1372 90.1095 77.6864 88.0817C78.1485 86.4375 79.1656 84.5724 80.8133 83.8926C81.1969 83.7619 81.5718 83.6835 82.0425 83.6835C84.3673 83.5963 84.5766 85.9204 83.9837 88.0788H83.9925V88.0817Z" fill="white"/>
<path fill-rule="evenodd" clip-rule="evenodd" d="M136.725 80.177L136.385 80.7261L126.49 96.1549H131.61L132.796 94.04H138.038V96.1549H143.237L142.052 80.1712H136.722V80.18L136.725 80.177ZM134.74 90.7457L136.385 87.829L137.995 84.9995L138.038 90.7457H134.74Z" fill="white"/>
<path fill-rule="evenodd" clip-rule="evenodd" d="M64.1618 80.177H56.6382L52.7005 94.0894L52.1077 96.1608H57.3066L58.9165 90.6237H60.5177C61.4505 90.6237 62.084 90.7108 62.424 90.9636C62.9297 91.3906 62.8512 92.1053 62.5112 93.3748C62.4676 93.4968 62.4676 93.584 62.424 93.6711C62.084 94.9435 61.962 95.8296 61.9969 96.1608H67.2829L67.4137 95.6988C66.8208 95.6988 67.0737 94.9755 67.6665 92.9129C68.5993 89.6563 67.6665 89.2728 66.1437 88.6453C68.1721 88.1399 69.445 86.6176 69.9506 84.7525C70.8399 81.6615 69.4886 80.1829 64.1589 80.1829V80.1741L64.1618 80.177ZM64.8738 85.5834C64.5774 86.6031 63.7753 87.0185 62.4182 87.0621C62.2875 87.1056 62.1218 87.1056 61.9562 87.1056H59.8842L60.817 83.9362H63.229C64.4583 83.9362 65.2138 84.4417 64.8738 85.5805V85.5834Z" fill="white"/>
<path fill-rule="evenodd" clip-rule="evenodd" d="M156.181 83.4685C156.686 83.4685 157.157 83.5556 157.454 83.7212C157.794 83.9304 157.959 84.2703 157.916 84.8194H162.862C163.289 82.0247 161.929 79.7442 157.488 79.7442C153.472 79.7442 150.043 81.4756 149.119 84.8629C147.387 90.9491 157.026 89.3019 156.346 91.716C156.137 92.4742 155.117 92.9013 153.856 92.9013C153.307 92.9013 152.801 92.7705 152.461 92.5178C152.077 92.2215 151.912 91.8031 151.955 91.2454H146.922C146.242 94.1185 148.273 96.5733 152.505 96.5733C156.736 96.5733 160.499 94.7983 161.554 91.0798C163.199 85.29 153.603 86.7716 154.283 84.3574C154.414 83.7648 155.042 83.4685 156.189 83.4685H156.181Z" fill="white"/>
</svg>
