<svg width="137" height="48" viewBox="0 0 137 48" fill="none" xmlns="http://www.w3.org/2000/svg">
<path d="M4.88224 38.9319C5.60305 38.9319 6.17065 39.1031 6.58213 39.4483C6.99506 39.7921 7.2008 40.2564 7.2008 40.8367C7.2008 41.4561 6.9936 41.9291 6.58213 42.2569C6.17065 42.5863 5.60743 42.7502 4.89246 42.7502L4.75676 42.8256H3.38372V45.2469H2.0705V38.9319H4.88224ZM4.72758 41.8217C5.10111 41.8217 5.37981 41.7477 5.56366 41.5969C5.74751 41.4474 5.83943 41.2153 5.83943 40.902C5.83943 40.5886 5.74751 40.3594 5.56366 40.2085C5.37981 40.0591 5.10111 39.9851 4.72758 39.9851H3.38372V41.8217H4.72758ZM5.50967 42.1003L7.57871 45.2484H6.08019L4.37009 42.4833L5.50967 42.1003Z" fill="white"/>
<path d="M10.6414 45.3441C10.1322 45.3441 9.68861 45.2455 9.31216 45.0467C8.9357 44.8494 8.64388 44.5665 8.43814 44.1951C8.2324 43.8252 8.1288 43.3798 8.1288 42.8561C8.1288 42.3324 8.2324 41.887 8.43814 41.5156C8.64534 41.1457 8.93278 40.8613 9.3034 40.664C9.67256 40.4667 10.0957 40.3666 10.5743 40.3666C11.0529 40.3666 11.479 40.4638 11.8204 40.6582C12.1618 40.8526 12.423 41.1181 12.6039 41.4532C12.7834 41.7884 12.8753 42.1684 12.8753 42.5964C12.8753 42.7241 12.8724 42.8459 12.8651 42.9591C12.8593 43.0737 12.8476 43.1767 12.836 43.2652H8.98093V42.357H12.2567L11.619 42.5863C11.619 42.1844 11.5271 41.8754 11.3433 41.6578C11.1594 41.4416 10.9011 41.3314 10.5655 41.3314C10.3204 41.3314 10.1088 41.3894 9.93229 41.504C9.75573 41.6186 9.62149 41.7898 9.53103 42.0161C9.44056 42.2424 9.39533 42.5282 9.39533 42.8735C9.39533 43.2188 9.44494 43.4901 9.54562 43.7106C9.64484 43.9296 9.78637 44.0936 9.97022 44.2024C10.1541 44.3112 10.3744 44.3649 10.6327 44.3649C10.9157 44.3649 11.1448 44.3112 11.3185 44.2024C11.4921 44.0936 11.6278 43.9441 11.7241 43.7526L12.7776 44.1545C12.674 44.404 12.5179 44.6173 12.3092 44.7957C12.1006 44.9742 11.851 45.1105 11.5651 45.2034C11.2776 45.2948 10.9697 45.3412 10.6429 45.3412" fill="white"/>
<path d="M13.9945 47.2576V40.4638H15.1822L15.2698 41.9857L15.1064 41.8145C15.1647 41.533 15.2727 41.2849 15.4303 41.0673C15.5879 40.8512 15.7892 40.68 16.0344 40.5567C16.2795 40.4319 16.5524 40.3695 16.8558 40.3695C17.2484 40.3695 17.6 40.4682 17.9093 40.6669C18.2187 40.8642 18.4623 41.1471 18.6389 41.5142C18.8155 41.8812 18.9059 42.3266 18.9059 42.8488C18.9059 43.3711 18.8155 43.8208 18.6345 44.1937C18.4551 44.5665 18.2085 44.8523 17.8947 45.0496C17.5825 45.2484 17.2265 45.347 16.8267 45.347C16.4021 45.347 16.049 45.2295 15.7688 44.993C15.4886 44.758 15.296 44.4606 15.1939 44.1023L15.3194 43.9006V47.2605H13.996L13.9945 47.2576ZM16.44 44.3387C16.7931 44.3387 17.0718 44.2125 17.2761 43.9601C17.4789 43.7091 17.581 43.3406 17.581 42.8546C17.581 42.3686 17.4833 42.0016 17.2863 41.7492C17.0893 41.4968 16.8135 41.3705 16.459 41.3705C16.2343 41.3705 16.0344 41.43 15.8651 41.5475C15.6944 41.665 15.5601 41.8348 15.4638 42.0553C15.3675 42.2758 15.3179 42.5413 15.3179 42.8546C15.3179 43.168 15.3632 43.4175 15.4536 43.6453C15.5441 43.8716 15.674 44.0442 15.8461 44.1618C16.0169 44.2793 16.2153 44.3387 16.44 44.3387Z" fill="white"/>
<path d="M21.7352 45.3441C21.4127 45.3441 21.1223 45.2861 20.8655 45.1729C20.6073 45.0583 20.403 44.8741 20.2512 44.6216C20.0995 44.3707 20.0236 44.0428 20.0236 43.6409V40.4638H21.347V43.3247C21.347 43.6946 21.4258 43.9514 21.579 44.0936C21.7337 44.2386 21.9555 44.3097 22.2459 44.3097C22.3816 44.3097 22.5129 44.2865 22.6428 44.2386C22.7712 44.1908 22.885 44.1153 22.9856 44.0138C23.0849 43.9122 23.1637 43.7788 23.222 43.6177C23.2804 43.4552 23.3081 43.2623 23.3081 43.0389V40.4653H24.6315V45.2498H23.4526L23.4044 44.4171C23.2439 44.7362 23.0221 44.9713 22.742 45.1207C22.4618 45.2701 22.1233 45.3456 21.7323 45.3456" fill="white"/>
<path d="M29.2832 41.4387H25.5245V40.4624H29.2832V41.4387ZM27.7366 39V43.6888C27.7366 43.918 27.7949 44.0863 27.9146 44.1908C28.0342 44.2967 28.1977 44.3489 28.4034 44.3489C28.5712 44.3489 28.7127 44.3257 28.8324 44.2778C28.952 44.2285 29.06 44.1647 29.1563 44.0805L29.3693 44.9524C29.2147 45.0743 29.0221 45.17 28.7901 45.2396C28.5581 45.3093 28.3129 45.3456 28.0561 45.3456C27.7337 45.3456 27.4491 45.2962 27.2011 45.2019C26.953 45.1062 26.7604 44.9524 26.6203 44.742C26.4817 44.5317 26.4131 44.2502 26.4131 43.8992V39.3642L27.738 39H27.7366Z" fill="white"/>
<path d="M32.9836 42.1946C32.9836 41.9204 32.9048 41.7071 32.7472 41.5548C32.5896 41.401 32.3824 41.3241 32.1242 41.3241C31.8849 41.3241 31.6777 41.3851 31.4967 41.5055C31.3173 41.6273 31.1845 41.8275 31.1013 42.109L29.9705 41.7651C30.0799 41.343 30.3192 41.005 30.6898 40.7511C31.0605 40.4958 31.558 40.3681 32.1825 40.3681C32.6086 40.3681 32.9792 40.4334 33.2944 40.5654C33.6096 40.696 33.8562 40.8918 34.0342 41.1544C34.2107 41.4155 34.2997 41.7448 34.2997 42.1394V44.082C34.2997 44.3242 34.415 44.4446 34.647 44.4446C34.7579 44.4446 34.8615 44.4287 34.9563 44.3968L34.879 45.2106C34.7112 45.2933 34.5025 45.3354 34.2516 45.3354C34.0254 45.3354 33.8226 45.2962 33.6417 45.2193C33.4622 45.1424 33.3207 45.0264 33.2171 44.8697C33.1149 44.7145 33.0624 44.5172 33.0624 44.2822V44.2444L33.2944 44.2053C33.2565 44.4475 33.1499 44.6535 32.9748 44.8218C32.7997 44.9916 32.5896 45.1207 32.343 45.2092C32.095 45.2977 31.8382 45.3426 31.5741 45.3426C31.2458 45.3426 30.9627 45.2933 30.7234 45.1932C30.4841 45.0946 30.3017 44.9495 30.1733 44.758C30.0434 44.568 29.9807 44.3315 29.9807 44.05C29.9807 43.6932 30.096 43.4016 30.3294 43.1753C30.5614 42.9489 30.8927 42.7937 31.3246 42.711L33.1412 42.3469L33.131 43.1593L31.9724 43.39C31.7535 43.4349 31.5872 43.493 31.4749 43.5655C31.361 43.6395 31.3071 43.7584 31.3071 43.9253C31.3071 44.0921 31.3654 44.2067 31.4851 44.288C31.6047 44.3707 31.7477 44.4127 31.9155 44.4127C32.0512 44.4127 32.1825 44.3968 32.3124 44.3649C32.4408 44.3329 32.5575 44.2822 32.6597 44.2111C32.7633 44.1414 32.8435 44.0457 32.9004 43.9238C32.9588 43.802 32.988 43.6554 32.988 43.4843V42.1917L32.9836 42.1946Z" fill="white"/>
<path d="M37.9505 40.3681C38.3824 40.3681 38.7472 40.4305 39.0463 40.5552C39.3469 40.6785 39.5876 40.8483 39.77 41.0615C39.9538 41.2762 40.0837 41.5127 40.1625 41.7738L38.9252 42.2134C38.861 41.9262 38.7515 41.71 38.5969 41.562C38.4422 41.4155 38.2335 41.3415 37.9694 41.3415C37.7243 41.3415 37.5156 41.3981 37.3406 41.5098C37.1669 41.6215 37.0356 41.7913 36.9437 42.0176C36.8532 42.2439 36.8094 42.5253 36.8094 42.8648C36.8094 43.2043 36.8561 43.4843 36.9495 43.7077C37.0429 43.9296 37.1786 44.0965 37.3551 44.2053C37.5332 44.3126 37.7404 44.3678 37.9782 44.3678C38.1723 44.3678 38.3357 44.3329 38.4714 44.2662C38.6071 44.1995 38.7165 44.1037 38.8041 43.9746C38.8901 43.8469 38.95 43.6932 38.9835 43.5162L40.1815 43.8977C40.11 44.185 39.9787 44.4374 39.7846 44.6535C39.592 44.8712 39.3439 45.0394 39.0404 45.1613C38.7369 45.2832 38.3853 45.3426 37.9869 45.3426C37.4908 45.3426 37.0531 45.244 36.6737 45.0452C36.2944 44.8479 35.9996 44.5651 35.7939 44.1937C35.5881 43.8237 35.4845 43.3784 35.4845 42.8546C35.4845 42.3309 35.5881 41.8856 35.7939 41.5142C35.9996 41.1442 36.29 40.8599 36.6635 40.6626C37.0371 40.4638 37.466 40.3652 37.949 40.3652M37.2822 45.1715L37.6791 44.9219C38.1431 45.0119 38.4801 45.157 38.6888 45.3615C38.8974 45.5661 39.0025 45.8243 39.0025 46.1362C39.0025 46.48 38.8843 46.7615 38.6494 46.9791C38.4145 47.1967 38.0993 47.304 37.7083 47.304C37.4835 47.304 37.2939 47.2765 37.1421 47.2228C36.9904 47.1691 36.8605 47.1038 36.7496 47.027L36.9816 46.3277C37.0648 46.3785 37.1538 46.4234 37.2472 46.4626C37.3406 46.5003 37.4544 46.5192 37.5901 46.5192C37.7579 46.5192 37.895 46.4684 38.0059 46.3654C38.1153 46.2639 38.1708 46.1159 38.1708 45.9258C38.1708 45.7735 38.1037 45.6386 37.9724 45.524C37.841 45.4094 37.6105 45.2904 37.2807 45.17" fill="white"/>
<path d="M43.9592 42.1946C43.9592 41.9204 43.8804 41.7071 43.7228 41.5548C43.5637 41.401 43.3565 41.3241 43.0997 41.3241C42.8604 41.3241 42.6518 41.3851 42.4708 41.5055C42.2914 41.6273 42.1586 41.8275 42.0754 42.109L40.9446 41.7637C41.054 41.3415 41.2948 41.005 41.6654 40.7496C42.0346 40.4943 42.5336 40.3666 43.1581 40.3666C43.5842 40.3666 43.9533 40.4319 44.2685 40.5625C44.5851 40.6931 44.8303 40.8904 45.0083 41.1515C45.1863 41.4126 45.2753 41.7419 45.2753 42.1365V44.0791C45.2753 44.3213 45.3906 44.4432 45.6226 44.4432C45.7335 44.4432 45.8356 44.4258 45.9319 44.3939L45.8531 45.2077C45.6853 45.2904 45.4767 45.3325 45.2257 45.3325C44.9995 45.3325 44.7967 45.2933 44.6158 45.2179C44.4348 45.141 44.2933 45.0249 44.1912 44.8683C44.0876 44.7116 44.0365 44.5143 44.0365 44.2793V44.2415L44.2685 44.2038C44.2306 44.4461 44.124 44.6507 43.9504 44.8204C43.7753 44.9901 43.5652 45.1192 43.3171 45.2077C43.0691 45.2977 42.8123 45.3412 42.5482 45.3412C42.2199 45.3412 41.9368 45.2919 41.6975 45.1918C41.4597 45.0946 41.2758 44.9481 41.1474 44.7566C41.019 44.5651 40.9548 44.33 40.9548 44.0486C40.9548 43.6917 41.0715 43.4001 41.3035 43.1738C41.5355 42.9475 41.8668 42.7923 42.2987 42.7096L44.1153 42.3454L44.1065 43.1593L42.948 43.3885C42.7277 43.4335 42.5628 43.4915 42.4504 43.5655C42.3366 43.6395 42.2812 43.7584 42.2812 43.9238C42.2812 44.0892 42.3395 44.2053 42.4592 44.2865C42.5788 44.3707 42.7218 44.4113 42.8896 44.4113C43.0253 44.4113 43.1581 44.3968 43.2865 44.3649C43.4149 44.3315 43.5316 44.2822 43.6338 44.2111C43.7374 44.1414 43.8176 44.0457 43.8745 43.9238C43.9329 43.802 43.9621 43.6569 43.9621 43.4843V42.1917L43.9592 42.1946ZM45.0229 38.3777C45.0097 38.6968 44.9528 38.9638 44.8536 39.177C44.7544 39.3917 44.6201 39.5499 44.4538 39.6558C44.286 39.7617 44.0934 39.8139 43.8731 39.8139C43.6936 39.8139 43.5375 39.7834 43.4105 39.724C43.2807 39.663 43.1698 39.5948 43.0764 39.5223C42.9845 39.4483 42.894 39.383 42.8064 39.3207C42.7189 39.2597 42.627 39.2293 42.5307 39.2293C42.4081 39.2293 42.3162 39.2786 42.2549 39.3772C42.1936 39.4759 42.1513 39.621 42.125 39.8125H41.3138C41.34 39.3337 41.4568 38.9754 41.6669 38.736C41.8755 38.4966 42.1571 38.3762 42.5117 38.3762C42.6868 38.3762 42.8356 38.4067 42.9611 38.4676C43.0881 38.5286 43.196 38.5967 43.285 38.6736C43.3755 38.7505 43.4601 38.8173 43.5404 38.8753C43.6221 38.9333 43.7096 38.9623 43.8074 38.9623C43.9373 38.9623 44.0307 38.9116 44.0919 38.8129C44.1532 38.7143 44.1941 38.5692 44.2116 38.3777H45.0229Z" fill="white"/>
<path d="M48.9348 40.3666C49.4251 40.3666 49.8555 40.4653 50.2261 40.664C50.5967 40.8628 50.8856 41.1471 51.0958 41.5156C51.3044 41.8856 51.4109 42.3324 51.4109 42.8561C51.4109 43.3798 51.3059 43.8179 51.0958 44.1908C50.8856 44.5636 50.5967 44.8494 50.2261 45.0467C49.8555 45.244 49.4251 45.3441 48.9348 45.3441C48.4445 45.3441 48.0228 45.2455 47.6493 45.0467C47.2758 44.8494 46.9854 44.5636 46.7753 44.1908C46.5666 43.8179 46.4616 43.374 46.4616 42.8561C46.4616 42.3382 46.5652 41.887 46.7753 41.5156C46.9839 41.1457 47.2758 40.8613 47.6493 40.664C48.0228 40.4667 48.4518 40.3666 48.9348 40.3666ZM48.9348 41.343C48.6911 41.343 48.4825 41.3981 48.3117 41.5113C48.141 41.623 48.0112 41.7898 47.9192 42.0132C47.8288 42.2366 47.7835 42.5166 47.7835 42.8561C47.7835 43.1956 47.8288 43.4756 47.9192 43.6975C48.0097 43.9209 48.1396 44.0878 48.3117 44.2009C48.4825 44.3126 48.6897 44.3678 48.9348 44.3678C49.1799 44.3678 49.3784 44.3126 49.5491 44.2009C49.7198 44.0878 49.8511 43.9224 49.9401 43.6975C50.0306 43.4756 50.0758 43.1941 50.0758 42.8561C50.0758 42.5181 50.0306 42.2381 49.9401 42.0132C49.8511 41.7898 49.7198 41.623 49.5491 41.5113C49.3784 41.3981 49.1741 41.343 48.9348 41.343Z" fill="white"/>
<path d="M55.4775 47.2576V40.4638H56.6652L56.7528 41.9857L56.5894 41.8145C56.6477 41.533 56.7557 41.2849 56.9133 41.0673C57.0709 40.8512 57.2722 40.68 57.5174 40.5567C57.7625 40.4319 58.0354 40.3695 58.3389 40.3695C58.7314 40.3695 59.083 40.4682 59.3924 40.6669C59.7017 40.8642 59.9454 41.1471 60.1219 41.5142C60.2985 41.8812 60.3889 42.3266 60.3889 42.8488C60.3889 43.3711 60.2985 43.8208 60.1175 44.1937C59.9381 44.5665 59.6915 44.8523 59.3778 45.0496C59.0655 45.2484 58.7095 45.347 58.3097 45.347C57.8851 45.347 57.532 45.2295 57.2518 44.993C56.9717 44.758 56.7791 44.4606 56.6769 44.1023L56.8024 43.9006V47.2605H55.479L55.4775 47.2576ZM57.923 44.3387C58.2761 44.3387 58.5548 44.2125 58.7591 43.9601C58.9619 43.7091 59.0641 43.3406 59.0641 42.8546C59.0641 42.3686 58.9663 42.0016 58.7693 41.7492C58.5723 41.4968 58.2966 41.3705 57.942 41.3705C57.7173 41.3705 57.5174 41.43 57.3481 41.5475C57.1774 41.665 57.0432 41.8348 56.9469 42.0553C56.8506 42.2758 56.8009 42.5413 56.8009 42.8546C56.8009 43.168 56.8462 43.4175 56.9366 43.6453C57.0271 43.8716 57.157 44.0442 57.3291 44.1618C57.4999 44.2793 57.6983 44.3387 57.923 44.3387Z" fill="white"/>
<path d="M64.2615 42.1946C64.2615 41.9204 64.1827 41.7071 64.0251 41.5548C63.8675 41.401 63.6603 41.3241 63.402 41.3241C63.1642 41.3241 62.9555 41.3851 62.7746 41.5055C62.5951 41.6273 62.4624 41.8275 62.3792 42.109L61.2484 41.7651C61.3578 41.343 61.5971 41.005 61.9677 40.7511C62.3383 40.4958 62.8359 40.3681 63.4619 40.3681C63.8865 40.3681 64.2571 40.4334 64.5723 40.5654C64.8874 40.696 65.134 40.8918 65.312 41.1544C65.4886 41.4155 65.5776 41.7448 65.5776 42.1394V44.082C65.5776 44.3242 65.6929 44.4446 65.9249 44.4446C66.0358 44.4446 66.1394 44.4287 66.2342 44.3968L66.1569 45.2106C65.9891 45.2933 65.7804 45.3354 65.5294 45.3354C65.3033 45.3354 65.1005 45.2962 64.9195 45.2193C64.7401 45.1424 64.5985 45.0264 64.4949 44.8697C64.3928 44.7145 64.3403 44.5172 64.3403 44.2822V44.2444L64.5723 44.2053C64.5343 44.4475 64.4278 44.6535 64.2527 44.8218C64.0776 44.9916 63.8675 45.1207 63.6209 45.2092C63.3729 45.2977 63.1161 45.3426 62.852 45.3426C62.5236 45.3426 62.2406 45.2933 62.0013 45.1932C61.762 45.0946 61.5796 44.9495 61.4512 44.758C61.3213 44.568 61.2586 44.3315 61.2586 44.05C61.2586 43.6932 61.3753 43.4016 61.6073 43.1753C61.8393 42.9489 62.1705 42.7937 62.6024 42.711L64.4191 42.3469L64.4103 43.1593L63.2503 43.39C63.0314 43.4349 62.8651 43.493 62.7527 43.5655C62.6389 43.6395 62.5849 43.7584 62.5849 43.9253C62.5849 44.0921 62.6433 44.2067 62.7629 44.288C62.8826 44.3707 63.0256 44.4127 63.1934 44.4127C63.3291 44.4127 63.4604 44.3968 63.5903 44.3649C63.7187 44.3329 63.8354 44.2822 63.9375 44.2111C64.0411 44.1414 64.1214 44.0457 64.1783 43.9238C64.2367 43.802 64.2658 43.6554 64.2658 43.4843V42.1917L64.2615 42.1946Z" fill="white"/>
<path d="M67.0542 45.2484V40.4638H68.204L68.2916 41.401C68.42 41.0702 68.6082 40.8149 68.8563 40.6365C69.1043 40.458 69.4151 40.3695 69.7887 40.3695C69.8981 40.3695 69.9973 40.3782 70.0878 40.3986C70.1782 40.4174 70.2512 40.4435 70.311 40.4754L70.1563 41.5751C70.0907 41.5519 70.0134 41.5316 69.92 41.5185C69.8266 41.5055 69.7055 41.4997 69.5581 41.4997C69.3655 41.4997 69.1787 41.5461 68.9993 41.6389C68.8183 41.7303 68.671 41.8725 68.5542 42.0611C68.4389 42.2482 68.3791 42.4876 68.3791 42.7734V45.2527H67.0557L67.0542 45.2484Z" fill="white"/>
<path d="M73.7998 42.1946C73.7998 41.9204 73.721 41.7071 73.5634 41.5548C73.4058 41.401 73.1986 41.3241 72.9404 41.3241C72.7025 41.3241 72.4939 41.3851 72.3129 41.5055C72.1335 41.6273 72.0007 41.8275 71.9175 42.109L70.7867 41.7651C70.8961 41.343 71.1354 41.005 71.506 40.7511C71.8767 40.4958 72.3742 40.3681 72.9987 40.3681C73.4248 40.3681 73.7954 40.4334 74.1106 40.5654C74.4258 40.696 74.6723 40.8918 74.8504 41.1544C75.0269 41.4155 75.1159 41.7448 75.1159 42.1394V44.082C75.1159 44.3242 75.2312 44.4446 75.4632 44.4446C75.5741 44.4446 75.6777 44.4287 75.7725 44.3968L75.6952 45.2106C75.5274 45.2933 75.3187 45.3354 75.0678 45.3354C74.8416 45.3354 74.6388 45.2962 74.4579 45.2193C74.2784 45.1424 74.1368 45.0264 74.0332 44.8697C73.9311 44.7145 73.8786 44.5172 73.8786 44.2822V44.2444L74.1106 44.2053C74.0726 44.4475 73.9661 44.6535 73.791 44.8218C73.6159 44.9916 73.4058 45.1207 73.1592 45.2092C72.9112 45.2977 72.6544 45.3426 72.3903 45.3426C72.062 45.3426 71.7789 45.2933 71.5396 45.1932C71.3003 45.0946 71.1179 44.9495 70.9895 44.758C70.8596 44.568 70.7969 44.3315 70.7969 44.05C70.7969 43.6932 70.9136 43.4016 71.1456 43.1753C71.3776 42.9489 71.7089 42.7937 72.1408 42.711L73.9574 42.3469L73.9486 43.1593L72.7886 43.39C72.5697 43.4349 72.4034 43.493 72.2911 43.5655C72.1772 43.6395 72.1233 43.7584 72.1233 43.9253C72.1233 44.0921 72.1816 44.2067 72.3013 44.288C72.4209 44.3707 72.5639 44.4127 72.7317 44.4127C72.8674 44.4127 72.9987 44.3968 73.1286 44.3649C73.257 44.3329 73.3737 44.2822 73.4759 44.2111C73.5795 44.1414 73.6597 44.0457 73.7166 43.9238C73.775 43.802 73.8042 43.6554 73.8042 43.4843V42.1917L73.7998 42.1946Z" fill="white"/>
<path d="M83.4621 41.3575H79.7034V40.3811H83.4621V41.3575ZM81.9155 38.9174V43.6061C81.9155 43.8368 81.9738 44.0036 82.0935 44.1081C82.2131 44.214 82.3751 44.2662 82.5823 44.2662C82.7486 44.2662 82.8916 44.243 83.0113 44.1951C83.1309 44.1472 83.2389 44.082 83.3352 43.9978L83.5482 44.8683C83.3936 44.9901 83.201 45.0859 82.9689 45.1555C82.7369 45.2251 82.4918 45.2614 82.235 45.2614C81.9125 45.2614 81.628 45.2121 81.38 45.1178C81.1319 45.022 80.9393 44.8683 80.7992 44.6579C80.6606 44.4475 80.592 44.1661 80.592 43.815V39.28L81.9169 38.9159L81.9155 38.9174Z" fill="white"/>
<path d="M84.361 40.3826H85.5107L85.5968 41.3198C85.7252 40.989 85.9135 40.7337 86.1615 40.5552C86.4096 40.3768 86.7204 40.2883 87.0954 40.2883C87.2033 40.2883 87.304 40.297 87.3945 40.3173C87.485 40.3362 87.5579 40.3623 87.6177 40.3942L87.4631 41.4939C87.3974 41.4706 87.3201 41.4503 87.2267 41.4373C87.1333 41.4242 87.0122 41.4184 86.8648 41.4184C86.6722 41.4184 86.4855 41.4648 86.3045 41.5577C86.125 41.6491 85.9762 41.7913 85.8595 41.9799C85.7442 42.167 85.6844 42.4064 85.6844 42.6922V45.1715H84.361V40.3826Z" fill="white"/>
<path d="M91.1036 42.1133C91.1036 41.8391 91.0248 41.6259 90.8672 41.4721C90.7096 41.3183 90.5024 41.2429 90.2442 41.2429C90.0049 41.2429 89.7977 41.3038 89.6153 41.4242C89.4358 41.5461 89.303 41.7463 89.2213 42.0277L88.0905 41.6839C88.1999 41.2617 88.4392 40.9237 88.8098 40.6698C89.1805 40.4145 89.678 40.2868 90.3025 40.2868C90.7286 40.2868 91.0992 40.3521 91.4144 40.4841C91.7296 40.6147 91.9762 40.8106 92.1542 41.0731C92.3307 41.3343 92.4197 41.6636 92.4197 42.0582V44.0007C92.4197 44.243 92.535 44.3634 92.767 44.3634C92.8779 44.3634 92.9815 44.3474 93.0763 44.3155L92.999 45.1294C92.8312 45.2121 92.6225 45.2542 92.3716 45.2542C92.1469 45.2542 91.9426 45.215 91.7617 45.1381C91.5822 45.0612 91.4406 44.9451 91.337 44.7885C91.2349 44.6332 91.1824 44.4359 91.1824 44.2009V44.1632L91.4144 44.124C91.3764 44.3663 91.2699 44.5723 91.0948 44.7406C90.9197 44.9103 90.7096 45.0394 90.463 45.1279C90.215 45.2164 89.9582 45.2614 89.6941 45.2614C89.3658 45.2614 89.0812 45.2121 88.8434 45.112C88.6041 45.0133 88.4217 44.8683 88.2933 44.6768C88.1634 44.4853 88.1007 44.2502 88.1007 43.9688C88.1007 43.6119 88.216 43.3203 88.4494 43.094C88.6814 42.8677 89.0127 42.7125 89.4446 42.6298L91.2612 42.2656L91.251 43.0781L90.0924 43.3087C89.8735 43.3537 89.7072 43.4117 89.5949 43.4843C89.481 43.5582 89.4271 43.6772 89.4271 43.844C89.4271 44.0109 89.4854 44.1255 89.6051 44.2067C89.7247 44.2894 89.8677 44.3315 90.0355 44.3315C90.1712 44.3315 90.3025 44.3155 90.4324 44.2836C90.5608 44.2517 90.6761 44.2009 90.7797 44.1298C90.8818 44.0602 90.9621 43.9645 91.0204 43.8426C91.0788 43.7207 91.108 43.5742 91.108 43.403V42.1104L91.1036 42.1133Z" fill="white"/>
<path d="M93.8964 45.1671V40.3826H95.0841L95.1614 41.8174L94.998 41.665C95.0739 41.3531 95.1964 41.0949 95.3657 40.8933C95.5335 40.6916 95.7378 40.5422 95.98 40.4392C96.2207 40.3362 96.4863 40.2854 96.7767 40.2854C97.1108 40.2854 97.4085 40.3492 97.6697 40.4769C97.9309 40.6046 98.1366 40.7975 98.2883 41.0557C98.4386 41.314 98.5145 41.6389 98.5145 42.0277V45.1657H97.1911V42.4006C97.1911 41.9929 97.1094 41.71 96.9503 41.5533C96.7898 41.3981 96.5797 41.3183 96.3229 41.3183C96.142 41.3183 95.9669 41.3633 95.7962 41.4474C95.6254 41.5345 95.4868 41.6723 95.3818 41.8652C95.2752 42.0553 95.2227 42.3106 95.2227 42.6298V45.1657H93.8993L93.8964 45.1671Z" fill="white"/>
<path d="M101.811 45.2629C101.322 45.2629 100.874 45.1773 100.471 45.0046C100.07 44.8334 99.7431 44.5897 99.4907 44.2778L100.255 43.5118C100.41 43.7425 100.616 43.9311 100.874 44.0762C101.131 44.2227 101.437 44.2967 101.792 44.2967C102.043 44.2967 102.244 44.2589 102.396 44.1864C102.546 44.1124 102.623 43.9964 102.623 43.8368C102.623 43.7352 102.587 43.6467 102.517 43.5742C102.447 43.5002 102.304 43.4407 102.092 43.3972L101.242 43.226C100.681 43.1114 100.284 42.9373 100.05 42.7038C99.8146 42.4702 99.6964 42.1684 99.6964 41.8C99.6964 41.5374 99.7752 41.2922 99.9328 41.0615C100.092 40.8323 100.327 40.6466 100.643 40.503C100.96 40.3579 101.354 40.2868 101.822 40.2868C102.291 40.2868 102.727 40.3623 103.083 40.5117C103.441 40.6611 103.722 40.8831 103.928 41.1761L103.136 41.9421C102.994 41.7187 102.807 41.5475 102.578 41.43C102.349 41.3111 102.11 41.2516 101.859 41.2516C101.678 41.2516 101.523 41.2704 101.395 41.3096C101.265 41.3488 101.17 41.401 101.104 41.4677C101.04 41.5345 101.007 41.6186 101.007 41.7216C101.007 41.8246 101.053 41.9117 101.142 41.9842C101.233 42.0582 101.398 42.1191 101.636 42.1713L102.622 42.373C103.099 42.4687 103.439 42.6298 103.645 42.8561C103.852 43.0824 103.954 43.3566 103.954 43.6743C103.954 43.992 103.872 44.2532 103.709 44.4925C103.544 44.7319 103.303 44.9205 102.984 45.0569C102.664 45.1932 102.273 45.2629 101.809 45.2629" fill="white"/>
<path d="M108.149 41.3575H104.517V40.3811H108.149V41.3575ZM107.164 38.1905C107.39 38.1905 107.595 38.2137 107.777 38.2616C107.961 38.3095 108.098 38.3675 108.189 38.4386L108.005 39.3105C107.933 39.2655 107.853 39.2293 107.764 39.2046C107.673 39.1785 107.567 39.1654 107.444 39.1654C107.193 39.1654 106.993 39.2206 106.846 39.3323C106.699 39.444 106.624 39.634 106.624 39.9024V40.561L106.683 40.8193V45.1642H105.358V39.8067C105.358 39.5383 105.403 39.3032 105.494 39.0972C105.584 38.8941 105.709 38.7244 105.87 38.5909C106.03 38.4575 106.223 38.3559 106.445 38.2892C106.667 38.2225 106.906 38.1876 107.164 38.1876" fill="white"/>
<path d="M111.057 40.2854C111.547 40.2854 111.978 40.384 112.348 40.5828C112.719 40.7815 113.008 41.0644 113.218 41.4344C113.427 41.8043 113.532 42.2511 113.532 42.7749C113.532 43.2986 113.428 43.7367 113.218 44.1095C113.008 44.4824 112.719 44.7682 112.348 44.9655C111.978 45.1628 111.547 45.2629 111.057 45.2629C110.567 45.2629 110.145 45.1642 109.772 44.9655C109.398 44.7682 109.108 44.4824 108.898 44.1095C108.689 43.7367 108.584 43.2928 108.584 42.7749C108.584 42.2569 108.689 41.8058 108.898 41.4344C109.106 41.0644 109.398 40.7801 109.772 40.5828C110.145 40.3855 110.574 40.2854 111.057 40.2854ZM111.057 41.2617C110.812 41.2617 110.605 41.3169 110.434 41.43C110.263 41.5417 110.134 41.7086 110.042 41.932C109.951 42.1554 109.906 42.4354 109.906 42.7749C109.906 43.1143 109.951 43.3943 110.042 43.6163C110.132 43.8397 110.262 44.0065 110.434 44.1197C110.605 44.2314 110.812 44.2865 111.057 44.2865C111.302 44.2865 111.501 44.2314 111.671 44.1197C111.842 44.0065 111.972 43.8411 112.063 43.6163C112.153 43.3943 112.198 43.1129 112.198 42.7749C112.198 42.4368 112.153 42.1568 112.063 41.932C111.972 41.7086 111.842 41.5417 111.671 41.43C111.501 41.3169 111.296 41.2617 111.057 41.2617Z" fill="white"/>
<path d="M114.644 45.1671V40.3826H115.794L115.881 41.3198C116.009 40.989 116.198 40.7337 116.446 40.5552C116.694 40.3768 117.005 40.2883 117.378 40.2883C117.488 40.2883 117.587 40.297 117.677 40.3173C117.768 40.3362 117.842 40.3623 117.9 40.3942L117.746 41.4939C117.682 41.4706 117.603 41.4503 117.509 41.4373C117.416 41.4242 117.295 41.4184 117.148 41.4184C116.955 41.4184 116.768 41.4648 116.589 41.5577C116.408 41.6491 116.26 41.7913 116.144 41.9799C116.028 42.167 115.97 42.4064 115.97 42.6922V45.1715H114.647L114.644 45.1671Z" fill="white"/>
<path d="M118.722 45.1671V40.3826H119.91L119.958 41.2429C120.118 40.9237 120.34 40.6843 120.62 40.5248C120.9 40.3666 121.211 40.2868 121.553 40.2868C121.894 40.2868 122.215 40.3666 122.495 40.5248C122.775 40.6843 122.987 40.9208 123.127 41.2342C123.231 41.0224 123.368 40.8483 123.543 40.7076C123.718 40.5683 123.911 40.4624 124.122 40.3913C124.334 40.3217 124.55 40.2868 124.77 40.2868C125.085 40.2868 125.373 40.3507 125.635 40.4783C125.897 40.606 126.104 40.7975 126.258 41.0528C126.413 41.3082 126.49 41.6331 126.49 42.0292V45.1671H125.167V42.2874C125.167 41.9363 125.09 41.6883 124.935 41.5403C124.78 41.3938 124.58 41.3198 124.335 41.3198C124.143 41.3198 123.963 41.3691 123.8 41.4648C123.636 41.5591 123.506 41.7028 123.415 41.8899C123.321 42.0785 123.274 42.3121 123.274 42.5935V45.1671H121.951V42.2874C121.951 41.9363 121.872 41.6883 121.715 41.5403C121.557 41.3938 121.356 41.3198 121.111 41.3198C120.943 41.3198 120.778 41.3647 120.613 41.4532C120.45 41.5432 120.314 41.6839 120.207 41.8754C120.101 42.0669 120.047 42.3193 120.047 42.6312V45.1671H118.722Z" fill="white"/>
<path d="M130.608 42.1133C130.608 41.8391 130.529 41.6259 130.372 41.4721C130.214 41.3183 130.007 41.2429 129.749 41.2429C129.509 41.2429 129.302 41.3038 129.121 41.4242C128.942 41.5461 128.809 41.7463 128.726 42.0277L127.595 41.6839C127.704 41.2617 127.944 40.9237 128.314 40.6698C128.685 40.4145 129.182 40.2868 129.807 40.2868C130.233 40.2868 130.604 40.3521 130.919 40.4841C131.234 40.6147 131.481 40.8106 131.659 41.0731C131.835 41.3343 131.924 41.6636 131.924 42.0582V44.0007C131.924 44.243 132.039 44.3634 132.271 44.3634C132.382 44.3634 132.486 44.3474 132.581 44.3155L132.503 45.1294C132.336 45.2121 132.127 45.2542 131.876 45.2542C131.651 45.2542 131.447 45.215 131.266 45.1381C131.087 45.0612 130.945 44.9451 130.841 44.7885C130.739 44.6332 130.687 44.4359 130.687 44.2009V44.1632L130.919 44.124C130.881 44.3663 130.774 44.5723 130.599 44.7406C130.424 44.9103 130.214 45.0394 129.967 45.1279C129.719 45.2164 129.463 45.2614 129.199 45.2614C128.87 45.2614 128.587 45.2121 128.348 45.112C128.109 45.0133 127.926 44.8683 127.798 44.6768C127.668 44.4853 127.605 44.2502 127.605 43.9688C127.605 43.6119 127.72 43.3203 127.954 43.094C128.186 42.8677 128.517 42.7125 128.949 42.6298L130.766 42.2656L130.755 43.0781L129.597 43.3087C129.378 43.3537 129.212 43.4117 129.099 43.4843C128.985 43.5582 128.931 43.6772 128.931 43.844C128.931 44.0109 128.99 44.1255 129.11 44.2067C129.229 44.2894 129.372 44.3315 129.54 44.3315C129.676 44.3315 129.807 44.3155 129.937 44.2836C130.065 44.2517 130.182 44.2009 130.284 44.1298C130.386 44.0602 130.468 43.9645 130.525 43.8426C130.583 43.7207 130.612 43.5742 130.612 43.403V42.1104L130.608 42.1133Z" fill="white"/>
<path d="M133.399 40.3826H134.549L134.637 41.3198C134.764 40.989 134.953 40.7337 135.201 40.5552C135.449 40.3768 135.76 40.2883 136.134 40.2883C136.243 40.2883 136.342 40.297 136.433 40.3173C136.523 40.3362 136.596 40.3623 136.656 40.3942L136.501 41.4939C136.436 41.4706 136.358 41.4503 136.265 41.4373C136.172 41.4242 136.051 41.4184 135.903 41.4184C135.711 41.4184 135.524 41.4648 135.343 41.5577C135.163 41.6491 135.015 41.7913 134.898 41.9799C134.783 42.167 134.723 42.4064 134.723 42.6922V45.1715H133.399V40.3826Z" fill="white"/>
<path d="M74.1938 25.6228C74.1938 22.8693 77.0084 16.2772 77.0084 14.1562C77.0084 13.0726 76.5094 12.53 75.6003 12.53C74.5571 12.53 73.5109 13.3888 72.9214 16.2322C72.8762 16.4121 72.6952 16.5021 72.5128 16.5021C72.3304 16.5021 72.1495 16.4121 72.1947 16.1873C72.8295 12.53 74.6461 11.085 77.6884 11.085C80.7306 11.085 82.2744 12.6663 82.2744 14.8323C82.2744 17.8121 79.4145 24.2679 79.4145 26.4802C79.4145 27.5639 79.9135 28.15 80.8226 28.15C82.0935 28.15 82.8654 27.0213 83.5015 24.5841C83.592 24.3578 83.6387 24.2229 83.8649 24.2229C84.0472 24.2229 84.1829 24.3578 84.1377 24.5841C83.6387 27.9252 81.8221 29.7763 78.6441 29.7763C75.7842 29.7763 74.1952 28.3763 74.1952 25.6228M76.5459 4.93684C76.5459 2.80136 78.1232 1.40721 80.2272 1.40721C82.3313 1.40721 83.6008 2.58376 83.6008 4.37106C83.6008 6.50654 82.111 7.94421 79.9194 7.94421C77.9904 7.94421 76.5459 6.76767 76.5459 4.93684Z" fill="white"/>
<path d="M48.4941 29.3208C48.4941 29.476 48.3978 29.5949 48.1483 29.5949C47.6902 29.5949 44.8959 29.3295 42.8648 29.3295C40.8337 29.3295 38.4757 29.5949 38.0176 29.5949C37.8191 29.5949 37.6995 29.505 37.6995 29.3237C37.6995 29.0698 37.8921 29.0074 38.4057 28.7622C39.9918 28.1239 40.0896 27.0242 40.0896 23.6092V15.6099C40.0896 14.5262 39.986 13.7892 39.5424 13.3424C39.0638 12.8607 37.9957 12.7128 35.4948 12.7128C34.2487 12.7128 33.0113 12.72 31.8323 12.7331V23.3408C31.8323 27.2593 32.2628 28.2124 34.1684 28.7405C34.7958 28.9639 34.9096 29.0364 34.9096 29.2627C34.9096 29.4325 34.7958 29.55 34.593 29.55C34.1013 29.55 31.1684 29.2845 29.0848 29.2845C27.0012 29.2845 24.1048 29.55 23.7371 29.55C23.5387 29.55 23.419 29.46 23.419 29.2787C23.419 29.0074 23.6116 28.9639 24.1763 28.7115C26.0775 28.0644 26.241 26.9459 26.241 23.0594V12.8187C25.008 12.8419 24.1223 12.8607 23.7634 12.8607C23.3548 12.8607 23.1724 12.5909 23.1724 12.2746C23.1724 11.9134 23.3548 11.6886 23.7634 11.6886H26.241V11.0241C26.241 3.28011 30.9248 0 36.7029 0C40.9796 0 44.9163 2.25009 44.9163 4.67861C44.9163 6.28022 43.8016 7.26527 42.3279 7.26527C40.7812 7.26527 39.7189 6.28167 39.1776 4.42909C38.4641 2.10211 37.5521 0.841425 35.432 0.841425C33.5162 0.841425 31.8323 2.12097 31.8323 5.19072V11.7089C33.5716 11.7219 34.1582 11.7379 38.3444 11.7379C41.038 11.7582 45.3497 10.9617 45.9567 10.9617C46.2004 10.9617 46.32 11.0967 46.32 11.278C46.32 11.587 46.0486 12.0803 45.9275 12.6533C45.7466 13.5049 45.6809 14.8874 45.6809 18.0921V22.7402C45.6809 26.4643 45.891 28.0963 47.8156 28.7912C48.2753 28.9842 48.4941 29.0712 48.4941 29.3222" fill="white"/>
<path d="M20.886 20.5177C20.886 26.1161 16.6778 29.9475 10.443 29.9475C4.20813 29.9475 0 26.1146 0 20.5177C0 14.9208 4.20813 11.0705 10.443 11.0705C16.6778 11.0705 20.886 14.9106 20.886 20.5177ZM14.9867 20.5177C14.9561 13.9517 13.3642 11.7292 10.443 11.7016C7.52181 11.7306 5.9299 13.9517 5.89926 20.5177C5.9299 27.0736 7.52181 29.2888 10.443 29.3164C13.3642 29.2888 14.9561 27.0736 14.9867 20.5177Z" fill="white"/>
<path d="M69.974 23.8297C69.974 23.8617 69.974 23.8936 69.971 23.9284C69.3801 26.8618 67.2308 29.975 61.0864 29.975C54.942 29.975 50.9849 26.1886 50.9849 20.7121C50.9849 14.6451 55.5476 11.0676 61.8524 11.0676C65.2464 11.0676 66.7172 12.1963 67.4628 12.1963C68.0392 12.1963 68.2639 11.7422 68.3981 11.233C68.4886 10.9617 68.6213 10.8718 68.7994 10.8718C68.9774 10.8718 69.1116 11.0067 69.1116 11.278C69.1116 15.6026 69.7055 17.9485 69.7055 18.3111C69.7055 18.581 69.599 18.6709 69.3757 18.6709C69.1787 18.6709 69.0153 18.5447 68.938 18.2198C67.778 13.7587 65.9161 11.8104 62.8607 11.8104C60.2007 11.8104 57.2752 13.7733 57.2752 19.875C57.2752 25.588 59.6988 28.3256 63.2138 28.3256C66.2357 28.3256 68.4929 26.7588 69.3261 23.9545C69.418 23.6498 69.4822 23.5642 69.6967 23.5642C69.8543 23.5642 69.974 23.6324 69.974 23.8268" fill="white"/>
<path d="M110.085 29.2932C110.085 29.4745 110.012 29.5645 109.769 29.5645C108.893 29.5645 106.948 29.299 105.155 29.299C103.471 29.299 101.249 29.5645 100.818 29.5645C100.563 29.5645 100.5 29.4745 100.5 29.2932C100.5 29.0393 100.693 28.9494 101.18 28.6911C102.186 28.1123 102.407 27.5944 102.407 24.2621V16.386C102.407 13.4207 101.266 12.3994 99.3987 12.3994C96.6993 12.3994 94.2232 15.3531 94.2232 20.9529V24.0415C94.2232 27.651 94.4114 28.3198 95.6648 28.768C96.1755 28.9668 96.3696 29.0393 96.3696 29.2932C96.3696 29.4745 96.2791 29.5645 96.05 29.5645C95.6882 29.5645 93.3638 29.299 91.4771 29.299C89.5905 29.299 87.0574 29.5645 86.6897 29.5645C86.4519 29.5645 86.3716 29.4745 86.3716 29.2932C86.3716 29.0393 86.5642 28.9668 87.0676 28.7303C88.5691 28.0398 88.661 27.5784 88.661 23.8457V18.2357C88.661 14.5262 88.324 13.7718 86.9246 13.251C86.3556 13.0667 86.1323 13.0377 86.1323 12.7403C86.1323 12.514 86.2578 12.4458 86.592 12.4255C90.0983 12.3066 93.606 11.072 94.0715 11.072C94.2816 11.072 94.372 11.1518 94.372 11.3592C94.372 11.7263 93.9795 13.4323 94.0073 17.1665C94.8667 13.264 97.3195 11.0705 100.921 11.0705C105.81 11.0705 107.971 13.4048 107.971 18.5882V24.2635C107.971 27.606 108.17 28.0514 109.427 28.7027C109.865 28.9494 110.085 29.0408 110.085 29.2932Z" fill="white"/>
<path d="M133.094 12.0193C132.762 14.9948 132.928 23.0696 132.928 23.0696C132.928 26.708 133.407 27.4058 135.117 27.9962C135.606 28.1544 135.73 28.2182 135.73 28.4286C135.73 28.6723 135.576 28.7463 135.273 28.7593C131.745 28.8464 128.365 29.7241 127.858 29.7241C127.646 29.7241 127.553 29.6443 127.553 29.4368C127.553 29.1336 127.789 27.3666 127.856 25.5416H127.792C126.846 28.1805 124.923 29.9765 121.694 29.9765C116.774 29.9765 112.515 26.2757 112.515 20.7716C112.515 14.8599 116.694 11.0691 122.201 11.0691C125.036 11.0691 126.292 12.1687 128.316 13.6079C128.316 13.6079 128.758 13.9894 129.217 14.0591C129.838 14.1287 131.324 11.8075 131.993 11.3621C132.159 11.2113 132.626 10.8761 133.011 11.2113C133.011 11.2113 133.182 11.2258 133.094 12.0193ZM122.786 12.0092C120.248 12.0092 118.561 14.223 118.477 20.7716C118.561 26.6833 120.305 28.9015 122.701 28.9015C125.5 28.9015 127.573 26.1291 127.63 20.7716C127.693 14.3173 125.7 12.0092 122.786 12.0092Z" fill="white"/>
</svg>
