<svg width="137" height="75" viewBox="0 0 137 75" fill="none" xmlns="http://www.w3.org/2000/svg">
<path fill-rule="evenodd" clip-rule="evenodd" d="M52.5134 0H95.719C95.1938 2.67292 94.6605 5.34482 94.118 8.01466C79.7165 8.04861 65.315 8.0589 50.9125 8.04861C51.4417 5.3654 51.976 2.68218 52.5134 0.00102884V0Z" fill="white"/>
<path fill-rule="evenodd" clip-rule="evenodd" d="M49.8776 12.4407H93.0831C92.5662 15.1157 92.0329 17.7866 91.4821 20.4554C77.0806 20.4893 62.6791 20.4996 48.2766 20.4893C48.8058 17.8061 49.3402 15.1229 49.8776 12.4418V12.4407Z" fill="white"/>
<path fill-rule="evenodd" clip-rule="evenodd" d="M47.3093 25.2498C51.7129 25.2446 56.1166 25.2498 60.5213 25.2662C61.807 25.3619 62.9862 25.7642 64.058 26.4731C65.4624 27.5678 66.0244 29.004 65.7429 30.7818C65.4245 32.7377 64.4285 34.2295 62.7569 35.2583C61.7077 35.8633 60.596 36.3098 59.4209 36.5999C60.6053 36.7872 61.6831 37.2234 62.6566 37.9076C63.4131 38.528 63.8635 39.3274 64.0078 40.3048C64.2105 42.5672 63.5318 44.5117 61.9728 46.1393C60.421 47.6847 58.5477 48.5396 56.351 48.7042C55.5966 48.7917 54.8412 48.8472 54.0827 48.8719C50.157 48.8884 46.2314 48.8946 42.3058 48.8884C43.9569 41.0044 45.6254 33.1245 47.3103 25.2477L47.3093 25.2498ZM52.8471 29.4752C54.2045 29.4701 55.5608 29.4752 56.9171 29.4917C58.4096 29.5833 59.0821 30.3703 58.9357 31.856C58.5498 33.8478 57.3429 34.7923 55.3161 34.6894C54.1257 34.7172 52.9362 34.712 51.7467 34.6729C52.1265 32.9434 52.493 31.2109 52.8482 29.4752H52.8471ZM50.8449 38.9313C52.1347 38.9251 53.4245 38.9313 54.7153 38.9477C57.1546 39.1082 57.9162 40.3326 57.001 42.6197C56.4882 43.6259 55.6703 44.2247 54.5484 44.414C54.272 44.4664 53.9946 44.4994 53.7141 44.5148C52.3691 44.5313 51.023 44.5374 49.6769 44.5313C50.07 42.666 50.46 40.7986 50.8449 38.9313Z" fill="white"/>
<path fill-rule="evenodd" clip-rule="evenodd" d="M0 43.8275V42.4859C0.0665362 42.0548 0.133072 41.6186 0.200632 41.1783H6.77338C6.28409 43.2648 7.09583 44.4222 9.20861 44.6485C10.2138 44.7566 11.1924 44.6455 12.1444 44.3131C13.3236 43.7936 13.9583 42.8831 14.0463 41.5805C14.0115 40.9684 13.7228 40.527 13.1793 40.2564C12.9531 40.1474 12.7197 40.0579 12.4791 39.9879C10.4646 39.457 8.45214 38.92 6.4407 38.3788C2.74539 37.2049 1.5723 34.7851 2.92043 31.1193C3.4476 29.8291 4.25422 28.7509 5.33927 27.8836C6.97197 26.6109 8.81758 25.8228 10.8771 25.5193C12.606 25.2683 14.3411 25.2179 16.0813 25.3681C17.1346 25.4545 18.1582 25.6778 19.1512 26.0389C21.5618 27.0214 22.5681 28.8157 22.1709 31.4208C22.1207 31.7809 22.0593 32.1389 21.9876 32.4938H15.3821C15.4149 32.2582 15.4538 32.0237 15.4988 31.7901C15.6616 30.4557 15.0884 29.6676 13.7802 29.4258C12.518 29.2149 11.3726 29.4835 10.3438 30.2304C9.62318 30.8384 9.30585 31.6152 9.39286 32.5607C9.4809 32.9064 9.66515 33.1914 9.94358 33.4157C10.1678 33.5844 10.4124 33.7182 10.6775 33.818C12.4412 34.3139 14.2101 34.7943 15.982 35.2594C17.0783 35.5485 18.1234 35.9621 19.1184 36.5001C20.3601 37.3201 20.9835 38.4827 20.9865 39.9879C20.8309 43.2102 19.3631 45.6013 16.5829 47.1641C14.4578 48.2536 12.2007 48.8236 9.8105 48.874C8.18395 48.9553 6.57173 48.8431 4.97281 48.5386C3.74957 48.3092 2.64814 47.8174 1.66955 47.0632C0.694024 46.2031 0.138191 45.1239 0.00102363 43.8275H0Z" fill="white"/>
<path fill-rule="evenodd" clip-rule="evenodd" d="M26.6575 25.3177H44.5403C44.2343 26.828 43.9231 28.3363 43.6058 29.8446H32.2619C31.9087 31.4743 31.5637 33.107 31.228 34.7408H41.8707C41.5524 36.2512 41.2299 37.7594 40.9034 39.2677C37.3442 39.2564 33.7861 39.2677 30.2269 39.3017C29.8727 40.9632 29.5175 42.6228 29.1592 44.2812C33.0296 44.2874 36.8999 44.3039 40.7693 44.3317L39.7682 48.8586C33.7185 48.9028 27.6688 48.9028 21.6191 48.8586C23.3071 41.0137 24.9859 33.1667 26.6575 25.3187V25.3177Z" fill="white"/>
<path fill-rule="evenodd" clip-rule="evenodd" d="M69.8292 25.3177C74.2216 25.3125 78.6151 25.3177 83.0075 25.3341C84.1949 25.3002 85.3414 25.5018 86.4438 25.9381C87.8278 26.6387 88.5791 27.7735 88.6958 29.3415C88.7818 33.5577 86.7745 36.1009 82.6738 36.9703C82.3094 37.0506 81.9419 37.1174 81.5723 37.172C81.5253 37.1843 81.4915 37.2121 81.472 37.2553C82.206 37.2893 82.9286 37.3952 83.6411 37.5742C84.9002 37.9076 85.584 38.7296 85.6925 40.0393C85.7262 40.3737 85.7436 40.7091 85.7426 41.0456C85.6679 42.6783 85.584 44.3101 85.4929 45.9418C85.4611 46.8935 85.4724 47.8431 85.5266 48.7917C90.3224 41.0178 95.1099 33.2377 99.8892 25.4525C102.592 25.4185 105.294 25.4082 107.996 25.4185C109.43 33.2449 110.875 41.0692 112.334 48.8915C109.842 48.9028 107.352 48.8915 104.86 48.8575C104.641 47.305 104.429 45.7515 104.226 44.1969C101.057 44.1856 97.887 44.1969 94.7178 44.2308C93.8457 45.7762 92.9787 47.3246 92.1158 48.875C87.5227 48.8915 82.9297 48.8977 78.3366 48.8915C78.3295 48.2762 78.3469 47.661 78.3868 47.0468C78.5434 45.2586 78.6939 43.4705 78.8372 41.6814C78.8566 41.2133 78.7512 40.777 78.5199 40.3737C78.3029 40.1114 78.0306 39.9375 77.702 39.8542C77.4164 39.7873 77.1267 39.743 76.835 39.7204C76.2679 39.7142 75.7008 39.7091 75.1337 39.7039C74.5533 39.7039 73.9811 39.7266 73.415 39.7708C72.7578 42.81 72.1078 45.8502 71.4629 48.8915C69.2386 48.9028 67.0142 48.8915 64.7899 48.8575C66.4799 41.0126 68.1586 33.1667 69.8282 25.3177H69.8292ZM75.5677 29.6769C76.8472 29.6645 78.1258 29.681 79.4043 29.7273C79.8844 29.752 80.3512 29.8415 80.8056 29.9958C81.5734 30.325 81.9623 30.9125 81.9736 31.7562C81.816 34.1451 80.5477 35.3581 78.1698 35.3941C76.9015 35.4106 75.6342 35.4168 74.366 35.4106L75.5667 29.6769H75.5677ZM102.592 30.0452H102.692C102.999 33.3097 103.31 36.5732 103.627 39.8367C101.491 39.8428 99.3559 39.8367 97.2206 39.8202C99.0335 36.5732 100.824 33.3148 102.592 30.0452Z" fill="white"/>
<path fill-rule="evenodd" clip-rule="evenodd" d="M136.655 25.3177V25.4854C136.334 26.9319 136.022 28.3857 135.721 29.8446H124.377C124.032 31.4763 123.687 33.1081 123.343 34.7408H133.985C133.68 36.2419 133.358 37.7399 133.018 39.2338C129.46 39.2677 125.901 39.278 122.342 39.2677C121.988 40.9427 121.643 42.6197 121.308 44.2977H132.885C132.563 45.8266 132.229 47.3523 131.884 48.875C125.834 48.8977 119.785 48.8977 113.735 48.875C115.429 41.027 117.108 33.1749 118.773 25.3187H136.656L136.655 25.3177Z" fill="white"/>
<path fill-rule="evenodd" clip-rule="evenodd" d="M41.2371 53.7528H84.4426C83.9175 56.4257 83.3842 59.0976 82.8416 61.7674C68.4401 61.8014 54.0386 61.8116 39.6361 61.8014C40.1653 59.1181 40.6997 56.4349 41.2371 53.7538V53.7528Z" fill="white"/>
<path fill-rule="evenodd" clip-rule="evenodd" d="M80.2048 74.2411H36.9992C37.5285 71.5578 38.0628 68.8746 38.6002 66.1935H81.8057C81.2847 68.8787 80.7504 71.5609 80.2048 74.2411Z" fill="white"/>
</svg>
