<svg width="148" height="69" viewBox="0 0 148 69" fill="none" xmlns="http://www.w3.org/2000/svg">
<path d="M145.661 1.82049C145.614 1.60203 145.401 1.46159 145.184 1.5084L95.8733 11.8878C95.5594 11.9112 95.2689 12.1114 95.1547 12.4287C95.0354 12.7538 95.134 13.1101 95.3726 13.3312C95.466 13.417 95.575 13.4768 95.6943 13.5158L95.8214 13.56L116.692 42.3185C116.731 42.4017 116.78 42.485 116.837 42.5604C116.837 42.5656 116.842 42.5708 116.845 42.5734C116.855 42.5864 116.868 42.5994 116.878 42.615C117.19 43.0051 117.703 43.2053 118.22 43.0857C118.679 42.9791 119.026 42.6488 119.174 42.2379L145.503 2.2288C145.627 2.13777 145.692 1.98173 145.661 1.82049ZM113.509 19.0553L98.6984 12.9541L142.748 2.89457L113.509 19.0553ZM143.985 3.05062L118.546 38.5527L114.331 20.119L143.988 3.05062H143.985ZM113.164 19.9473C113.171 19.9681 113.179 19.9889 113.189 20.0071C113.244 20.1008 113.319 20.1762 113.407 20.2334L115.867 36.9949L98.0187 14.3766L113.164 19.9473Z" fill="white"/>
<path d="M147.168 1.90371C147.168 0.850427 146.32 0 145.269 0C144.219 0 143.373 0.850427 143.373 1.90371C143.373 2.95699 144.221 3.80742 145.269 3.80742C146.317 3.80742 147.168 2.95439 147.168 1.90371Z" fill="white"/>
<path d="M116.565 19.6691C116.565 18.1242 115.314 16.8707 113.773 16.8707C112.232 16.8707 110.979 18.1242 110.979 19.6691C110.979 21.2139 112.23 22.47 113.773 22.47C115.317 22.47 116.565 21.2165 116.565 19.6691Z" fill="white"/>
<path d="M99.2042 12.7226C99.2042 10.9203 97.7489 9.46133 95.9485 9.46133C94.1482 9.46133 92.6928 10.9203 92.6928 12.7226C92.6928 14.5249 94.1508 15.9865 95.9485 15.9865C97.7463 15.9865 99.2042 14.5275 99.2042 12.7226Z" fill="white"/>
<path d="M122.043 41.7334C122.043 39.4447 120.191 37.5878 117.908 37.5878C115.625 37.5878 113.773 39.4421 113.773 41.7334C113.773 44.0246 115.625 45.8789 117.908 45.8789C120.191 45.8789 122.043 44.0246 122.043 41.7334Z" fill="white"/>
<path d="M0.00518837 66.609V61.6937H1.2037V66.609H0.00518837ZM5.90955 66.609L4.16367 64.1279C3.85496 63.691 3.66299 63.3607 3.66299 63.3607H3.65002C3.65002 63.3607 3.67855 63.717 3.67855 64.0473V66.6064H2.60197V61.6911H3.80048L5.39072 63.9797C5.7098 64.4374 5.93031 64.8405 5.93031 64.8405H5.94328C5.94328 64.8405 5.91474 64.4192 5.91474 64.0369V61.6911H6.98874V66.6064H5.90955V66.609ZM10.5376 66.6974C8.85395 66.6974 7.9408 65.4803 7.9408 64.1591C7.9408 62.838 8.83061 61.6053 10.5064 61.6053C12.1823 61.6053 13.0695 62.8094 13.0695 64.1227C13.0695 65.4361 12.2238 66.6974 10.5376 66.6974ZM10.5376 62.5597C9.60367 62.5597 9.19898 63.2749 9.19898 64.1253C9.19898 64.9758 9.59848 65.7482 10.509 65.7482C11.4196 65.7482 11.8191 65.0096 11.8191 64.1617C11.8191 63.3139 11.4585 62.5597 10.5376 62.5597ZM15.1812 66.609L13.29 61.6937H14.5793L15.5288 64.4894C15.6533 64.8665 15.7701 65.3008 15.7701 65.3008H15.7856C15.7856 65.3008 15.8972 64.8587 16.0217 64.4894L16.9426 61.6937H18.1334L16.3096 66.609H15.1812ZM19.0206 66.609H17.8221L19.6925 61.6937H20.8313L22.7588 66.609H21.4643L21.1711 65.782H19.3085L19.0206 66.609ZM20.4863 63.8289C20.341 63.4075 20.2424 62.9706 20.2424 62.9706H20.2295C20.2295 62.9706 20.1257 63.4153 19.9804 63.8289L19.6354 64.8379C19.6354 64.8379 20.8495 64.8379 20.8417 64.8379L20.4889 63.8289H20.4863ZM22.9819 64.1435C22.9819 62.812 23.8509 61.6053 25.5579 61.6053C26.1987 61.6053 26.6708 61.7483 27.0599 62.0032L26.5359 62.8666C26.2713 62.7054 25.9782 62.5883 25.5346 62.5883C24.694 62.5883 24.2375 63.2515 24.2375 64.1149C24.2375 64.9784 24.6733 65.7066 25.5553 65.7066C26.0845 65.7066 26.3881 65.5167 26.6293 65.3373L27.117 66.1721C26.8654 66.3931 26.2609 66.687 25.5475 66.6948L25.436 66.9913C25.7473 67.0563 25.9678 67.28 25.9678 67.6181C25.9678 68.0316 25.5864 68.3281 25.0105 68.3281C24.6863 68.3281 24.4658 68.2604 24.362 68.211L24.5021 67.7299C24.5747 67.7663 24.7096 67.8105 24.8782 67.8105C25.0858 67.8105 25.2259 67.7299 25.2259 67.566C25.2259 67.3294 24.9431 67.28 24.6992 67.3008L24.9431 66.6454C23.6252 66.4009 22.9793 65.3243 22.9793 64.1409H22.9819V64.1435ZM28.7306 66.609H27.5321L29.3999 61.6937H30.5413L32.4688 66.609H31.1717L30.876 65.782H29.0134L28.7254 66.609H28.7306ZM30.422 61.2542C29.9576 61.2542 29.8331 61.0019 29.5244 61.0019C29.348 61.0019 29.2001 61.1423 29.1197 61.223L28.6191 60.7964C28.7591 60.5312 29.0756 60.1983 29.4959 60.1983C29.968 60.1983 30.0848 60.4479 30.3935 60.4479C30.5984 60.4479 30.7385 60.3023 30.8111 60.2191L31.3118 60.656C31.1665 60.9239 30.8475 61.2542 30.422 61.2542ZM30.1937 63.8289C30.0459 63.4075 29.9499 62.9706 29.9499 62.9706H29.9369C29.9369 62.9706 29.8357 63.4153 29.6879 63.8289L29.3402 64.8379C29.3402 64.8379 30.5543 64.8379 30.5465 64.8379L30.1937 63.8289ZM35.2887 66.6974C33.6025 66.6974 32.6893 65.4803 32.6893 64.1591C32.6893 62.838 33.5817 61.6053 35.2576 61.6053C36.9334 61.6053 37.8206 62.8094 37.8206 64.1227C37.8206 65.4361 36.9749 66.6974 35.2887 66.6974ZM35.2887 62.5597C34.3522 62.5597 33.9501 63.2749 33.9501 64.1253C33.9501 64.9758 34.347 65.7482 35.2576 65.7482C36.1681 65.7482 36.5676 65.0096 36.5676 64.1617C36.5676 63.3139 36.207 62.5597 35.2887 62.5597ZM40.4148 66.609V61.6937H43.3436V62.6689H41.5926V63.6286H43.1387V64.5336H41.5926V65.6311H43.3955V66.6064H40.4122H40.4148V66.609ZM47.6967 64.942H47.2764V66.609H46.0909V61.6937H47.8212C48.9108 61.6937 49.7409 62.1956 49.7409 63.2879C49.7409 64.3802 48.9315 64.942 47.6967 64.942ZM47.733 62.5883H47.2764V64.0473H47.7019C48.2934 64.0473 48.5554 63.8106 48.5554 63.3035C48.5554 62.825 48.2985 62.5883 47.733 62.5883ZM50.5269 66.609V61.6937H53.4558V62.6689H51.7047V63.6286H53.2482V64.5336H51.7047V65.6311H53.5077V66.6064H50.5269V66.609ZM55.9099 66.6974C55.1005 66.6974 54.5765 66.3957 54.3586 66.2189L54.8437 65.3919C54.9526 65.4647 55.3366 65.7456 55.871 65.7456C56.3353 65.7456 56.5792 65.5401 56.5792 65.2566C56.5792 64.8743 56.0707 64.7911 55.4948 64.4972C54.893 64.2034 54.4727 63.8106 54.4727 63.007C54.4727 62.1514 55.1861 61.6053 56.1044 61.6053C56.9294 61.6053 57.3652 61.8627 57.5857 62.0266L57.1214 62.8536C56.9527 62.7496 56.5688 62.5571 56.1797 62.5571C55.8113 62.5571 55.5986 62.7054 55.5986 62.9992C55.5986 63.3477 55.9825 63.444 56.5039 63.678C57.1525 63.9667 57.718 64.2996 57.718 65.1916C57.718 66.0837 57.0409 66.6974 55.9073 66.6974H55.9099ZM62.5173 67.0589C62.8 67.0589 63.005 66.9419 63.1061 66.8587L63.4823 67.6259C63.337 67.7455 62.9764 67.938 62.468 67.938C61.6871 67.938 61.0645 67.6649 60.2889 66.6376C59.0099 66.3723 58.3251 65.3008 58.3251 64.1591C58.3251 62.8302 59.2149 61.6053 60.8933 61.6053C62.5717 61.6053 63.4538 62.8094 63.4538 64.1227C63.4538 65.2436 62.8519 66.2995 61.6612 66.609C61.9154 66.9471 62.1307 67.0589 62.5199 67.0589H62.5173ZM60.9218 62.5597C59.9879 62.5597 59.5832 63.2749 59.5832 64.1253C59.5832 64.9758 59.9776 65.7482 60.8907 65.7482C61.8039 65.7482 62.2008 65.0096 62.2008 64.1617C62.2008 63.3139 61.8428 62.5597 60.9218 62.5597ZM66.5071 66.6974C65.0648 66.6974 64.3488 66.0134 64.3488 64.6819V61.6937H65.5395V64.5935C65.5395 65.3685 65.7989 65.7326 66.5253 65.7326C67.2024 65.7326 67.467 65.3269 67.467 64.6481V61.6963H68.5565V64.5675C68.5565 65.9536 67.8561 66.7 66.5045 66.7H66.5071V66.6974ZM69.9392 66.609V61.6937H71.1377V66.609H69.9392ZM73.5867 66.6974C72.7799 66.6974 72.2532 66.3957 72.0353 66.2189L72.5204 65.3919C72.632 65.4647 73.0133 65.7456 73.5503 65.7456C74.0147 65.7456 74.2586 65.5401 74.2586 65.2566C74.2586 64.8743 73.7527 64.7911 73.1742 64.4972C72.5723 64.2034 72.1521 63.8106 72.1521 63.007C72.1521 62.1514 72.8681 61.6053 73.7864 61.6053C74.6114 61.6053 75.0446 61.8627 75.2651 62.0266L74.8007 62.8536C74.6321 62.7496 74.2482 62.5571 73.859 62.5571C73.4907 62.5571 73.2779 62.7054 73.2779 62.9992C73.2779 63.3477 73.6619 63.444 74.1833 63.678C74.8319 63.9667 75.3974 64.2996 75.3974 65.1916C75.3974 66.0837 74.7203 66.6974 73.5867 66.6974ZM76.9591 66.609H75.7632L77.631 61.6937H78.7698L80.6973 66.609H79.4028L79.1097 65.782H77.247L76.9591 66.609ZM78.4248 63.8289C78.2769 63.4075 78.1836 62.9706 78.1836 62.9706H78.1706C78.1706 62.9706 78.0642 63.4153 77.9189 63.8289L77.5765 64.8379C77.5765 64.8379 78.788 64.8379 78.7802 64.8379L78.4274 63.8289H78.4248Z" fill="white"/>
<path d="M26.7512 29.302C24.4684 29.302 22.6187 27.4451 22.6187 25.1565C22.6187 22.8679 24.4684 21.0084 26.7512 21.0084C29.0341 21.0084 30.889 22.8627 30.889 25.1565C30.889 27.4503 29.0367 29.302 26.7512 29.302ZM18.5199 31.3774V25.1565H0V56.5391H7.61393V44.1H17.2513V38.303H7.61393V31.3774H18.5199ZM30.3701 56.5391V33.4475H23.1298V56.5391H30.3701ZM56.1459 56.5391V40.4694C56.1459 36.1835 54.2652 32.8832 49.1883 32.8832C45.4268 32.8832 43.2191 34.8155 41.948 36.2771V33.4475H34.9463V56.5391H42.0907V41.3198C42.5628 40.7061 44.1582 38.8206 46.2284 38.8206C48.2985 38.8206 49.0016 39.8088 49.0016 41.931V56.5391H56.1459ZM67.0052 46.9269H81.2473C82.0463 38.0196 78.5182 32.8832 71.047 32.8832C64.5615 32.8832 59.3446 37.4552 59.3446 44.8984C59.3446 52.3416 63.9026 57.1035 71.7526 57.1035C76.6426 57.1035 78.9436 55.7849 80.5443 54.8903L78.334 50.4145C77.1562 50.9814 75.5608 51.8761 72.4582 51.8761C69.0754 51.8761 67.3814 50.0374 67.0052 46.9269ZM66.8625 42.2145C67.288 39.3901 68.6006 37.9285 70.9536 37.9285C73.4466 37.9285 74.3857 39.8114 74.4324 42.2145H66.8625ZM107.477 44.9946C107.477 37.2211 103.952 32.8832 98.1225 32.8832C95.0198 32.8832 93.0949 34.298 91.8238 35.8506V33.4475H84.8195V66.6064H91.9639V55.5951C92.7629 56.2088 94.4569 57.1009 97.1341 57.1009C103.153 57.1009 107.477 52.2948 107.477 44.992V44.9946ZM99.9073 44.9478C99.9073 49.2832 98.3092 51.6394 95.4894 51.6394C93.7487 51.6394 92.7188 50.9346 91.9639 50.274V40.6151C92.4334 40.0013 93.7487 38.5423 95.8188 38.5423C98.496 38.5423 99.9073 40.8491 99.9073 44.9504V44.9478Z" fill="white"/>
</svg>
