<svg width="246" height="125" viewBox="0 0 246 125" fill="none" xmlns="http://www.w3.org/2000/svg">
<path d="M31.8544 0H51.2467L61.5592 28.2432H41.2048L31.8544 0Z" fill="white"/>
<path d="M46.7519 0H27.3596L0 74.97H21.9328C30.2008 49.985 38.4989 25 46.7519 0Z" fill="white"/>
<path d="M118.864 51.5766C118.864 56.0511 116.203 58.1682 110.987 58.1682H98.8555V44.5496H110.882C115.993 44.5496 118.864 46.997 118.864 51.5616V51.5766ZM117.256 23.2883C117.256 27.6426 114.49 29.7748 109.378 29.7748H77.975V74.97H115.136C131.221 74.97 140.271 67.2072 140.271 54.5496C140.271 46.036 134.844 38.4985 125.899 36.4715C133.25 34.4444 138.572 28.4985 138.572 19.4595C138.572 7.01201 129.207 0 113.978 0H107.875V16.5916H109.393C114.505 16.5916 117.271 18.8288 117.271 23.2883H117.256Z" fill="white"/>
<path d="M147.847 29.6396V74.97H177.552C201.514 74.97 216.727 59.1291 216.727 37.4324C216.727 15.7357 201.589 0.0750751 177.747 0V18.1381C188.736 18.7988 195.561 25.6156 195.561 37.4324C195.561 49.2493 188 56.5766 175.974 56.5766H168.728V29.6396H147.847Z" fill="white"/>
<path d="M245.2 28.6637H224.334V74.97H245.2V28.6637Z" fill="white"/>
<path fill-rule="evenodd" clip-rule="evenodd" d="M147.847 21.6817C159.843 21.6817 169.555 11.967 169.555 0H147.847V21.6817Z" fill="white"/>
<path fill-rule="evenodd" clip-rule="evenodd" d="M77.975 21.6817C89.9711 21.6817 99.6823 11.967 99.6823 0H77.975V21.6817Z" fill="white"/>
<path fill-rule="evenodd" clip-rule="evenodd" d="M245.2 0C233.669 0 224.334 9.32433 224.334 20.8408H245.2V0Z" fill="white"/>
<path fill-rule="evenodd" clip-rule="evenodd" d="M44.1512 37.0571C54.6291 33.6036 65.9337 39.3093 69.3762 49.7748C72.8187 60.2402 67.1213 71.5315 56.6435 74.97L44.1512 37.0571Z" fill="white"/>
<path d="M62.1605 100.105H56.6134L55.5912 102.928H53.8474L58.4474 90.2853H60.3566L64.9416 102.928H63.1827L62.1605 100.105ZM61.6795 98.7538L59.3794 92.3423L57.0794 98.7538H61.6795Z" fill="white"/>
<path d="M73.3298 93.3484C73.9763 93.7237 74.4723 94.2042 74.788 94.7748V92.958H76.4717V103.168C76.4717 104.084 76.2763 104.895 75.8854 105.601C75.4946 106.306 74.9384 106.862 74.2168 107.267C73.4952 107.673 72.6534 107.868 71.6913 107.868C70.3834 107.868 69.286 107.553 68.4141 106.937C67.5422 106.321 67.0161 105.465 66.8658 104.399H68.5043C68.6847 105 69.0605 105.496 69.6318 105.871C70.203 106.246 70.8945 106.426 71.6913 106.426C72.6083 106.426 73.3449 106.141 73.9312 105.571C74.5024 105 74.8031 104.204 74.8031 103.168V101.066C74.4723 101.652 73.9913 102.132 73.3449 102.523C72.6985 102.913 71.9468 103.108 71.09 103.108C70.2331 103.108 69.3913 102.883 68.6697 102.447C67.9481 102.012 67.3769 101.396 66.956 100.601C66.5501 99.8048 66.3396 98.9189 66.3396 97.8979C66.3396 96.8769 66.5501 95.976 66.956 95.2102C67.3769 94.4445 67.9331 93.8438 68.6697 93.4084C69.3913 92.988 70.203 92.7628 71.09 92.7628C71.9769 92.7628 72.7135 92.958 73.3599 93.3333M74.322 95.946C74.0214 95.3904 73.6004 94.955 73.0893 94.6547C72.5632 94.3544 72.007 94.2042 71.3756 94.2042C70.7442 94.2042 70.188 94.3543 69.6769 94.6396C69.1658 94.9249 68.7599 95.3604 68.4592 95.9159C68.1586 96.4715 68.0083 97.1321 68.0083 97.8829C68.0083 98.6336 68.1586 99.3093 68.4592 99.8799C68.7599 100.45 69.1658 100.871 69.6769 101.171C70.188 101.471 70.7592 101.622 71.3756 101.622C71.9919 101.622 72.5632 101.471 73.0893 101.171C73.6004 100.871 74.0214 100.435 74.322 99.8799C74.6227 99.3243 74.773 98.6487 74.773 97.8979C74.773 97.1472 74.6227 96.4865 74.322 95.9309" fill="white"/>
<path d="M88.3476 98.5586H80.3502C80.4103 99.5496 80.756 100.315 81.3573 100.871C81.9737 101.426 82.7103 101.697 83.5972 101.697C84.3188 101.697 84.9201 101.532 85.4012 101.201C85.8822 100.871 86.2129 100.42 86.4084 99.8649H88.1973C87.9267 100.826 87.4005 101.607 86.5887 102.207C85.792 102.808 84.7848 103.108 83.5972 103.108C82.6502 103.108 81.7933 102.898 81.0567 102.477C80.305 102.057 79.7188 101.441 79.2979 100.661C78.8769 99.8799 78.6515 98.964 78.6515 97.9279C78.6515 96.8919 78.8619 95.991 79.2678 95.2102C79.6887 94.4294 80.2599 93.8288 81.0116 93.4084C81.7632 92.988 82.6201 92.7778 83.5972 92.7778C84.5744 92.7778 85.3861 92.988 86.1227 93.3934C86.8593 93.7988 87.4156 94.3694 87.8064 95.1051C88.1973 95.8258 88.3927 96.6517 88.3927 97.5526C88.3927 97.8679 88.3776 98.1982 88.3326 98.5586M86.2731 95.5706C85.9874 95.1201 85.6116 94.7748 85.1306 94.5345C84.6495 94.2943 84.1234 94.1742 83.5371 94.1742C82.6953 94.1742 81.9887 94.4444 81.3874 94.97C80.8011 95.5105 80.4554 96.2463 80.3802 97.1922H86.694C86.694 96.5616 86.5587 96.021 86.2731 95.5556M83.5521 90.4955L81.0116 92.042V90.7357L83.5521 89.2192L86.0776 90.7357V92.042L83.5521 90.4955Z" fill="white"/>
<path d="M98.4195 93.8589C99.1712 94.5946 99.547 95.6607 99.547 97.042V102.928H97.9084V97.2823C97.9084 96.2913 97.6529 95.5255 97.1568 95C96.6607 94.4745 95.9842 94.2042 95.1123 94.2042C94.2404 94.2042 93.5339 94.4745 93.0228 95.03C92.5117 95.5706 92.2411 96.3664 92.2411 97.4174V102.943H90.5875V92.958H92.2411V94.3844C92.5718 93.8739 93.0228 93.4835 93.579 93.1982C94.1502 92.9129 94.7666 92.7778 95.4431 92.7778C96.6607 92.7778 97.6378 93.1381 98.4045 93.8739" fill="white"/>
<path d="M102.268 95.2102C102.689 94.4445 103.26 93.8438 103.997 93.4084C104.733 92.988 105.575 92.7778 106.522 92.7778C107.755 92.7778 108.762 93.0781 109.559 93.6787C110.356 94.2793 110.882 95.1051 111.137 96.1562H109.348C109.183 95.5556 108.852 95.0751 108.356 94.7147C107.86 94.3694 107.259 94.1892 106.522 94.1892C105.575 94.1892 104.808 94.5195 104.222 95.1652C103.636 95.8108 103.35 96.7417 103.35 97.9279C103.35 99.1141 103.651 100.06 104.222 100.721C104.808 101.381 105.575 101.712 106.522 101.712C107.259 101.712 107.86 101.547 108.341 101.201C108.822 100.856 109.168 100.375 109.348 99.7448H111.137C110.867 100.766 110.341 101.592 109.529 102.192C108.717 102.808 107.725 103.108 106.522 103.108C105.575 103.108 104.733 102.898 103.997 102.462C103.26 102.042 102.689 101.441 102.268 100.661C101.847 99.8799 101.652 98.964 101.652 97.9279C101.652 96.8919 101.862 95.991 102.268 95.2252" fill="white"/>
<path d="M113.407 90.991C113.182 90.7658 113.076 90.5105 113.076 90.1952C113.076 89.8799 113.182 89.6096 113.407 89.3994C113.633 89.1892 113.888 89.0691 114.204 89.0691C114.52 89.0691 114.76 89.1742 114.986 89.3994C115.196 89.6246 115.301 89.8799 115.301 90.1952C115.301 90.5105 115.196 90.7808 114.986 90.991C114.775 91.2162 114.52 91.3213 114.204 91.3213C113.888 91.3213 113.618 91.2162 113.407 90.991ZM115.016 102.928H113.362V92.943H115.016V102.928Z" fill="white"/>
<path d="M117.842 95.2102C118.263 94.4445 118.819 93.8438 119.556 93.4084C120.277 92.988 121.089 92.7628 121.976 92.7628C122.863 92.7628 123.614 92.958 124.261 93.3333C124.907 93.7087 125.388 94.1892 125.704 94.7598V92.943H127.388V102.928H125.704V101.066C125.373 101.652 124.877 102.132 124.231 102.523C123.584 102.898 122.818 103.093 121.961 103.093C121.104 103.093 120.277 102.868 119.556 102.432C118.834 101.997 118.278 101.381 117.857 100.586C117.451 99.7898 117.241 98.9039 117.241 97.8829C117.241 96.8619 117.451 95.961 117.857 95.1952M125.238 95.946C124.937 95.3904 124.516 94.955 124.005 94.6547C123.479 94.3544 122.923 94.2042 122.292 94.2042C121.66 94.2042 121.104 94.3543 120.593 94.6396C120.082 94.9249 119.676 95.3604 119.375 95.9159C119.075 96.4715 118.924 97.1321 118.924 97.8829C118.924 98.6336 119.075 99.3093 119.375 99.8799C119.676 100.45 120.082 100.871 120.593 101.171C121.104 101.471 121.675 101.622 122.292 101.622C122.908 101.622 123.479 101.471 124.005 101.171C124.516 100.871 124.937 100.435 125.238 99.8799C125.539 99.3243 125.689 98.6487 125.689 97.8979C125.689 97.1472 125.539 96.4865 125.238 95.9309" fill="white"/>
<path d="M142.691 96.952C143.082 97.2523 143.383 97.6276 143.608 98.0781C143.834 98.5285 143.939 99.009 143.939 99.5195C143.939 100.165 143.773 100.751 143.443 101.261C143.112 101.772 142.631 102.192 142.015 102.477C141.383 102.778 140.647 102.928 139.805 102.928H135.054V90.2252H139.624C140.481 90.2252 141.218 90.3754 141.834 90.6607C142.436 90.946 142.902 91.3363 143.202 91.8168C143.503 92.2973 143.653 92.8529 143.653 93.4535C143.653 94.2042 143.443 94.8348 143.037 95.3303C142.631 95.8258 142.09 96.1712 141.428 96.3964C141.894 96.4715 142.315 96.6517 142.691 96.967M136.723 95.7207H139.519C140.301 95.7207 140.902 95.5405 141.323 95.1802C141.744 94.8198 141.954 94.3093 141.954 93.6637C141.954 93.018 141.744 92.5225 141.323 92.1471C140.902 91.7868 140.286 91.6066 139.474 91.6066H136.723V95.7207ZM141.594 100.976C142.06 100.586 142.285 100.045 142.285 99.3544C142.285 98.6637 142.045 98.0931 141.564 97.6877C141.083 97.2823 140.421 97.0721 139.609 97.0721H136.723V101.562H139.669C140.496 101.562 141.143 101.366 141.609 100.976" fill="white"/>
<path d="M149.155 93.2282C149.696 92.9129 150.358 92.7478 151.139 92.7478V94.4595H150.704C148.839 94.4595 147.907 95.4655 147.907 97.4925V102.928H146.239V92.943H147.907V94.5646C148.193 93.994 148.614 93.5586 149.155 93.2282Z" fill="white"/>
<path d="M153.064 95.2102C153.485 94.4445 154.041 93.8438 154.777 93.4084C155.499 92.988 156.311 92.7628 157.198 92.7628C158.085 92.7628 158.836 92.958 159.483 93.3333C160.129 93.7087 160.61 94.1892 160.926 94.7598V92.943H162.609V102.928H160.926V101.066C160.595 101.652 160.099 102.132 159.453 102.523C158.806 102.898 158.04 103.093 157.183 103.093C156.326 103.093 155.499 102.868 154.777 102.432C154.056 101.997 153.5 101.381 153.079 100.586C152.673 99.7898 152.462 98.9039 152.462 97.8829C152.462 96.8619 152.673 95.961 153.079 95.1952M160.445 95.946C160.144 95.3904 159.723 94.955 159.212 94.6547C158.686 94.3544 158.13 94.2042 157.498 94.2042C156.867 94.2042 156.311 94.3543 155.8 94.6396C155.289 94.9249 154.883 95.3604 154.582 95.9159C154.281 96.4715 154.131 97.1321 154.131 97.8829C154.131 98.6336 154.281 99.3093 154.582 99.8799C154.883 100.45 155.289 100.871 155.8 101.171C156.311 101.471 156.882 101.622 157.498 101.622C158.115 101.622 158.686 101.471 159.212 101.171C159.723 100.871 160.144 100.435 160.445 99.8799C160.745 99.3243 160.896 98.6487 160.896 97.8979C160.896 97.1472 160.745 96.4865 160.445 95.9309" fill="white"/>
<path d="M166.879 102.703C166.262 102.447 165.796 102.072 165.436 101.607C165.09 101.141 164.894 100.601 164.849 100H166.563C166.608 100.496 166.849 100.901 167.27 101.216C167.691 101.532 168.247 101.697 168.923 101.697C169.555 101.697 170.051 101.562 170.426 101.276C170.787 100.991 170.968 100.646 170.968 100.225C170.968 99.8048 170.772 99.4595 170.381 99.2493C169.991 99.039 169.389 98.8288 168.577 98.6186C167.841 98.4234 167.225 98.2282 166.759 98.033C166.292 97.8378 165.887 97.5376 165.556 97.1321C165.225 96.7418 165.06 96.2162 165.06 95.5706C165.06 95.0601 165.21 94.5946 165.511 94.1742C165.811 93.7538 166.247 93.4084 166.804 93.1682C167.36 92.9129 168.006 92.7928 168.728 92.7928C169.84 92.7928 170.727 93.0781 171.404 93.6336C172.08 94.1892 172.456 94.955 172.501 95.9309H170.847C170.817 95.4054 170.607 94.985 170.216 94.6697C169.825 94.3544 169.314 94.1892 168.668 94.1892C168.066 94.1892 167.6 94.3093 167.24 94.5796C166.894 94.8348 166.713 95.1652 166.713 95.5856C166.713 95.9159 166.819 96.1862 167.029 96.3964C167.24 96.6066 167.51 96.7868 167.826 96.9069C168.142 97.027 168.593 97.1772 169.164 97.3424C169.885 97.5376 170.472 97.7327 170.923 97.9129C171.374 98.1081 171.764 98.3784 172.08 98.7688C172.396 99.1442 172.576 99.6397 172.576 100.24C172.576 100.781 172.426 101.276 172.125 101.712C171.825 102.147 171.389 102.493 170.832 102.748C170.276 103.003 169.645 103.123 168.923 103.123C168.157 103.123 167.465 102.988 166.864 102.733" fill="white"/>
<path d="M174.981 90.991C174.756 90.7658 174.651 90.5105 174.651 90.1952C174.651 89.8799 174.756 89.6096 174.981 89.3994C175.207 89.1742 175.462 89.0691 175.778 89.0691C176.094 89.0691 176.349 89.1742 176.56 89.3994C176.77 89.6246 176.876 89.8799 176.876 90.1952C176.876 90.5105 176.77 90.7808 176.56 90.991C176.349 91.2162 176.094 91.3213 175.778 91.3213C175.462 91.3213 175.192 91.2162 174.981 90.991ZM176.59 102.928H174.936V92.943H176.59V102.928Z" fill="white"/>
<path d="M181.07 89.4444H179.416V102.943H181.07V89.4444Z" fill="white"/>
<path d="M192.976 98.5586H184.978C185.038 99.5496 185.384 100.315 185.985 100.871C186.602 101.426 187.338 101.697 188.225 101.697C188.947 101.697 189.548 101.532 190.029 101.201C190.51 100.871 190.856 100.42 191.036 99.8649H192.825C192.555 100.826 192.029 101.607 191.217 102.207C190.42 102.808 189.413 103.108 188.225 103.108C187.278 103.108 186.421 102.898 185.685 102.477C184.933 102.057 184.347 101.441 183.926 100.661C183.505 99.8799 183.28 98.964 183.28 97.9279C183.28 96.8919 183.49 95.991 183.896 95.2102C184.317 94.4294 184.888 93.8288 185.64 93.4084C186.391 92.988 187.248 92.7778 188.225 92.7778C189.202 92.7778 190.014 92.988 190.751 93.3934C191.487 93.7988 192.044 94.3694 192.434 95.0901C192.825 95.8108 193.036 96.6366 193.036 97.5375C193.036 97.8529 193.021 98.1832 192.976 98.5435M190.901 95.5706C190.615 95.1201 190.24 94.7748 189.759 94.5345C189.278 94.2943 188.751 94.1742 188.165 94.1742C187.323 94.1742 186.602 94.4444 186.015 94.97C185.429 95.5105 185.083 96.2463 185.008 97.1922H191.322C191.322 96.5616 191.187 96.021 190.901 95.5556" fill="white"/>
<path d="M195.276 90.991C195.05 90.7658 194.945 90.5105 194.945 90.1952C194.945 89.8799 195.05 89.6096 195.276 89.3994C195.501 89.1892 195.757 89.0691 196.072 89.0691C196.388 89.0691 196.629 89.1742 196.854 89.3994C197.065 89.6246 197.17 89.8799 197.17 90.1952C197.17 90.5105 197.065 90.7808 196.854 90.991C196.644 91.2162 196.388 91.3213 196.072 91.3213C195.757 91.3213 195.486 91.2162 195.276 90.991ZM196.884 102.928H195.231V92.943H196.884V102.928Z" fill="white"/>
<path d="M202.627 93.2282C203.168 92.9129 203.829 92.7478 204.611 92.7478V94.4595H204.175C202.311 94.4595 201.379 95.4655 201.379 97.4925V102.928H199.71V92.943H201.379V94.5646C201.665 93.994 202.086 93.5586 202.627 93.2282Z" fill="white"/>
<path d="M206.52 95.2102C206.941 94.4445 207.497 93.8438 208.234 93.4084C208.956 92.988 209.767 92.7628 210.654 92.7628C211.541 92.7628 212.293 92.958 212.939 93.3333C213.586 93.7087 214.067 94.1892 214.382 94.7598V92.943H216.066V102.928H214.382V101.066C214.052 101.652 213.556 102.132 212.909 102.523C212.263 102.898 211.496 103.093 210.639 103.093C209.782 103.093 208.956 102.868 208.234 102.432C207.512 101.997 206.956 101.381 206.535 100.586C206.129 99.7898 205.919 98.9039 205.919 97.8829C205.919 96.8619 206.129 95.961 206.535 95.1952M213.916 95.946C213.616 95.3904 213.195 94.955 212.684 94.6547C212.157 94.3544 211.601 94.2042 210.97 94.2042C210.339 94.2042 209.782 94.3543 209.271 94.6396C208.76 94.9249 208.354 95.3604 208.054 95.9159C207.753 96.4715 207.603 97.1321 207.603 97.8829C207.603 98.6336 207.753 99.3093 208.054 99.8799C208.354 100.45 208.76 100.871 209.271 101.171C209.782 101.471 210.354 101.622 210.97 101.622C211.586 101.622 212.157 101.471 212.684 101.171C213.195 100.871 213.616 100.435 213.916 99.8799C214.217 99.3243 214.367 98.6487 214.367 97.8979C214.367 97.1472 214.217 96.4865 213.916 95.9309" fill="white"/>
<path d="M223.733 95.2102C224.154 94.4445 224.71 93.8438 225.446 93.4084C226.168 92.988 226.98 92.7628 227.882 92.7628C228.663 92.7628 229.385 92.9429 230.061 93.3033C230.738 93.6637 231.234 94.1291 231.595 94.7147V89.4294H233.279V102.928H231.595V101.051C231.264 101.652 230.783 102.132 230.137 102.523C229.49 102.898 228.739 103.093 227.882 103.093C227.025 103.093 226.183 102.868 225.461 102.432C224.74 101.997 224.169 101.381 223.748 100.586C223.342 99.7898 223.131 98.9039 223.131 97.8829C223.131 96.8619 223.342 95.961 223.748 95.1952M231.129 95.946C230.828 95.3904 230.407 94.955 229.896 94.6547C229.37 94.3544 228.814 94.2042 228.182 94.2042C227.551 94.2042 226.995 94.3543 226.484 94.6396C225.973 94.9249 225.567 95.3604 225.266 95.9159C224.965 96.4715 224.815 97.1321 224.815 97.8829C224.815 98.6336 224.965 99.3093 225.266 99.8799C225.567 100.45 225.973 100.871 226.484 101.171C226.995 101.471 227.566 101.622 228.182 101.622C228.799 101.622 229.37 101.471 229.896 101.171C230.407 100.871 230.828 100.435 231.129 99.8799C231.43 99.3243 231.58 98.6487 231.58 97.8979C231.58 97.1472 231.43 96.4865 231.129 95.9309" fill="white"/>
<path d="M245.139 98.5586H237.142C237.202 99.5496 237.548 100.315 238.149 100.871C238.765 101.426 239.502 101.697 240.389 101.697C241.111 101.697 241.712 101.532 242.193 101.201C242.674 100.871 243.02 100.42 243.2 99.8649H244.989C244.718 100.826 244.192 101.607 243.381 102.207C242.584 102.808 241.577 103.108 240.389 103.108C239.442 103.108 238.585 102.898 237.848 102.477C237.097 102.057 236.511 101.441 236.09 100.661C235.669 99.8799 235.443 98.964 235.443 97.9279C235.443 96.8919 235.654 95.991 236.06 95.2102C236.48 94.4294 237.052 93.8288 237.803 93.4084C238.555 92.988 239.412 92.7778 240.389 92.7778C241.366 92.7778 242.178 92.988 242.915 93.3934C243.651 93.7988 244.207 94.3694 244.598 95.0901C244.989 95.8108 245.2 96.6366 245.2 97.5375C245.2 97.8529 245.184 98.1832 245.139 98.5435M243.065 95.5706C242.779 95.1201 242.403 94.7748 241.922 94.5345C241.441 94.2943 240.915 94.1742 240.329 94.1742C239.487 94.1742 238.781 94.4444 238.179 94.97C237.593 95.5105 237.247 96.2463 237.172 97.1922H243.486C243.486 96.5616 243.35 96.021 243.065 95.5556" fill="white"/>
<path d="M7.56148 112.883C8.58371 113.393 9.35038 114.129 9.89156 115.105C10.4327 116.066 10.7033 117.192 10.7033 118.499C10.7033 119.805 10.4327 120.931 9.89156 121.877C9.35038 122.838 8.56868 123.559 7.56148 124.069C6.53926 124.58 5.35167 124.82 3.95362 124.82H0V112.117H3.96865C5.35167 112.117 6.55429 112.372 7.57652 112.898M7.72684 122.147C8.59874 121.276 9.01966 120.06 9.01966 118.499C9.01966 116.937 8.58371 115.691 7.71181 114.805C6.83991 113.919 5.59219 113.468 3.96865 113.468H1.66864V123.453H3.96865C5.60722 123.453 6.86998 123.018 7.72684 122.147Z" fill="white"/>
<path d="M21.9779 120.435H13.9805C14.0406 121.426 14.3864 122.192 14.9877 122.748C15.604 123.303 16.3406 123.574 17.2276 123.574C17.9491 123.574 18.5504 123.408 19.0315 123.078C19.5125 122.748 19.8583 122.297 20.0387 121.742H21.8276C21.557 122.703 21.0308 123.483 20.2191 124.084C19.4223 124.685 18.4151 124.985 17.2276 124.985C16.2805 124.985 15.4236 124.775 14.687 124.354C13.9354 123.934 13.3491 123.318 12.9282 122.538C12.5073 121.757 12.2818 120.841 12.2818 119.805C12.2818 118.769 12.4922 117.868 12.8981 117.087C13.319 116.306 13.8903 115.706 14.6419 115.285C15.3936 114.865 16.2504 114.655 17.2276 114.655C18.2047 114.655 19.0165 114.865 19.7531 115.27C20.4897 115.676 21.0459 116.246 21.4367 116.967C21.8276 117.688 22.038 118.514 22.038 119.414C22.038 119.73 22.023 120.06 21.9779 120.42M19.9034 117.462C19.6178 117.012 19.2419 116.667 18.7609 116.426C18.2798 116.186 17.7537 116.066 17.1674 116.066C16.3256 116.066 15.619 116.336 15.0177 116.862C14.4315 117.402 14.0857 118.138 14.0105 119.084H20.3243C20.3243 118.453 20.189 117.913 19.9034 117.447" fill="white"/>
<path d="M25.706 124.58C25.0897 124.324 24.6237 123.949 24.2629 123.483C23.9171 123.018 23.7217 122.477 23.6766 121.877H25.3903C25.4354 122.372 25.676 122.778 26.0969 123.093C26.5178 123.408 27.074 123.574 27.7505 123.574C28.3819 123.574 28.8779 123.438 29.2538 123.153C29.6146 122.868 29.7949 122.523 29.7949 122.102C29.7949 121.682 29.5995 121.336 29.2087 121.126C28.8178 120.916 28.2165 120.706 27.4047 120.496C26.6681 120.3 26.0518 120.105 25.5858 119.91C25.1198 119.715 24.7139 119.414 24.3832 119.009C24.0524 118.619 23.872 118.093 23.872 117.447C23.872 116.937 24.0224 116.471 24.323 116.051C24.6237 115.631 25.0596 115.285 25.6158 115.045C26.1721 114.79 26.8185 114.67 27.54 114.67C28.6525 114.67 29.5394 114.955 30.2159 115.511C30.8923 116.066 31.2682 116.832 31.3133 117.808H29.6597C29.6296 117.282 29.4191 116.862 29.0283 116.547C28.6374 116.231 28.1263 116.066 27.4799 116.066C26.8786 116.066 26.4126 116.186 26.0518 116.456C25.706 116.712 25.5256 117.042 25.5256 117.462C25.5256 117.793 25.6309 118.063 25.8413 118.273C26.0518 118.483 26.3224 118.664 26.6381 118.784C26.9538 118.904 27.4047 119.054 27.976 119.219C28.6976 119.414 29.2838 119.61 29.7198 119.79C30.1708 119.985 30.5616 120.255 30.8773 120.646C31.208 121.021 31.3734 121.517 31.3884 122.117C31.3884 122.658 31.2381 123.153 30.9374 123.589C30.6368 124.024 30.2008 124.369 29.6446 124.625C29.0884 124.88 28.457 125 27.7355 125C26.9688 125 26.2773 124.865 25.676 124.61" fill="white"/>
<path d="M42.8284 120.435H34.8309C34.8911 121.426 35.2368 122.192 35.8381 122.748C36.4545 123.303 37.1911 123.574 38.078 123.574C38.7996 123.574 39.4009 123.408 39.8819 123.078C40.363 122.748 40.7087 122.297 40.8891 121.742H42.678C42.4074 122.703 41.8813 123.483 41.0695 124.084C40.2728 124.685 39.2656 124.985 38.078 124.985C37.1309 124.985 36.2741 124.775 35.5375 124.354C34.7858 123.934 34.1996 123.318 33.7786 122.538C33.3577 121.757 33.1322 120.841 33.1322 119.805C33.1322 118.769 33.3427 117.868 33.7486 117.087C34.1695 116.306 34.7407 115.706 35.4924 115.285C36.244 114.865 37.1009 114.655 38.078 114.655C39.0551 114.655 39.8669 114.865 40.6035 115.27C41.3401 115.676 41.8963 116.246 42.2872 116.967C42.678 117.688 42.8885 118.514 42.8885 119.414C42.8885 119.73 42.8735 120.06 42.8284 120.42M40.7388 117.462C40.4532 117.012 40.0774 116.667 39.5963 116.426C39.1153 116.186 38.5891 116.066 38.0028 116.066C37.161 116.066 36.4545 116.336 35.8532 116.862C35.2669 117.402 34.9211 118.138 34.846 119.084H41.1597C41.1597 118.453 41.0244 117.913 40.7388 117.447" fill="white"/>
<path d="M52.9003 115.736C53.652 116.471 54.0278 117.538 54.0278 118.919V124.805H52.3892V119.159C52.3892 118.168 52.1336 117.402 51.6376 116.877C51.1415 116.351 50.465 116.081 49.5931 116.081C48.7212 116.081 48.0147 116.351 47.5036 116.907C46.9924 117.447 46.7218 118.243 46.7218 119.294V124.82H45.0682V114.835H46.7218V116.261C47.0526 115.751 47.5036 115.36 48.0598 115.075C48.631 114.79 49.2474 114.655 49.9238 114.655C51.1415 114.655 52.1186 115.015 52.8853 115.751" fill="white"/>
<path d="M60.4768 123.288L63.5736 114.82H65.3475L61.4239 124.82H59.4847L55.5611 114.82H57.35L60.4768 123.288Z" fill="white"/>
<path d="M68.805 124.339C68.0383 123.919 67.452 123.303 67.0161 122.523C66.5801 121.742 66.3697 120.826 66.3697 119.79C66.3697 118.754 66.5952 117.868 67.0311 117.087C67.4821 116.306 68.0834 115.706 68.8501 115.285C69.6168 114.865 70.4736 114.655 71.4207 114.655C72.3678 114.655 73.2246 114.865 73.9913 115.285C74.758 115.706 75.3593 116.306 75.8103 117.087C76.2462 117.868 76.4717 118.769 76.4717 119.805C76.4717 120.841 76.2462 121.742 75.7952 122.538C75.3442 123.318 74.7129 123.919 73.9462 124.354C73.1645 124.775 72.3076 125 71.3606 125C70.4135 125 69.5717 124.79 68.82 124.354M73.0292 123.093C73.5553 122.808 73.9763 122.402 74.2919 121.832C74.6076 121.276 74.773 120.586 74.773 119.79C74.773 118.994 74.6076 118.303 74.2919 117.748C73.9763 117.192 73.5704 116.772 73.0442 116.502C72.5331 116.231 71.9769 116.096 71.3906 116.096C70.8043 116.096 70.2181 116.231 69.722 116.502C69.2109 116.772 68.82 117.192 68.5043 117.748C68.2037 118.303 68.0533 118.994 68.0533 119.79C68.0533 120.586 68.2037 121.291 68.5043 121.847C68.805 122.402 69.1958 122.823 69.6919 123.093C70.188 123.363 70.7442 123.499 71.3305 123.499C71.9168 123.499 72.488 123.363 73.0142 123.078" fill="white"/>
<path d="M80.3201 111.321H78.6665V124.82H80.3201V111.321Z" fill="white"/>
<path d="M86.8894 123.288L89.9862 114.82H91.76L87.8365 124.82H85.8972L81.9737 114.82H83.7626L86.8894 123.288Z" fill="white"/>
<path d="M93.4587 112.868C93.2332 112.658 93.128 112.387 93.128 112.072C93.128 111.757 93.2332 111.487 93.4587 111.276C93.6842 111.066 93.9398 110.946 94.2555 110.946C94.5712 110.946 94.8267 111.051 95.0372 111.276C95.2476 111.502 95.3529 111.757 95.3529 112.072C95.3529 112.387 95.2476 112.658 95.0372 112.868C94.8267 113.093 94.5712 113.198 94.2555 113.198C93.9398 113.198 93.6692 113.093 93.4587 112.868ZM95.0672 124.82H93.4136V114.835H95.0672V124.82Z" fill="white"/>
<path d="M112.009 115.12C112.626 115.435 113.092 115.931 113.452 116.562C113.798 117.207 113.978 117.988 113.978 118.919V124.805H112.34V119.159C112.34 118.168 112.099 117.402 111.603 116.877C111.107 116.351 110.446 116.081 109.604 116.081C108.762 116.081 108.056 116.351 107.544 116.907C107.033 117.462 106.778 118.258 106.778 119.309V124.82H105.139V119.174C105.139 118.183 104.899 117.417 104.403 116.892C103.907 116.366 103.245 116.096 102.403 116.096C101.561 116.096 100.855 116.366 100.344 116.922C99.8326 117.477 99.5771 118.273 99.5771 119.324V124.835H97.9235V114.85H99.5771V116.291C99.9078 115.766 100.344 115.375 100.9 115.09C101.456 114.805 102.073 114.67 102.734 114.67C103.576 114.67 104.312 114.865 104.959 115.24C105.605 115.616 106.086 116.171 106.402 116.907C106.688 116.201 107.139 115.661 107.785 115.27C108.431 114.88 109.153 114.685 109.935 114.685C110.716 114.685 111.408 114.85 112.009 115.165" fill="white"/>
<path d="M125.764 120.435H117.767C117.827 121.426 118.173 122.192 118.774 122.748C119.39 123.303 120.127 123.574 121.014 123.574C121.735 123.574 122.337 123.408 122.818 123.078C123.299 122.748 123.645 122.297 123.825 121.742H125.614C125.343 122.703 124.817 123.483 124.005 124.084C123.209 124.685 122.201 124.985 121.014 124.985C120.067 124.985 119.21 124.775 118.473 124.354C117.722 123.934 117.135 123.318 116.714 122.538C116.294 121.757 116.068 120.841 116.068 119.805C116.068 118.769 116.278 117.868 116.684 117.087C117.105 116.306 117.677 115.706 118.428 115.285C119.18 114.865 120.037 114.655 121.014 114.655C121.991 114.655 122.803 114.865 123.539 115.27C124.276 115.676 124.832 116.246 125.223 116.967C125.614 117.688 125.824 118.514 125.824 119.414C125.824 119.73 125.809 120.06 125.764 120.42M123.69 117.462C123.404 117.012 123.028 116.667 122.547 116.426C122.066 116.186 121.54 116.066 120.954 116.066C120.112 116.066 119.39 116.336 118.804 116.862C118.218 117.402 117.872 118.138 117.797 119.084H124.111C124.111 118.453 123.975 117.913 123.69 117.447" fill="white"/>
<path d="M135.836 115.736C136.588 116.471 136.964 117.538 136.964 118.919V124.805H135.325V119.159C135.325 118.168 135.069 117.402 134.573 116.877C134.077 116.351 133.401 116.081 132.529 116.081C131.657 116.081 130.95 116.351 130.439 116.907C129.928 117.447 129.658 118.243 129.658 119.294V124.82H128.004V114.835H129.658V116.261C129.988 115.751 130.439 115.36 130.996 115.075C131.567 114.79 132.183 114.655 132.86 114.655C134.077 114.655 135.054 115.015 135.821 115.751" fill="white"/>
<path d="M141.714 122.072C141.714 122.553 141.819 122.898 142.03 123.108C142.24 123.303 142.601 123.408 143.112 123.408H144.33V124.805H142.841C141.909 124.805 141.218 124.595 140.752 124.159C140.286 123.739 140.06 123.033 140.06 122.057V116.171H138.767V114.805H140.06V112.297H141.714V114.805H144.33V116.171H141.714V122.072Z" fill="white"/>
<path d="M148.148 124.339C147.381 123.919 146.795 123.303 146.359 122.523C145.923 121.742 145.713 120.826 145.713 119.79C145.713 118.754 145.938 117.868 146.374 117.087C146.825 116.306 147.426 115.706 148.193 115.285C148.96 114.865 149.817 114.655 150.764 114.655C151.711 114.655 152.568 114.865 153.334 115.285C154.101 115.706 154.702 116.306 155.153 117.087C155.589 117.868 155.815 118.769 155.815 119.805C155.815 120.841 155.589 121.742 155.138 122.538C154.687 123.318 154.056 123.919 153.289 124.354C152.507 124.775 151.651 125 150.704 125C149.756 125 148.915 124.79 148.163 124.354M152.387 123.093C152.913 122.808 153.334 122.402 153.65 121.832C153.966 121.276 154.131 120.586 154.131 119.79C154.131 118.994 153.966 118.303 153.65 117.748C153.334 117.192 152.913 116.772 152.402 116.502C151.891 116.231 151.335 116.096 150.749 116.096C150.162 116.096 149.576 116.231 149.08 116.502C148.569 116.772 148.178 117.192 147.862 117.748C147.562 118.303 147.411 118.994 147.411 119.79C147.411 120.586 147.562 121.291 147.862 121.847C148.163 122.402 148.554 122.823 149.05 123.093C149.546 123.363 150.102 123.499 150.688 123.499C151.275 123.499 151.846 123.363 152.372 123.078" fill="white"/>
<path d="M164.549 112.102H162.895V124.805H164.549V112.102Z" fill="white"/>
<path d="M175.222 115.736C175.974 116.471 176.349 117.538 176.349 118.919V124.805H174.711V119.159C174.711 118.168 174.455 117.402 173.959 116.877C173.463 116.351 172.787 116.081 171.915 116.081C171.043 116.081 170.336 116.351 169.825 116.907C169.314 117.447 169.043 118.243 169.043 119.294V124.82H167.39V114.835H169.043V116.261C169.374 115.751 169.825 115.36 170.381 115.075C170.953 114.79 171.569 114.655 172.245 114.655C173.463 114.655 174.44 115.015 175.207 115.751" fill="white"/>
<path d="M179.07 117.087C179.491 116.321 180.047 115.721 180.784 115.285C181.506 114.865 182.317 114.64 183.219 114.64C184.001 114.64 184.723 114.82 185.399 115.18C186.076 115.541 186.572 116.006 186.932 116.592V111.306H188.616V124.805H186.932V122.928C186.602 123.529 186.121 124.009 185.474 124.399C184.828 124.775 184.076 124.97 183.219 124.97C182.363 124.97 181.521 124.745 180.799 124.309C180.078 123.874 179.506 123.258 179.085 122.462C178.68 121.667 178.469 120.781 178.469 119.76C178.469 118.739 178.68 117.838 179.085 117.072M186.466 117.823C186.166 117.267 185.745 116.832 185.234 116.532C184.708 116.231 184.151 116.081 183.52 116.081C182.889 116.081 182.332 116.231 181.821 116.517C181.31 116.802 180.904 117.237 180.604 117.793C180.303 118.348 180.153 119.009 180.153 119.76C180.153 120.511 180.303 121.186 180.604 121.757C180.904 122.327 181.31 122.748 181.821 123.048C182.332 123.348 182.904 123.499 183.52 123.499C184.136 123.499 184.708 123.348 185.234 123.048C185.745 122.748 186.166 122.312 186.466 121.757C186.767 121.201 186.917 120.526 186.917 119.775C186.917 119.024 186.767 118.363 186.466 117.808" fill="white"/>
<path d="M200.282 114.82V124.805H198.628V123.333C198.312 123.844 197.876 124.249 197.305 124.535C196.734 124.82 196.118 124.97 195.441 124.97C194.659 124.97 193.968 124.805 193.336 124.49C192.72 124.174 192.224 123.679 191.863 123.033C191.502 122.387 191.322 121.607 191.322 120.676V114.82H192.961V120.45C192.961 121.441 193.216 122.192 193.712 122.718C194.208 123.243 194.885 123.514 195.757 123.514C196.629 123.514 197.35 123.243 197.861 122.688C198.372 122.147 198.628 121.351 198.628 120.3V114.82H200.282Z" fill="white"/>
<path d="M204.566 124.58C203.95 124.324 203.484 123.949 203.123 123.483C202.777 123.018 202.582 122.477 202.536 121.877H204.25C204.295 122.372 204.536 122.778 204.957 123.093C205.378 123.408 205.934 123.574 206.61 123.574C207.242 123.574 207.738 123.438 208.114 123.153C208.474 122.868 208.655 122.523 208.655 122.102C208.655 121.682 208.459 121.336 208.069 121.126C207.678 120.916 207.076 120.706 206.265 120.496C205.528 120.3 204.912 120.105 204.446 119.91C203.98 119.715 203.574 119.414 203.243 119.009C202.912 118.619 202.732 118.093 202.732 117.447C202.732 116.937 202.882 116.471 203.183 116.051C203.484 115.631 203.92 115.285 204.476 115.045C205.032 114.79 205.678 114.67 206.4 114.67C207.512 114.67 208.399 114.955 209.076 115.511C209.752 116.066 210.128 116.832 210.173 117.808H208.52C208.49 117.282 208.279 116.862 207.888 116.547C207.497 116.231 206.986 116.066 206.34 116.066C205.738 116.066 205.272 116.186 204.912 116.456C204.566 116.712 204.386 117.042 204.386 117.462C204.386 117.793 204.491 118.063 204.701 118.273C204.912 118.483 205.182 118.664 205.498 118.784C205.814 118.904 206.265 119.054 206.836 119.219C207.557 119.414 208.144 119.61 208.58 119.79C209.031 119.985 209.422 120.255 209.737 120.646C210.068 121.021 210.233 121.517 210.248 122.117C210.248 122.658 210.098 123.153 209.797 123.589C209.497 124.024 209.061 124.369 208.505 124.625C207.948 124.88 207.317 125 206.595 125C205.829 125 205.137 124.865 204.536 124.61" fill="white"/>
<path d="M214.638 122.072C214.638 122.553 214.743 122.898 214.954 123.108C215.164 123.303 215.525 123.408 216.036 123.408H217.254V124.805H215.765C214.833 124.805 214.142 124.595 213.676 124.159C213.21 123.739 212.984 123.033 212.984 122.057V116.171H211.691V114.805H212.984V112.297H214.638V114.805H217.254V116.171H214.638V122.072Z" fill="white"/>
<path d="M222.169 115.12C222.71 114.805 223.372 114.64 224.154 114.64V116.351H223.718C221.854 116.351 220.922 117.357 220.922 119.384V124.82H219.253V114.835H220.922V116.456C221.207 115.886 221.628 115.45 222.169 115.12Z" fill="white"/>
<path d="M226.123 112.868C225.897 112.658 225.792 112.387 225.792 112.072C225.792 111.757 225.897 111.487 226.123 111.276C226.348 111.051 226.604 110.946 226.92 110.946C227.235 110.946 227.476 111.051 227.701 111.276C227.912 111.502 228.017 111.757 228.017 112.072C228.017 112.387 227.912 112.658 227.701 112.868C227.491 113.093 227.235 113.198 226.92 113.198C226.604 113.198 226.333 113.093 226.123 112.868ZM227.731 124.82H226.078V114.835H227.731V124.82Z" fill="white"/>
<path d="M230.558 117.087C230.979 116.321 231.535 115.721 232.271 115.285C232.993 114.865 233.805 114.64 234.692 114.64C235.579 114.64 236.33 114.835 236.977 115.21C237.623 115.586 238.104 116.066 238.42 116.637V114.82H240.103V124.805H238.42V122.943C238.089 123.529 237.593 124.009 236.947 124.399C236.3 124.775 235.533 124.97 234.677 124.97C233.82 124.97 232.993 124.745 232.271 124.309C231.55 123.874 230.994 123.258 230.573 122.462C230.167 121.667 229.956 120.781 229.956 119.76C229.956 118.739 230.167 117.838 230.573 117.072M237.954 117.823C237.653 117.267 237.232 116.832 236.721 116.532C236.195 116.231 235.639 116.081 235.007 116.081C234.376 116.081 233.82 116.231 233.309 116.517C232.797 116.802 232.392 117.237 232.091 117.793C231.79 118.348 231.64 119.009 231.64 119.76C231.64 120.511 231.79 121.186 232.091 121.757C232.392 122.327 232.797 122.748 233.309 123.048C233.82 123.348 234.391 123.499 235.007 123.499C235.624 123.499 236.195 123.348 236.721 123.048C237.232 122.748 237.653 122.312 237.954 121.757C238.254 121.201 238.405 120.526 238.405 119.775C238.405 119.024 238.254 118.363 237.954 117.808" fill="white"/>
<path d="M244.553 111.321H242.899V124.82H244.553V111.321Z" fill="white"/>
</svg>
