<svg width="613" height="122" viewBox="0 0 613 122" fill="none" xmlns="http://www.w3.org/2000/svg">
<path d="M110.989 25.7457V15.8262L106.882 23.356H105.587L101.464 15.8262V25.7457H99.2675V11.8133H101.63L106.25 20.3351L110.869 11.8133H113.232V25.7457H110.989Z" fill="white"/>
<path d="M120.289 25.7457V11.8133H122.486V25.7457H120.289Z" fill="white"/>
<path d="M131.755 15.9013V25.7457H129.558V11.8133H131.364L139.263 21.8831V11.8283H141.475V25.7457H139.549L131.755 15.9013Z" fill="white"/>
<path d="M148.548 25.7457V11.8133H150.745V25.7457H148.548Z" fill="white"/>
<path d="M166.063 15.0897C165.762 14.7591 165.25 14.4435 164.528 14.1278C163.806 13.8272 163.053 13.6619 162.286 13.6619C161.383 13.6619 160.691 13.8272 160.255 14.1579C159.803 14.4885 159.577 14.9695 159.577 15.5857C159.577 15.7811 159.608 15.9464 159.653 16.0967C159.698 16.247 159.773 16.3823 159.848 16.5025C159.924 16.6227 160.044 16.728 160.209 16.8482C160.375 16.9684 160.525 17.0436 160.691 17.1187C160.841 17.1939 161.067 17.284 161.338 17.3592C161.609 17.4494 161.865 17.5245 162.105 17.5846C162.346 17.6448 162.647 17.7199 163.038 17.8251C163.655 17.9754 164.182 18.1107 164.603 18.261C165.025 18.4113 165.461 18.5916 165.852 18.802C166.258 19.0275 166.574 19.268 166.815 19.5385C167.056 19.809 167.252 20.1397 167.402 20.5304C167.537 20.9212 167.613 21.3571 167.613 21.8681C167.613 22.4242 167.522 22.9202 167.357 23.371C167.191 23.8219 166.936 24.1977 166.635 24.4983C166.334 24.7989 165.958 25.0694 165.521 25.2648C165.085 25.4752 164.618 25.6255 164.122 25.7157C163.625 25.8058 163.083 25.8509 162.512 25.8509C161.443 25.8509 160.42 25.6856 159.427 25.37C158.434 25.0544 157.546 24.5884 156.748 23.9722L157.757 22.0785C158.163 22.4993 158.825 22.8901 159.728 23.2809C160.631 23.6716 161.579 23.867 162.542 23.867C163.415 23.867 164.077 23.7167 164.558 23.4011C165.04 23.0855 165.265 22.6496 165.265 22.0785C165.265 21.8531 165.235 21.6426 165.16 21.4623C165.085 21.2819 164.964 21.1016 164.799 20.9663C164.618 20.816 164.453 20.6807 164.272 20.5755C164.092 20.4703 163.836 20.3501 163.49 20.2449C163.159 20.1246 162.843 20.0345 162.572 19.9593C162.301 19.8842 161.925 19.779 161.443 19.6587C160.706 19.4633 160.104 19.268 159.623 19.0726C159.141 18.8772 158.72 18.6367 158.359 18.3512C157.997 18.0656 157.727 17.7199 157.561 17.3291C157.396 16.9384 157.305 16.4725 157.305 15.9314C157.305 15.2551 157.441 14.6539 157.697 14.1128C157.952 13.5717 158.313 13.1208 158.765 12.7752C159.216 12.4295 159.758 12.159 160.36 11.9636C160.977 11.7832 161.639 11.693 162.361 11.693C164.077 11.693 165.642 12.2191 167.071 13.2561L166.078 15.0597L166.063 15.0897Z" fill="white"/>
<path d="M183.984 13.7671H179.35V25.7457H177.123V13.7671H172.473V11.8283H183.984V13.7671Z" fill="white"/>
<path d="M199.333 25.7457H189.762V11.8133H199.152V13.7521H191.959V17.7049H198.189V19.5385H191.959V23.7919H199.333V25.7457ZM195.42 10.3855L194.006 9.9496L195.134 7.80037H197.196L195.435 10.3855H195.42Z" fill="white"/>
<path d="M205.517 25.7457V11.8133H211.596C212.198 11.8133 212.785 11.9485 213.327 12.204C213.868 12.4595 214.335 12.8052 214.711 13.2411C215.087 13.6619 215.373 14.1579 215.599 14.699C215.81 15.24 215.93 15.7961 215.93 16.3522C215.93 17.2991 215.674 18.1558 215.178 18.9223C214.681 19.6888 214.019 20.1998 213.206 20.4553L216.487 25.7608H214.019L210.994 20.9062H207.759V25.7608H205.562L205.517 25.7457ZM207.714 18.9523H211.566C212.168 18.9523 212.68 18.6968 213.071 18.1858C213.462 17.6748 213.673 17.0586 213.673 16.3372C213.673 15.6158 213.447 15.0146 212.996 14.5186C212.544 14.0076 212.033 13.7521 211.446 13.7521H207.714V18.9523Z" fill="white"/>
<path d="M222.415 25.7457V11.8133H224.612V25.7457H222.415Z" fill="white"/>
<path d="M230.812 18.787C230.812 17.8702 230.977 16.9835 231.323 16.1268C231.669 15.2701 232.136 14.5186 232.723 13.8723C233.31 13.2261 234.017 12.715 234.859 12.3243C235.702 11.9335 236.59 11.7381 237.523 11.7381C238.456 11.7381 239.389 11.9485 240.231 12.3543C241.074 12.7601 241.781 13.3012 242.353 13.9625C242.925 14.6238 243.361 15.3903 243.692 16.232C244.023 17.0736 244.189 17.9454 244.189 18.8171C244.189 19.7339 244.023 20.6206 243.677 21.4773C243.331 22.334 242.88 23.0855 242.293 23.7318C241.706 24.378 240.999 24.889 240.156 25.2798C239.314 25.6706 238.426 25.866 237.493 25.866C236.71 25.866 235.973 25.7307 235.266 25.4752C234.559 25.2197 233.942 24.859 233.415 24.4081C232.873 23.9572 232.422 23.4312 232.031 22.83C231.639 22.2438 231.338 21.5975 231.128 20.9062C230.917 20.2148 230.827 19.5084 230.827 18.802L230.812 18.787ZM237.508 23.852C238.185 23.852 238.802 23.7017 239.374 23.4161C239.945 23.1155 240.412 22.7398 240.773 22.2589C241.134 21.7779 241.42 21.2368 241.616 20.6357C241.811 20.0345 241.917 19.4183 241.917 18.787C241.917 18.1558 241.811 17.4945 241.601 16.8933C241.39 16.2771 241.089 15.736 240.713 15.2701C240.337 14.8042 239.87 14.4284 239.314 14.1429C238.757 13.8573 238.155 13.722 237.493 13.722C236.831 13.722 236.184 13.8723 235.612 14.1579C235.04 14.4435 234.574 14.8342 234.197 15.3152C233.821 15.7961 233.535 16.3372 233.34 16.9384C233.129 17.5396 233.039 18.1558 233.039 18.787C233.039 19.6738 233.219 20.4854 233.565 21.2519C233.927 22.0184 234.438 22.6496 235.13 23.1306C235.823 23.6115 236.605 23.852 237.493 23.852H237.508Z" fill="white"/>
<path d="M259.161 25.7457V11.8133H264.112C265.21 11.8133 266.188 11.9936 267.061 12.3543C267.934 12.715 268.641 13.211 269.198 13.8423C269.754 14.4735 270.176 15.21 270.462 16.0516C270.747 16.8783 270.898 17.7951 270.898 18.757C270.898 20.8611 270.281 22.5594 269.047 23.837C267.813 25.1145 266.158 25.7457 264.097 25.7457H259.146H259.161ZM264.112 13.7671H261.358V23.8069H264.112C265.075 23.8069 265.902 23.5815 266.594 23.1456C267.287 22.7097 267.813 22.1086 268.159 21.342C268.505 20.5906 268.671 19.7339 268.671 18.772C268.671 17.2841 268.265 16.0817 267.452 15.1498C266.64 14.233 265.526 13.7671 264.112 13.7671Z" fill="white"/>
<path d="M276.27 18.787C276.27 17.8702 276.435 16.9835 276.782 16.1268C277.128 15.2701 277.594 14.5186 278.181 13.8723C278.768 13.2261 279.475 12.715 280.318 12.3243C281.16 11.9335 282.048 11.7381 282.981 11.7381C283.914 11.7381 284.847 11.9485 285.69 12.3543C286.532 12.7601 287.239 13.3012 287.811 13.9625C288.383 14.6238 288.819 15.3903 289.15 16.232C289.481 17.0736 289.647 17.9454 289.647 18.8171C289.647 19.7339 289.482 20.6206 289.135 21.4773C288.789 22.334 288.338 23.0855 287.751 23.7318C287.164 24.378 286.457 24.889 285.614 25.2798C284.772 25.6706 283.884 25.866 282.951 25.866C282.168 25.866 281.431 25.7307 280.724 25.4752C280.017 25.2197 279.4 24.859 278.873 24.4081C278.331 23.9572 277.88 23.4312 277.489 22.83C277.098 22.2438 276.797 21.5975 276.586 20.9062C276.375 20.2148 276.285 19.5084 276.285 18.802L276.27 18.787ZM282.966 23.852C283.643 23.852 284.26 23.7017 284.832 23.4161C285.404 23.1155 285.87 22.7398 286.231 22.2589C286.592 21.7779 286.878 21.2368 287.074 20.6357C287.27 20.0345 287.375 19.4183 287.375 18.787C287.375 18.1558 287.269 17.4945 287.059 16.8933C286.848 16.2771 286.547 15.736 286.171 15.2701C285.795 14.8042 285.328 14.4284 284.772 14.1429C284.215 13.8573 283.613 13.722 282.951 13.722C282.289 13.722 281.642 13.8723 281.07 14.1579C280.498 14.4435 280.032 14.8342 279.656 15.3152C279.279 15.7961 278.993 16.3372 278.798 16.9384C278.587 17.5396 278.497 18.1558 278.497 18.787C278.497 19.6738 278.677 20.4854 279.024 21.2519C279.385 22.0184 279.896 22.6496 280.588 23.1306C281.281 23.6115 282.063 23.852 282.951 23.852H282.966Z" fill="white"/>
<path d="M37.7839 39.4527H43.1107C44.2242 39.4527 45.2324 39.6331 46.1353 39.9938C47.0381 40.3545 47.7604 40.8505 48.3322 41.4817C48.904 42.113 49.3403 42.8344 49.6413 43.676C49.9422 44.5027 50.0927 45.4045 50.0927 46.3663C50.0927 48.4555 49.4607 50.1388 48.1816 51.4013C46.9026 52.6638 45.2173 53.295 43.1107 53.295H37.7839V39.4527ZM43.1107 42.7743H41.591V49.9885H43.1107C44.0737 49.9885 44.8412 49.6578 45.3979 48.9815C45.9547 48.3052 46.2255 47.4334 46.2255 46.3663C46.2255 45.2992 45.9396 44.4125 45.3829 43.7662C44.8261 43.12 44.0587 42.7893 43.0957 42.7893L43.1107 42.7743Z" fill="white"/>
<path d="M65.5012 49.9735V53.28H55.6452V39.4527H65.3357V42.7592H59.4371V44.7131H64.478V47.7791H59.4371V49.9735H65.5012Z" fill="white"/>
<path d="M79.5555 43.9766C79.5555 43.9766 79.42 43.9015 79.3298 43.8414C79.2395 43.7813 79.0439 43.6911 78.7429 43.5408C78.457 43.3905 78.1711 43.2702 77.8852 43.15C77.5993 43.0448 77.2833 42.9396 76.9071 42.8494C76.531 42.7592 76.1999 42.7142 75.8839 42.7142C75.1466 42.7142 74.7704 42.9396 74.7704 43.4055C74.7704 43.5107 74.7855 43.6009 74.8156 43.676C74.8457 43.7512 74.9059 43.8414 74.9961 43.9015C75.0864 43.9766 75.1767 44.0368 75.2519 44.0818C75.3422 44.1269 75.4626 44.1871 75.6431 44.2472C75.8237 44.3073 75.9742 44.3674 76.0946 44.3975C76.2149 44.4426 76.4106 44.4876 76.6814 44.5778C76.9372 44.653 77.1479 44.7281 77.3134 44.7732C77.8702 44.9385 78.3517 45.1189 78.7429 45.2842C79.1341 45.4495 79.5103 45.6449 79.8865 45.8854C80.2627 46.1259 80.5486 46.3814 80.7743 46.6669C81 46.9525 81.1655 47.2982 81.301 47.704C81.4364 48.1098 81.4966 48.5607 81.4966 49.0717C81.4966 49.7179 81.3913 50.2891 81.1956 50.8001C80.985 51.3111 80.7291 51.7319 80.3831 52.0626C80.052 52.3932 79.6457 52.6638 79.1943 52.8742C78.7429 53.0846 78.2614 53.2349 77.7648 53.3251C77.2833 53.4152 76.7717 53.4603 76.23 53.4603C75.2369 53.4603 74.1836 53.31 73.1002 53.0245C72.0017 52.7239 71.0537 52.3331 70.2111 51.8522L71.8512 48.5306C71.8512 48.5306 72.0017 48.6358 72.107 48.6959C72.2124 48.7561 72.4531 48.8763 72.7992 49.0566C73.1453 49.237 73.4914 49.3873 73.8224 49.5226C74.1535 49.6578 74.5597 49.7781 75.0111 49.8833C75.4776 49.9885 75.899 50.0486 76.2902 50.0486C77.0275 50.0486 77.3886 49.8382 77.3886 49.4324C77.3886 49.2821 77.3435 49.1468 77.2382 49.0266C77.1479 48.9063 76.9823 48.8011 76.7566 48.711C76.5309 48.6058 76.3203 48.5306 76.1096 48.4555C75.899 48.3953 75.6131 48.3052 75.2369 48.1849C74.8607 48.0797 74.5447 47.9745 74.3039 47.8994C73.055 47.4785 72.1672 46.9826 71.6104 46.3964C71.0687 45.8103 70.7828 45.0137 70.7828 44.0217C70.7828 43.2853 70.9183 42.6089 71.2042 42.0078C71.4901 41.4066 71.8663 40.9106 72.3478 40.5349C72.8293 40.1591 73.371 39.8585 73.9879 39.6631C74.6049 39.4678 75.2519 39.3625 75.9441 39.3625C77.4188 39.3625 79.1492 39.8585 81.1354 40.8505L79.4953 43.9917L79.5555 43.9766Z" fill="white"/>
<path d="M96.9502 49.9735V53.28H87.0942V39.4527H96.7847V42.7592H90.8861V44.7131H95.927V47.7791H90.8861V49.9735H96.9502Z" fill="white"/>
<path d="M106.415 46.4866V53.28H102.623V39.4527H105.587L111.14 46.4716V39.4527H114.932V53.28H111.907L106.4 46.4866H106.415Z" fill="white"/>
<path d="M123.885 39.4678L126.594 48.9064L129.272 39.4678H133.275L128.505 53.295H124.728L119.897 39.4678H123.915H123.885Z" fill="white"/>
<path d="M136.901 46.3513C136.901 45.4495 137.082 44.5628 137.428 43.7211C137.789 42.8795 138.27 42.128 138.887 41.4967C139.504 40.8505 140.257 40.3395 141.144 39.9637C142.032 39.588 142.98 39.3926 143.973 39.3926C144.966 39.3926 145.944 39.588 146.832 39.9938C147.72 40.3996 148.457 40.9256 149.059 41.5869C149.661 42.2482 150.113 42.9997 150.459 43.8414C150.805 44.683 150.97 45.5397 150.97 46.4265C150.97 47.3132 150.79 48.2 150.444 49.0416C150.098 49.8833 149.616 50.6348 148.999 51.266C148.382 51.8972 147.63 52.4233 146.742 52.814C145.854 53.2048 144.906 53.4002 143.913 53.4002C142.92 53.4002 141.942 53.2048 141.069 52.799C140.181 52.3932 139.444 51.8672 138.842 51.2059C138.24 50.5446 137.774 49.7931 137.428 48.9514C137.082 48.1098 136.916 47.2381 136.916 46.3513H136.901ZM143.943 50.0336C144.47 50.0336 144.936 49.9284 145.358 49.718C145.779 49.5075 146.11 49.222 146.351 48.8613C146.607 48.5006 146.787 48.1098 146.908 47.689C147.028 47.2681 147.103 46.8172 147.103 46.3513C147.103 45.705 146.983 45.1189 146.772 44.5778C146.546 44.0518 146.185 43.6009 145.704 43.2552C145.207 42.9095 144.62 42.7442 143.943 42.7442C143.417 42.7442 142.95 42.8494 142.529 43.0598C142.122 43.2702 141.791 43.5558 141.536 43.9015C141.295 44.2472 141.099 44.6379 140.979 45.0588C140.859 45.4796 140.783 45.9305 140.783 46.3814C140.783 46.8323 140.843 47.3132 140.979 47.734C141.114 48.1549 141.295 48.5456 141.551 48.8913C141.807 49.237 142.138 49.5075 142.544 49.718C142.95 49.9284 143.417 50.0185 143.943 50.0185V50.0336Z" fill="white"/>
<path d="M156.478 53.28V39.4527H160.27V49.9735H166.559V53.28H156.478Z" fill="white"/>
<path d="M172.834 39.4678L175.543 48.9064L178.221 39.4678H182.224L177.454 53.295H173.677L168.847 39.4678H172.864H172.834Z" fill="white"/>
<path d="M187.159 53.28V39.4527H190.951V53.28H187.159Z" fill="white"/>
<path d="M207.699 53.28V45.9906L205.382 51.1157H203.35L201.033 45.9906V53.28H197.241V39.4527H201.394L204.373 45.9605L207.383 39.4527H211.521V53.28H207.699Z" fill="white"/>
<path d="M227.607 49.9735V53.28H217.751V39.4527H227.441V42.7592H221.543V44.7131H226.583V47.7791H221.543V49.9735H227.607Z" fill="white"/>
<path d="M237.071 46.4866V53.28H233.28V39.4527H236.244L241.796 46.4716V39.4527H245.588V53.28H242.564L237.056 46.4866H237.071Z" fill="white"/>
<path d="M262.652 42.7743H258.68V53.295H254.873V42.7743H250.87V39.4678H262.637V42.7743H262.652Z" fill="white"/>
<path d="M266.925 46.3513C266.925 45.4495 267.106 44.5628 267.452 43.7211C267.813 42.8795 268.295 42.128 268.912 41.4967C269.529 40.8505 270.281 40.3395 271.169 39.9637C272.057 39.588 273.005 39.3926 273.998 39.3926C274.991 39.3926 275.969 39.588 276.857 39.9938C277.745 40.3996 278.482 40.9256 279.084 41.5869C279.686 42.2482 280.137 42.9997 280.483 43.8414C280.829 44.683 280.995 45.5397 280.995 46.4265C280.995 47.3132 280.814 48.2 280.468 49.0416C280.122 49.8833 279.64 50.6348 279.024 51.266C278.407 51.8972 277.654 52.4233 276.766 52.814C275.879 53.2048 274.931 53.4002 273.938 53.4002C272.944 53.4002 271.966 53.2048 271.094 52.799C270.206 52.3932 269.468 51.8672 268.867 51.2059C268.265 50.5446 267.798 49.7931 267.452 48.9514C267.106 48.1098 266.94 47.2381 266.94 46.3513H266.925ZM273.968 50.0336C274.494 50.0336 274.961 49.9284 275.382 49.718C275.803 49.5075 276.134 49.222 276.375 48.8613C276.631 48.5006 276.812 48.1098 276.932 47.689C277.052 47.2681 277.128 46.8172 277.128 46.3513C277.128 45.705 277.007 45.1189 276.797 44.5778C276.571 44.0518 276.21 43.6009 275.728 43.2552C275.232 42.9095 274.645 42.7442 273.968 42.7442C273.441 42.7442 272.974 42.8494 272.553 43.0598C272.147 43.2702 271.816 43.5558 271.56 43.9015C271.319 44.2472 271.124 44.6379 271.003 45.0588C270.883 45.4796 270.808 45.9305 270.808 46.3814C270.808 46.8323 270.868 47.3132 271.003 47.734C271.139 48.1549 271.319 48.5456 271.575 48.8913C271.831 49.237 272.162 49.5075 272.568 49.718C272.974 49.9284 273.441 50.0185 273.968 50.0185V50.0336Z" fill="white"/>
<path d="M286.683 56.346L287.39 53.28H286.276V49.7029H289.346V53.28L288.293 56.346H286.683Z" fill="white"/>
<path d="M0 81.1148V67.1824H3.82198V81.1148H0Z" fill="white"/>
<path d="M13.979 74.2613V81.1148H10.157V67.1824H13.1363L18.734 74.2613V67.1824H22.556V81.1148H19.5164L13.979 74.2613Z" fill="white"/>
<path d="M28.8909 81.1148V67.1824H34.2478C35.3763 67.1824 36.3846 67.3627 37.2874 67.7234C38.1902 68.0841 38.9276 68.5801 39.4994 69.2114C40.0712 69.8426 40.5075 70.579 40.8085 71.4207C41.1094 72.2624 41.2599 73.1491 41.2599 74.126C41.2599 76.2302 40.6129 77.9285 39.3339 79.206C38.0548 80.4836 36.3544 81.1148 34.2328 81.1148H28.8759H28.8909ZM34.2629 70.5189H32.728V77.7782H34.2629C35.2409 77.7782 36.0084 77.4476 36.5651 76.7713C37.1219 76.0949 37.4078 75.2082 37.4078 74.1411C37.4078 73.074 37.1219 72.1722 36.5651 71.5109C36.0084 70.8496 35.2409 70.5189 34.2629 70.5189Z" fill="white"/>
<path d="M52.9818 81.22C52.1091 81.22 51.3266 81.0998 50.6194 80.8593C49.9122 80.6188 49.3102 80.2882 48.8287 79.8673C48.3472 79.4465 47.9409 78.9355 47.6099 78.3494C47.2788 77.7632 47.0531 77.132 46.9027 76.4707C46.7522 75.8094 46.6769 75.0879 46.6769 74.3365V67.1824H50.514V74.3365C50.514 74.8174 50.5592 75.2533 50.6495 75.6741C50.7398 76.0799 50.8902 76.4556 51.0708 76.7863C51.2514 77.1169 51.5072 77.3724 51.8382 77.5678C52.1542 77.7632 52.5304 77.8534 52.9668 77.8534C53.4031 77.8534 53.7793 77.7632 54.1103 77.5678C54.4414 77.3724 54.6972 77.1169 54.8778 76.7713C55.0583 76.4406 55.2088 76.0648 55.2991 75.6591C55.3894 75.2533 55.4345 74.8174 55.4345 74.3515V67.1974H59.2566V74.3515C59.2566 75.3434 59.1362 76.2452 58.8804 77.0718C58.6246 77.8985 58.2484 78.6199 57.7518 79.2511C57.2553 79.8824 56.5931 80.3633 55.7806 80.709C54.968 81.0547 54.0351 81.235 52.9818 81.235V81.22ZM54.1555 66.5812L51.7931 65.9499L52.7712 63.1694H56.0966L54.1555 66.5812Z" fill="white"/>
<path d="M73.8525 71.7363C73.8525 71.7363 73.7171 71.6612 73.6268 71.6011C73.5365 71.5409 73.3409 71.4357 73.04 71.3005C72.739 71.1502 72.4531 71.0299 72.1822 70.9097C71.8963 70.8045 71.5803 70.6993 71.2042 70.6091C70.828 70.5189 70.4819 70.4738 70.1659 70.4738C69.4135 70.4738 69.0373 70.6993 69.0373 71.1652C69.0373 71.2704 69.0524 71.3606 69.0976 71.4357C69.1427 71.5109 69.1878 71.6011 69.2781 71.6612C69.3684 71.7363 69.4587 71.7964 69.5339 71.8415C69.6242 71.8866 69.7596 71.9467 69.9251 72.0069C70.1057 72.067 70.2562 72.1271 70.3916 72.1572C70.512 72.2022 70.7076 72.2473 70.9784 72.3375C71.2342 72.4127 71.46 72.4878 71.6255 72.5329C72.1822 72.7133 72.6638 72.8786 73.055 73.0439C73.4462 73.2092 73.8375 73.4196 74.1986 73.6451C74.5748 73.8856 74.8607 74.1411 75.0864 74.4417C75.3121 74.7423 75.4927 75.0729 75.6131 75.4787C75.7485 75.8845 75.8087 76.3504 75.8087 76.8614C75.8087 77.5077 75.7034 78.0938 75.5077 78.6049C75.2971 79.1159 75.0262 79.5517 74.6952 79.8673C74.3641 80.198 73.9579 80.4685 73.4914 80.6789C73.0249 80.8894 72.5434 81.0547 72.0619 81.1449C71.5803 81.235 71.0537 81.2801 70.512 81.2801C69.5038 81.2801 68.4505 81.1298 67.352 80.8292C66.2536 80.5286 65.2755 80.1379 64.4479 79.6419L66.1031 76.2903C66.1031 76.2903 66.2536 76.3955 66.3589 76.4556C66.4793 76.5157 66.705 76.636 67.0511 76.8163C67.3972 76.9967 67.7433 77.147 68.0894 77.2822C68.4355 77.4175 68.8267 77.5378 69.2932 77.658C69.7596 77.7782 70.1809 77.8233 70.5872 77.8233C71.3245 77.8233 71.7007 77.6129 71.7007 77.2071C71.7007 77.0568 71.6556 76.9215 71.5503 76.8013C71.46 76.6811 71.2945 76.5759 71.0687 76.4707C70.843 76.3654 70.6324 76.2903 70.4217 76.2151C70.2111 76.155 69.9252 76.0648 69.5339 75.9446C69.1427 75.8244 68.8418 75.7342 68.586 75.6591C67.337 75.2382 66.4341 74.7272 65.8774 74.1411C65.3206 73.5549 65.0498 72.7583 65.0498 71.7514C65.0498 70.9999 65.1852 70.3235 65.4711 69.7224C65.757 69.1212 66.1332 68.6252 66.6147 68.2344C67.0962 67.8587 67.653 67.5581 68.2699 67.3477C68.8869 67.1373 69.5489 67.0471 70.2411 67.0471C71.7308 67.0471 73.4763 67.5431 75.4626 68.5501L73.8074 71.7063L73.8525 71.7363Z" fill="white"/>
<path d="M92.3006 70.5189H88.298V81.1148H84.4609V70.5189H80.4282V67.1824H92.2856V70.5189H92.3006Z" fill="white"/>
<path d="M97.5973 81.1148V67.1824H104.007C104.67 67.1824 105.287 67.3176 105.888 67.6032C106.49 67.8887 106.987 68.2495 107.393 68.7003C107.799 69.1512 108.115 69.6773 108.356 70.2484C108.597 70.8195 108.717 71.4057 108.717 72.0069C108.717 72.8185 108.537 73.5699 108.191 74.2613C107.83 74.9677 107.348 75.5388 106.716 75.9747L109.665 81.0998H105.467L103.014 76.8314H101.464V81.0998H97.6424L97.5973 81.1148ZM101.434 73.4948H103.857C104.113 73.4948 104.324 73.3595 104.534 73.089C104.745 72.8185 104.835 72.4577 104.835 72.0069C104.835 71.556 104.73 71.1953 104.504 70.9247C104.278 70.6542 104.038 70.5189 103.782 70.5189H101.464V73.4948H101.434Z" fill="white"/>
<path d="M114.781 81.1148V67.1824H118.603V81.1148H114.781Z" fill="white"/>
<path d="M128.159 67.1824H132.432L136.871 81.1148H132.989L132.146 78.3794H128.429L127.602 81.1148H123.704L128.159 67.1824ZM131.544 75.8244L130.31 70.9247L129.016 75.8244H131.544Z" fill="white"/>
<path d="M142.168 84.1959L142.875 81.1148H141.746V77.5077H144.831V81.1148L143.763 84.1959H142.153H142.168Z" fill="white"/>
<path d="M165.642 67.1072C166.951 67.1072 168.109 67.3777 169.117 67.9338C170.126 68.4899 170.878 69.2264 171.36 70.1432L168.44 72.2173C168.32 71.8866 168.139 71.6161 167.929 71.3756C167.718 71.1351 167.462 70.9698 167.206 70.8346C166.936 70.7143 166.665 70.6241 166.409 70.564C166.138 70.5039 165.867 70.4889 165.596 70.4889C165.07 70.4889 164.603 70.5941 164.182 70.8045C163.761 71.0149 163.43 71.3005 163.189 71.6612C162.948 72.0219 162.752 72.3976 162.632 72.8185C162.512 73.2393 162.436 73.6752 162.436 74.126C162.436 75.148 162.722 76.0047 163.309 76.7262C163.896 77.4476 164.663 77.8083 165.627 77.8083C166.003 77.8083 166.364 77.7482 166.71 77.643C167.056 77.5378 167.387 77.3574 167.703 77.0869C168.019 76.8163 168.245 76.4857 168.395 76.0949L171.525 77.9586C171.269 78.6199 170.803 79.191 170.141 79.702C169.479 80.213 168.756 80.5888 167.959 80.8292C167.161 81.0697 166.349 81.205 165.536 81.205C164.543 81.205 163.595 80.9946 162.707 80.5888C161.819 80.183 161.082 79.6269 160.465 78.9505C159.848 78.2742 159.382 77.5077 159.036 76.636C158.69 75.7643 158.509 74.8926 158.509 74.0058C158.509 73.1191 158.675 72.3075 159.006 71.4959C159.337 70.6843 159.788 69.9328 160.39 69.2715C160.977 68.6102 161.729 68.0841 162.647 67.6783C163.565 67.2725 164.558 67.0771 165.642 67.0771V67.1072Z" fill="white"/>
<path d="M175.783 74.126C175.783 73.2092 175.964 72.3225 176.325 71.4808C176.686 70.6241 177.168 69.8727 177.8 69.2264C178.417 68.5801 179.184 68.0691 180.072 67.6783C180.96 67.2876 181.908 67.0922 182.931 67.0922C183.954 67.0922 184.917 67.2876 185.805 67.7084C186.693 68.1142 187.445 68.6553 188.047 69.3166C188.649 69.9779 189.115 70.7444 189.462 71.586C189.808 72.4427 189.973 73.2994 189.973 74.1862C189.973 75.0729 189.793 75.9747 189.447 76.8163C189.085 77.673 188.604 78.4095 187.987 79.0558C187.37 79.702 186.618 80.2281 185.715 80.6188C184.827 81.0096 183.864 81.205 182.856 81.205C181.848 81.205 180.869 81.0096 179.982 80.6038C179.094 80.198 178.342 79.672 177.74 79.0107C177.138 78.3494 176.671 77.5828 176.325 76.7412C175.979 75.8995 175.814 75.0128 175.814 74.126H175.783ZM182.871 77.8384C183.397 77.8384 183.879 77.7331 184.3 77.5227C184.722 77.3123 185.053 77.0267 185.308 76.666C185.564 76.3053 185.745 75.9146 185.88 75.4937C186.016 75.0729 186.076 74.622 186.076 74.1411C186.076 73.4948 185.955 72.8936 185.73 72.3525C185.504 71.8115 185.143 71.3756 184.646 71.0299C184.15 70.6843 183.563 70.5039 182.871 70.5039C182.344 70.5039 181.863 70.6091 181.456 70.8195C181.035 71.0299 180.704 71.3155 180.463 71.6612C180.207 72.0069 180.027 72.3976 179.891 72.8335C179.771 73.2543 179.696 73.7052 179.696 74.1711C179.696 74.637 179.756 75.103 179.891 75.5388C180.027 75.9747 180.207 76.3654 180.478 76.7111C180.734 77.0568 181.065 77.3424 181.486 77.5378C181.908 77.7331 182.374 77.8384 182.901 77.8384H182.871Z" fill="white"/>
<path d="M206.059 81.1148V73.7804L203.711 78.9505H201.665L199.318 73.7804V81.1148H195.496V67.1824H199.679L202.688 73.7353L205.713 67.1824H209.881V81.1148H206.059Z" fill="white"/>
<path d="M226.132 77.7782V81.1148H216.201V67.1824H225.966V70.5189H220.023V72.4878H225.094V75.5839H220.023V77.7933H226.132V77.7782ZM222.385 66.5812L220.023 65.9499L221.016 63.1694H224.341L222.4 66.5812H222.385Z" fill="white"/>
<path d="M231.85 81.1148V67.1824H238.26C238.922 67.1824 239.539 67.3176 240.141 67.6032C240.743 67.8887 241.24 68.2495 241.646 68.7003C242.052 69.1512 242.368 69.6773 242.609 70.2484C242.85 70.8195 242.97 71.4057 242.97 72.0069C242.97 72.8185 242.789 73.5699 242.443 74.2613C242.082 74.9677 241.601 75.5388 240.969 75.9747L243.918 81.0998H239.72L237.267 76.8314H235.717V81.0998H231.895L231.85 81.1148ZM235.672 73.4948H238.095C238.351 73.4948 238.561 73.3595 238.772 73.089C238.982 72.8185 239.073 72.4577 239.073 72.0069C239.073 71.556 238.967 71.1953 238.742 70.9247C238.516 70.6542 238.275 70.5189 238.019 70.5189H235.702V73.4948H235.672Z" fill="white"/>
<path d="M255.219 67.1072C256.528 67.1072 257.686 67.3777 258.694 67.9338C259.703 68.4899 260.455 69.2264 260.937 70.1432L258.017 72.2173C257.897 71.8866 257.716 71.6161 257.506 71.3756C257.295 71.1351 257.039 70.9698 256.784 70.8346C256.513 70.7143 256.242 70.6241 255.986 70.564C255.715 70.5039 255.444 70.4889 255.173 70.4889C254.647 70.4889 254.18 70.5941 253.759 70.8045C253.338 71.0149 253.007 71.3005 252.766 71.6612C252.525 72.0219 252.33 72.3976 252.209 72.8185C252.089 73.2393 252.014 73.6752 252.014 74.126C252.014 75.148 252.299 76.0047 252.886 76.7262C253.473 77.4476 254.241 77.8083 255.204 77.8083C255.58 77.8083 255.941 77.7482 256.287 77.643C256.633 77.5378 256.964 77.3574 257.28 77.0869C257.596 76.8163 257.822 76.4857 257.972 76.0949L261.102 77.9586C260.846 78.6199 260.38 79.191 259.718 79.702C259.056 80.213 258.333 80.5888 257.536 80.8292C256.738 81.0697 255.926 81.205 255.113 81.205C254.12 81.205 253.172 80.9946 252.284 80.5888C251.397 80.183 250.659 79.6269 250.042 78.9505C249.425 78.2742 248.959 77.5077 248.613 76.636C248.267 75.7643 248.086 74.8926 248.086 74.0058C248.086 73.1191 248.252 72.3075 248.583 71.4959C248.914 70.6843 249.365 69.9328 249.967 69.2715C250.554 68.6102 251.306 68.0841 252.224 67.6783C253.142 67.2725 254.135 67.0771 255.219 67.0771V67.1072Z" fill="white"/>
<path d="M266.354 81.1148V67.1824H270.176V81.1148H266.354Z" fill="white"/>
<path d="M275.743 74.126C275.743 73.2092 275.924 72.3225 276.285 71.4808C276.646 70.6241 277.128 69.8727 277.76 69.2264C278.377 68.5801 279.144 68.0691 280.032 67.6783C280.92 67.2876 281.868 67.0922 282.891 67.0922C283.914 67.0922 284.877 67.2876 285.765 67.7084C286.653 68.1142 287.405 68.6553 288.007 69.3166C288.609 69.9779 289.075 70.7444 289.421 71.586C289.767 72.4427 289.933 73.2994 289.933 74.1862C289.933 75.0729 289.752 75.9747 289.406 76.8163C289.045 77.673 288.564 78.4095 287.947 79.0558C287.33 79.702 286.577 80.2281 285.675 80.6188C284.787 81.0096 283.824 81.205 282.815 81.205C281.807 81.205 280.829 81.0096 279.941 80.6038C279.054 80.198 278.301 79.672 277.699 79.0107C277.097 78.3494 276.631 77.5828 276.285 76.7412C275.939 75.8995 275.773 75.0128 275.773 74.126H275.743ZM282.831 77.8384C283.357 77.8384 283.839 77.7331 284.26 77.5227C284.681 77.3123 285.012 77.0267 285.268 76.666C285.524 76.3053 285.705 75.9146 285.84 75.4937C285.975 75.0729 286.036 74.622 286.036 74.1411C286.036 73.4948 285.915 72.8936 285.69 72.3525C285.464 71.8115 285.103 71.3756 284.606 71.0299C284.11 70.6843 283.523 70.5039 282.831 70.5039C282.304 70.5039 281.822 70.6091 281.416 70.8195C280.995 71.0299 280.664 71.3155 280.423 71.6612C280.167 72.0069 279.987 72.3976 279.851 72.8335C279.731 73.2543 279.656 73.7052 279.656 74.1711C279.656 74.637 279.716 75.103 279.851 75.5388C279.987 75.9747 280.167 76.3654 280.438 76.7111C280.694 77.0568 281.025 77.3424 281.446 77.5378C281.868 77.7331 282.334 77.8384 282.861 77.8384H282.831Z" fill="white"/>
<path d="M152.641 105.493V108.829H142.709V94.897H152.475V98.2335H146.531V100.202H151.602V103.299H146.531V105.508H152.641V105.493Z" fill="white"/>
<path d="M175.151 99.4509C175.151 99.4509 175.016 99.3758 174.926 99.3157C174.836 99.2555 174.64 99.1503 174.339 99.0151C174.038 98.8648 173.752 98.7445 173.481 98.6243C173.195 98.5191 172.879 98.4139 172.503 98.3237C172.127 98.2335 171.781 98.1884 171.465 98.1884C170.712 98.1884 170.336 98.4139 170.336 98.8798C170.336 98.985 170.351 99.0752 170.397 99.1503C170.442 99.2255 170.487 99.3157 170.577 99.3758C170.667 99.4509 170.758 99.511 170.833 99.5561C170.923 99.6012 171.059 99.6613 171.224 99.7215C171.405 99.7816 171.555 99.8417 171.691 99.8717C171.811 99.9168 172.007 99.9619 172.277 100.052C172.533 100.127 172.759 100.202 172.924 100.247C173.481 100.428 173.963 100.593 174.354 100.759C174.745 100.924 175.136 101.134 175.498 101.36C175.874 101.6 176.16 101.856 176.385 102.156C176.611 102.457 176.792 102.788 176.912 103.193C177.047 103.599 177.108 104.065 177.108 104.576C177.108 105.222 177.002 105.808 176.807 106.319C176.596 106.83 176.325 107.266 175.994 107.582C175.663 107.913 175.257 108.183 174.79 108.394C174.324 108.604 173.842 108.769 173.361 108.859C172.879 108.95 172.353 108.995 171.811 108.995C170.803 108.995 169.749 108.844 168.651 108.544C167.553 108.243 166.574 107.852 165.747 107.356L167.402 104.005C167.402 104.005 167.553 104.11 167.658 104.17C167.778 104.23 168.004 104.351 168.35 104.531C168.696 104.711 169.042 104.862 169.388 104.997C169.734 105.132 170.126 105.252 170.592 105.373C171.059 105.493 171.48 105.538 171.886 105.538C172.624 105.538 173 105.327 173 104.922C173 104.771 172.955 104.636 172.849 104.516C172.759 104.396 172.593 104.29 172.368 104.185C172.142 104.08 171.931 104.005 171.721 103.93C171.51 103.87 171.224 103.779 170.833 103.659C170.442 103.539 170.141 103.449 169.885 103.374C168.636 102.953 167.733 102.442 167.176 101.856C166.62 101.27 166.349 100.473 166.349 99.466C166.349 98.7145 166.484 98.0381 166.77 97.437C167.056 96.8358 167.432 96.3398 167.914 95.949C168.395 95.5733 168.952 95.2727 169.569 95.0623C170.186 94.8519 170.848 94.7617 171.54 94.7617C173.03 94.7617 174.775 95.2577 176.762 96.2647L175.106 99.4209L175.151 99.4509Z" fill="white"/>
<path d="M192.682 105.493V108.829H182.75V94.897H192.516V98.2335H186.572V100.202H191.643V103.299H186.572V105.508H192.682V105.493Z" fill="white"/>
<path d="M198.385 108.829V94.897H204.795C205.457 94.897 206.074 95.0322 206.676 95.3178C207.278 95.6033 207.774 95.9641 208.181 96.415C208.587 96.8658 208.903 97.3919 209.144 97.963C209.384 98.5341 209.505 99.1203 209.505 99.7215C209.505 100.533 209.324 101.285 208.978 101.976C208.617 102.682 208.135 103.253 207.503 103.689L210.453 108.814H206.254L203.802 104.546H202.252V108.814H198.43L198.385 108.829ZM202.222 101.209H204.644C204.9 101.209 205.111 101.074 205.321 100.804C205.532 100.533 205.622 100.172 205.622 99.7215C205.622 99.2706 205.517 98.9099 205.291 98.6393C205.066 98.3688 204.825 98.2335 204.569 98.2335H202.252V101.209H202.222Z" fill="white"/>
<path d="M217.721 94.897L220.444 104.411L223.138 94.897H227.17L222.355 108.829H218.548L213.673 94.897H217.721Z" fill="white"/>
<path d="M232.151 108.829V94.897H235.973V108.829H232.151Z" fill="white"/>
<path d="M254.526 105.703C254.18 106.53 253.563 107.221 252.661 107.777C251.758 108.333 250.765 108.694 249.666 108.859C250.298 109.491 250.629 110.182 250.629 110.919C250.629 111.55 250.419 112.076 250.012 112.497C249.606 112.932 249.019 113.143 248.237 113.143C247.454 113.143 246.642 112.917 245.814 112.467L246.672 110.558C246.958 110.813 247.274 110.934 247.605 110.934C247.845 110.934 248.041 110.858 248.191 110.723C248.342 110.588 248.417 110.392 248.417 110.167C248.417 109.761 248.161 109.34 247.665 108.874C246.762 108.769 245.934 108.484 245.152 108.033C244.369 107.582 243.722 107.026 243.196 106.38C242.669 105.733 242.248 104.997 241.947 104.185C241.646 103.374 241.495 102.562 241.495 101.735C241.495 100.909 241.661 100.037 241.992 99.2255C242.323 98.4139 242.774 97.6624 243.376 97.0011C243.963 96.3398 244.716 95.8138 245.633 95.408C246.551 95.0022 247.544 94.8068 248.628 94.8068C249.937 94.8068 251.096 95.0773 252.104 95.6334C253.112 96.1895 253.864 96.926 254.346 97.8428L251.427 99.9168C251.306 99.5862 251.126 99.3157 250.915 99.0752C250.704 98.8347 250.449 98.6694 250.193 98.5341C249.922 98.4139 249.651 98.3237 249.395 98.2636C249.124 98.2035 248.854 98.1884 248.583 98.1884C248.056 98.1884 247.59 98.2936 247.168 98.5041C246.747 98.7145 246.416 99 246.175 99.3607C245.934 99.7215 245.739 100.097 245.618 100.518C245.498 100.939 245.423 101.375 245.423 101.826C245.423 102.848 245.709 103.704 246.295 104.426C246.882 105.147 247.65 105.508 248.613 105.508C248.989 105.508 249.35 105.448 249.696 105.343C250.042 105.237 250.373 105.057 250.689 104.786C251.005 104.516 251.231 104.185 251.382 103.794L254.511 105.658L254.526 105.703Z" fill="white"/>
<path d="M258.8 101.841C258.8 100.924 258.98 100.037 259.342 99.1954C259.703 98.3387 260.184 97.5873 260.816 96.941C261.433 96.2947 262.201 95.7837 263.088 95.3929C263.976 95.0022 264.924 94.8068 265.947 94.8068C266.971 94.8068 267.934 95.0022 268.821 95.423C269.709 95.8288 270.462 96.3699 271.063 97.0312C271.665 97.6925 272.132 98.459 272.478 99.3006C272.824 100.157 272.989 101.014 272.989 101.901C272.989 102.788 272.809 103.689 272.463 104.531C272.102 105.388 271.62 106.124 271.003 106.77C270.386 107.417 269.634 107.943 268.731 108.333C267.843 108.724 266.88 108.92 265.872 108.92C264.864 108.92 263.886 108.724 262.998 108.318C262.11 107.913 261.358 107.387 260.756 106.725C260.154 106.064 259.688 105.297 259.342 104.456C258.995 103.614 258.83 102.727 258.83 101.841H258.8ZM265.887 105.553C266.414 105.553 266.895 105.448 267.317 105.237C267.738 105.027 268.069 104.741 268.325 104.381C268.581 104.02 268.761 103.629 268.897 103.208C269.032 102.787 269.092 102.337 269.092 101.856C269.092 101.209 268.972 100.608 268.746 100.067C268.52 99.5261 268.159 99.0902 267.663 98.7445C267.166 98.3989 266.579 98.2185 265.887 98.2185C265.361 98.2185 264.879 98.3237 264.473 98.5341C264.051 98.7445 263.72 99.0301 263.48 99.3758C263.224 99.7215 263.043 100.112 262.908 100.548C262.787 100.969 262.712 101.42 262.712 101.886C262.712 102.352 262.772 102.818 262.908 103.253C263.043 103.689 263.224 104.08 263.495 104.426C263.75 104.771 264.081 105.057 264.503 105.252C264.924 105.448 265.391 105.553 265.917 105.553H265.887Z" fill="white"/>
<path d="M286.848 99.4509C286.848 99.4509 286.713 99.3758 286.622 99.3157C286.532 99.2555 286.337 99.1503 286.036 99.0151C285.735 98.8648 285.449 98.7445 285.178 98.6243C284.892 98.5191 284.576 98.4139 284.2 98.3237C283.824 98.2335 283.478 98.1884 283.162 98.1884C282.409 98.1884 282.033 98.4139 282.033 98.8798C282.033 98.985 282.048 99.0752 282.093 99.1503C282.138 99.2255 282.183 99.3157 282.274 99.3758C282.364 99.4509 282.454 99.511 282.53 99.5561C282.62 99.6012 282.755 99.6613 282.921 99.7215C283.101 99.7816 283.252 99.8417 283.387 99.8717C283.508 99.9168 283.703 99.9619 283.974 100.052C284.23 100.127 284.456 100.202 284.621 100.247C285.178 100.428 285.659 100.593 286.051 100.759C286.442 100.924 286.833 101.134 287.194 101.36C287.57 101.6 287.856 101.856 288.082 102.156C288.308 102.457 288.488 102.788 288.609 103.193C288.744 103.599 288.804 104.065 288.804 104.576C288.804 105.222 288.699 105.808 288.503 106.319C288.293 106.83 288.022 107.266 287.691 107.582C287.36 107.913 286.953 108.183 286.487 108.394C286.021 108.604 285.539 108.769 285.058 108.859C284.576 108.95 284.049 108.995 283.508 108.995C282.5 108.995 281.446 108.844 280.348 108.544C279.249 108.243 278.271 107.852 277.444 107.356L279.099 104.005C279.099 104.005 279.249 104.11 279.355 104.17C279.475 104.23 279.701 104.351 280.047 104.531C280.393 104.711 280.739 104.862 281.085 104.997C281.431 105.132 281.822 105.252 282.289 105.373C282.755 105.493 283.177 105.538 283.583 105.538C284.32 105.538 284.696 105.327 284.696 104.922C284.696 104.771 284.651 104.636 284.546 104.516C284.456 104.396 284.29 104.29 284.064 104.185C283.839 104.08 283.628 104.005 283.417 103.93C283.207 103.87 282.921 103.779 282.53 103.659C282.138 103.539 281.837 103.449 281.582 103.374C280.333 102.953 279.43 102.442 278.873 101.856C278.316 101.27 278.045 100.473 278.045 99.466C278.045 98.7145 278.181 98.0381 278.467 97.437C278.753 96.8358 279.129 96.3398 279.61 95.949C280.092 95.5733 280.649 95.2727 281.266 95.0623C281.883 94.8519 282.545 94.7617 283.237 94.7617C284.727 94.7617 286.472 95.2577 288.458 96.2647L286.803 99.4209L286.848 99.4509Z" fill="white"/>
<path d="M367.698 118.629C367.081 118.629 366.524 118.539 366.043 118.358C365.546 118.178 365.14 117.937 364.824 117.622C364.493 117.321 364.237 116.945 364.011 116.525C363.801 116.089 363.635 115.638 363.545 115.172C363.454 114.706 363.409 114.195 363.409 113.669V108.634H364.989V113.669C364.989 114.045 365.019 114.405 365.064 114.736C365.125 115.067 365.215 115.397 365.35 115.698C365.486 116.014 365.651 116.269 365.847 116.495C366.043 116.72 366.298 116.885 366.614 117.021C366.93 117.156 367.292 117.216 367.683 117.216C368.074 117.216 368.45 117.156 368.766 117.021C369.082 116.885 369.338 116.705 369.549 116.479C369.744 116.254 369.91 115.983 370.045 115.683C370.181 115.367 370.271 115.052 370.316 114.721C370.361 114.39 370.391 114.045 370.391 113.669V108.634H371.971V113.669C371.971 114.36 371.896 115.007 371.731 115.593C371.565 116.179 371.324 116.705 370.978 117.171C370.647 117.637 370.196 117.997 369.624 118.253C369.067 118.508 368.405 118.644 367.668 118.644" fill="white"/>
<path d="M378.457 111.535V118.554H376.892V108.634H378.171L383.814 115.803V108.649H385.393V118.554H384.009L378.457 111.535Z" fill="white"/>
<path d="M391.984 108.634H390.419V118.569H391.984V108.634Z" fill="white"/>
<path d="M399.914 108.634H401.404L405.271 118.569H403.616L402.563 115.863H398.725L397.687 118.569H396.017L399.914 108.634ZM399.719 106.77C399.568 106.77 399.448 106.8 399.342 106.861C399.237 106.921 399.177 106.996 399.132 107.086C399.087 107.176 399.056 107.251 399.056 107.311C399.056 107.372 399.041 107.417 399.041 107.447H398.169C398.169 107.447 398.169 107.281 398.214 107.161C398.244 107.041 398.289 106.906 398.364 106.755C398.44 106.605 398.53 106.455 398.635 106.319C398.74 106.184 398.891 106.064 399.072 105.974C399.252 105.884 399.448 105.839 399.673 105.839C399.899 105.839 400.125 105.884 400.336 105.989C400.546 106.094 400.742 106.199 400.937 106.289C401.133 106.395 401.314 106.44 401.509 106.44C401.63 106.44 401.75 106.41 401.855 106.365C401.946 106.319 402.036 106.259 402.081 106.214C402.126 106.154 402.171 106.094 402.201 106.019C402.232 105.944 402.247 105.899 402.262 105.854C402.262 105.808 402.262 105.778 402.262 105.763H403.149C403.149 105.763 403.149 105.914 403.104 106.019C403.074 106.139 403.014 106.274 402.939 106.425C402.863 106.59 402.758 106.725 402.653 106.876C402.532 107.011 402.382 107.131 402.186 107.221C401.991 107.326 401.78 107.372 401.539 107.372C401.299 107.372 401.073 107.326 400.847 107.221C400.621 107.116 400.426 107.026 400.245 106.921C400.065 106.815 399.884 106.77 399.719 106.77ZM402.247 114.706L400.652 110.362L398.996 114.706H402.247Z" fill="white"/>
<path d="M408.281 113.594C408.281 112.932 408.401 112.301 408.642 111.685C408.883 111.069 409.214 110.543 409.635 110.077C410.056 109.611 410.568 109.25 411.155 108.965C411.757 108.694 412.388 108.544 413.051 108.544C413.713 108.544 414.39 108.694 414.992 108.98C415.594 109.265 416.09 109.656 416.496 110.137C416.903 110.618 417.219 111.159 417.444 111.76C417.67 112.361 417.791 112.978 417.791 113.594C417.791 114.255 417.67 114.886 417.429 115.488C417.189 116.104 416.858 116.63 416.436 117.096C416.015 117.562 415.518 117.922 414.916 118.193C414.315 118.463 413.683 118.614 413.021 118.614C412.464 118.614 411.937 118.523 411.441 118.343C410.944 118.163 410.493 117.907 410.116 117.577C409.74 117.246 409.409 116.885 409.123 116.449C408.837 116.029 408.627 115.563 408.491 115.067C408.341 114.571 408.266 114.075 408.266 113.564M413.051 117.216C413.532 117.216 413.984 117.111 414.39 116.9C414.796 116.69 415.127 116.419 415.383 116.074C415.639 115.728 415.849 115.337 415.985 114.916C416.135 114.496 416.195 114.045 416.195 113.594C416.195 113.143 416.12 112.677 415.97 112.241C415.819 111.805 415.609 111.414 415.338 111.084C415.067 110.753 414.736 110.483 414.345 110.287C413.953 110.092 413.517 109.987 413.051 109.987C412.584 109.987 412.118 110.092 411.711 110.302C411.305 110.513 410.974 110.783 410.703 111.129C410.432 111.475 410.237 111.85 410.086 112.286C409.936 112.707 409.861 113.158 409.861 113.609C409.861 114.24 409.981 114.826 410.237 115.367C410.492 115.908 410.869 116.359 411.35 116.705C411.847 117.051 412.404 117.231 413.036 117.231" fill="white"/>
<path d="M435.291 117.171V118.554H428.474V108.634H435.17V110.017H430.039V112.842H434.478V114.135H430.039V117.171H435.291Z" fill="white"/>
<path d="M445.959 118.554V108.619H450.293C450.729 108.619 451.135 108.709 451.527 108.905C451.918 109.085 452.249 109.34 452.505 109.641C452.776 109.942 452.986 110.287 453.137 110.678C453.287 111.069 453.363 111.46 453.363 111.85C453.363 112.527 453.182 113.128 452.836 113.684C452.475 114.225 452.008 114.601 451.421 114.781L453.754 118.554H451.993L449.826 115.097H447.509V118.554H445.944H445.959ZM450.278 113.714C450.714 113.714 451.075 113.534 451.346 113.173C451.632 112.812 451.767 112.376 451.767 111.865C451.767 111.354 451.602 110.919 451.286 110.558C450.97 110.197 450.594 110.017 450.172 110.017H447.509V113.714H450.278Z" fill="white"/>
<path d="M464.829 117.171V118.554H458.012V108.634H464.708V110.017H459.577V112.842H464.016V114.135H459.577V117.171H464.829Z" fill="white"/>
<path d="M473.24 108.574C474.113 108.574 474.88 108.769 475.527 109.16C476.189 109.551 476.686 110.077 477.017 110.738L475.783 111.565C475.648 111.279 475.482 111.024 475.287 110.813C475.091 110.603 474.865 110.438 474.624 110.317C474.384 110.197 474.143 110.122 473.917 110.062C473.676 110.002 473.436 109.987 473.18 109.987C472.774 109.987 472.412 110.062 472.051 110.197C471.705 110.332 471.404 110.528 471.164 110.753C470.923 110.979 470.712 111.249 470.532 111.565C470.351 111.88 470.216 112.196 470.14 112.542C470.05 112.887 470.02 113.233 470.02 113.579C470.02 114.225 470.155 114.826 470.426 115.382C470.697 115.938 471.088 116.389 471.585 116.72C472.081 117.066 472.638 117.231 473.24 117.231C473.586 117.231 473.917 117.171 474.248 117.066C474.579 116.96 474.895 116.78 475.196 116.525C475.497 116.269 475.738 115.968 475.903 115.593L477.213 116.329C477.017 116.795 476.701 117.216 476.25 117.577C475.813 117.937 475.317 118.208 474.79 118.373C474.263 118.554 473.737 118.629 473.195 118.629C472.518 118.629 471.886 118.478 471.284 118.178C470.682 117.877 470.185 117.486 469.779 117.006C469.373 116.525 469.042 115.968 468.816 115.367C468.575 114.751 468.455 114.135 468.455 113.504C468.455 113.023 468.53 112.542 468.666 112.061C468.801 111.58 469.012 111.129 469.283 110.708C469.554 110.287 469.884 109.912 470.261 109.596C470.637 109.265 471.088 109.01 471.615 108.829C472.142 108.634 472.683 108.544 473.27 108.544" fill="white"/>
<path d="M480.674 113.594C480.674 112.932 480.794 112.301 481.035 111.685C481.275 111.069 481.606 110.543 482.028 110.077C482.449 109.611 482.961 109.25 483.548 108.965C484.149 108.694 484.781 108.544 485.443 108.544C486.106 108.544 486.783 108.694 487.385 108.98C487.986 109.265 488.483 109.656 488.889 110.137C489.296 110.618 489.612 111.159 489.837 111.76C490.063 112.361 490.183 112.978 490.183 113.594C490.183 114.255 490.063 114.886 489.822 115.488C489.582 116.104 489.251 116.63 488.829 117.096C488.408 117.562 487.911 117.922 487.309 118.193C486.708 118.463 486.075 118.614 485.413 118.614C484.857 118.614 484.33 118.523 483.833 118.343C483.337 118.163 482.885 117.907 482.509 117.577C482.133 117.246 481.802 116.885 481.516 116.449C481.23 116.029 481.02 115.563 480.884 115.067C480.734 114.571 480.658 114.075 480.658 113.564M485.443 117.216C485.925 117.216 486.376 117.111 486.783 116.9C487.189 116.69 487.52 116.419 487.776 116.074C488.032 115.728 488.242 115.337 488.378 114.916C488.528 114.496 488.588 114.045 488.588 113.594C488.588 113.143 488.513 112.677 488.363 112.241C488.212 111.805 488.002 111.414 487.731 111.084C487.46 110.753 487.129 110.483 486.738 110.287C486.346 110.092 485.91 109.987 485.443 109.987C484.977 109.987 484.511 110.092 484.104 110.302C483.698 110.513 483.367 110.783 483.096 111.129C482.825 111.475 482.63 111.85 482.479 112.286C482.329 112.707 482.253 113.158 482.253 113.609C482.253 114.24 482.374 114.826 482.63 115.367C482.885 115.908 483.262 116.359 483.743 116.705C484.24 117.051 484.797 117.231 485.429 117.231" fill="white"/>
<path d="M496.202 111.535V118.554H494.637V108.634H495.916L501.559 115.803V108.649H503.139V118.554H501.755L496.202 111.535Z" fill="white"/>
<path d="M514.049 110.964C513.838 110.723 513.477 110.498 512.95 110.287C512.438 110.062 511.897 109.957 511.355 109.957C510.708 109.957 510.227 110.077 509.896 110.317C509.58 110.558 509.414 110.888 509.414 111.339C509.414 111.475 509.429 111.595 509.474 111.715C509.504 111.82 509.565 111.925 509.61 112.001C509.67 112.091 509.745 112.166 509.865 112.241C509.986 112.316 510.091 112.391 510.196 112.437C510.302 112.497 510.467 112.557 510.648 112.617C510.844 112.677 511.024 112.737 511.19 112.767C511.355 112.812 511.581 112.872 511.852 112.932C512.288 113.038 512.664 113.143 512.98 113.248C513.296 113.353 513.582 113.474 513.883 113.639C514.169 113.789 514.395 113.97 514.575 114.165C514.756 114.36 514.891 114.601 514.997 114.871C515.102 115.157 515.147 115.472 515.147 115.818C515.147 116.209 515.087 116.57 514.967 116.885C514.846 117.201 514.666 117.471 514.455 117.697C514.229 117.922 513.973 118.103 513.657 118.253C513.341 118.403 513.01 118.508 512.664 118.569C512.318 118.629 511.927 118.674 511.521 118.674C510.768 118.674 510.031 118.554 509.324 118.328C508.617 118.103 507.984 117.772 507.413 117.336L508.135 115.983C508.421 116.284 508.887 116.57 509.534 116.84C510.181 117.111 510.859 117.246 511.536 117.246C512.153 117.246 512.634 117.141 512.965 116.915C513.296 116.69 513.462 116.389 513.462 115.968C513.462 115.803 513.432 115.653 513.387 115.518C513.341 115.382 513.251 115.262 513.131 115.157C513.01 115.052 512.875 114.961 512.755 114.886C512.619 114.811 512.439 114.736 512.198 114.646C511.957 114.571 511.746 114.496 511.536 114.435C511.34 114.375 511.069 114.315 510.738 114.225C510.212 114.09 509.775 113.954 509.444 113.804C509.098 113.669 508.797 113.489 508.541 113.278C508.285 113.068 508.09 112.827 507.969 112.557C507.849 112.271 507.789 111.941 507.789 111.565C507.789 111.084 507.879 110.663 508.06 110.272C508.24 109.881 508.496 109.566 508.827 109.325C509.158 109.07 509.534 108.89 509.971 108.754C510.407 108.619 510.889 108.559 511.4 108.559C512.619 108.559 513.748 108.935 514.756 109.686L514.049 110.964Z" fill="white"/>
<path d="M526.824 110.017H523.513V118.554H521.933V110.017H518.623V108.634H526.824V110.017Z" fill="white"/>
<path d="M530.947 118.554V108.619H535.28C535.717 108.619 536.123 108.709 536.514 108.905C536.906 109.085 537.237 109.34 537.492 109.641C537.763 109.942 537.959 110.287 538.124 110.678C538.275 111.069 538.35 111.46 538.35 111.85C538.35 112.527 538.17 113.128 537.824 113.684C537.462 114.225 536.996 114.601 536.409 114.781L538.741 118.554H536.981L534.814 115.097H532.497V118.554H530.932H530.947ZM535.265 113.714C535.702 113.714 536.063 113.534 536.334 113.173C536.62 112.812 536.755 112.376 536.755 111.865C536.755 111.354 536.59 110.919 536.274 110.558C535.958 110.197 535.581 110.017 535.16 110.017H532.497V113.714H535.265Z" fill="white"/>
<path d="M547.138 118.629C546.521 118.629 545.964 118.539 545.483 118.358C544.986 118.178 544.58 117.937 544.264 117.622C543.933 117.321 543.677 116.945 543.451 116.525C543.241 116.089 543.075 115.638 542.985 115.172C542.894 114.706 542.849 114.195 542.849 113.669V108.634H544.429V113.669C544.429 114.045 544.459 114.405 544.505 114.736C544.565 115.067 544.655 115.397 544.79 115.698C544.926 116.014 545.091 116.269 545.287 116.495C545.483 116.72 545.738 116.885 546.054 117.021C546.37 117.156 546.732 117.216 547.123 117.216C547.514 117.216 547.89 117.156 548.206 117.021C548.522 116.885 548.778 116.705 548.989 116.479C549.184 116.254 549.35 115.983 549.485 115.683C549.621 115.367 549.711 115.052 549.756 114.721C549.801 114.39 549.831 114.045 549.831 113.669V108.634H551.411V113.669C551.411 114.36 551.336 115.007 551.17 115.593C551.005 116.179 550.764 116.705 550.418 117.171C550.087 117.637 549.636 117.997 549.064 118.253C548.507 118.508 547.845 118.644 547.108 118.644" fill="white"/>
<path d="M564.442 116.329C564.186 116.945 563.75 117.441 563.118 117.847C562.486 118.253 561.809 118.493 561.072 118.599C561.553 119.004 561.794 119.455 561.794 119.951C561.794 120.357 561.659 120.673 561.388 120.913C561.117 121.154 560.741 121.274 560.259 121.274C559.687 121.274 559.131 121.139 558.604 120.868L558.995 120.041C559.356 120.237 559.687 120.342 559.988 120.342C560.259 120.342 560.455 120.282 560.605 120.177C560.756 120.072 560.831 119.906 560.831 119.696C560.831 119.335 560.575 118.989 560.079 118.659C559.447 118.614 558.845 118.433 558.303 118.118C557.746 117.802 557.28 117.411 556.904 116.93C556.527 116.449 556.226 115.923 556.016 115.337C555.805 114.751 555.685 114.15 555.685 113.549C555.685 113.068 555.76 112.587 555.895 112.106C556.031 111.625 556.242 111.174 556.512 110.753C556.783 110.332 557.114 109.957 557.49 109.641C557.867 109.31 558.318 109.055 558.845 108.874C559.371 108.679 559.913 108.589 560.5 108.589C561.373 108.589 562.14 108.784 562.787 109.175C563.449 109.566 563.946 110.092 564.277 110.753L563.043 111.58C562.907 111.294 562.742 111.039 562.546 110.828C562.351 110.618 562.125 110.453 561.884 110.332C561.643 110.212 561.403 110.137 561.177 110.077C560.936 110.017 560.695 110.002 560.44 110.002C560.033 110.002 559.672 110.077 559.311 110.212C558.965 110.347 558.664 110.543 558.423 110.768C558.183 110.994 557.972 111.264 557.791 111.58C557.611 111.895 557.475 112.211 557.4 112.557C557.31 112.902 557.28 113.248 557.28 113.594C557.28 114.24 557.415 114.841 557.686 115.397C557.957 115.953 558.348 116.404 558.845 116.735C559.341 117.081 559.898 117.246 560.5 117.246C560.846 117.246 561.177 117.186 561.508 117.081C561.839 116.975 562.155 116.795 562.456 116.54C562.757 116.284 562.998 115.983 563.163 115.608L564.472 116.344L564.442 116.329Z" fill="white"/>
<path d="M571.424 108.634H572.914L576.781 118.569H575.126L574.073 115.863H570.236L569.197 118.569H567.527L571.424 108.634ZM571.244 106.77C571.093 106.77 570.973 106.8 570.867 106.861C570.762 106.921 570.702 106.996 570.657 107.086C570.612 107.176 570.582 107.251 570.582 107.311C570.582 107.372 570.567 107.417 570.567 107.447H569.694C569.694 107.447 569.694 107.281 569.739 107.161C569.769 107.041 569.814 106.906 569.889 106.755C569.965 106.605 570.055 106.455 570.16 106.319C570.266 106.184 570.416 106.064 570.597 105.974C570.777 105.884 570.973 105.839 571.199 105.839C571.424 105.839 571.65 105.884 571.861 105.989C572.071 106.094 572.267 106.199 572.463 106.289C572.658 106.395 572.839 106.44 573.034 106.44C573.155 106.44 573.275 106.41 573.38 106.365C573.471 106.319 573.561 106.259 573.606 106.214C573.651 106.154 573.696 106.094 573.727 106.019C573.757 105.944 573.772 105.899 573.787 105.854C573.787 105.808 573.787 105.778 573.787 105.763H574.675C574.675 105.763 574.675 105.914 574.629 106.019C574.599 106.139 574.539 106.274 574.464 106.425C574.389 106.59 574.283 106.725 574.178 106.876C574.058 107.011 573.907 107.131 573.711 107.221C573.516 107.326 573.305 107.372 573.064 107.372C572.824 107.372 572.598 107.326 572.372 107.221C572.147 107.116 571.951 107.026 571.77 106.921C571.59 106.815 571.409 106.77 571.244 106.77ZM573.772 114.706L572.177 110.362L570.521 114.706H573.772Z" fill="white"/>
<path d="M579.806 113.594C579.806 112.932 579.926 112.301 580.167 111.685C580.408 111.069 580.739 110.543 581.16 110.077C581.581 109.611 582.093 109.25 582.68 108.965C583.282 108.694 583.914 108.544 584.576 108.544C585.238 108.544 585.915 108.694 586.517 108.98C587.119 109.265 587.615 109.656 588.022 110.137C588.428 110.618 588.744 111.159 588.97 111.76C589.195 112.361 589.316 112.978 589.316 113.594C589.316 114.255 589.195 114.886 588.954 115.488C588.714 116.104 588.383 116.63 587.961 117.096C587.54 117.562 587.043 117.922 586.442 118.193C585.84 118.463 585.208 118.614 584.546 118.614C583.989 118.614 583.462 118.523 582.966 118.343C582.469 118.163 582.018 117.907 581.641 117.577C581.265 117.246 580.934 116.885 580.648 116.449C580.362 116.029 580.152 115.563 580.016 115.067C579.866 114.571 579.791 114.075 579.791 113.564M584.576 117.216C585.057 117.216 585.509 117.111 585.915 116.9C586.321 116.69 586.652 116.419 586.908 116.074C587.164 115.728 587.374 115.337 587.51 114.916C587.66 114.496 587.721 114.045 587.721 113.594C587.721 113.143 587.645 112.677 587.495 112.241C587.344 111.805 587.134 111.414 586.863 111.084C586.592 110.753 586.261 110.483 585.87 110.287C585.479 110.092 585.042 109.987 584.576 109.987C584.109 109.987 583.643 110.092 583.236 110.302C582.83 110.513 582.499 110.783 582.228 111.129C581.958 111.475 581.762 111.85 581.611 112.286C581.461 112.707 581.386 113.158 581.386 113.609C581.386 114.24 581.506 114.826 581.762 115.367C582.018 115.908 582.394 116.359 582.875 116.705C583.372 117.051 583.929 117.231 584.561 117.231" fill="white"/>
<path d="M376.004 5.74131V6.73326C376.004 10.671 373.356 13.2411 369.865 13.2411C366.148 13.2411 363.214 10.3404 363.214 6.64309C363.214 2.9458 366.148 0 369.834 0C372.167 0 374.304 1.18734 375.477 3.14119L372.573 4.86959C372.016 3.86261 370.993 3.29148 369.804 3.29148C367.939 3.29148 366.614 4.7193 366.614 6.65812C366.614 8.59694 367.939 9.93457 369.85 9.93457C371.189 9.93457 372.046 9.25824 372.347 8.44664H368.947V5.75634H376.004V5.74131Z" fill="white"/>
<path d="M380.699 6.62806C380.699 2.9458 383.633 0 387.35 0C391.066 0 393.955 2.93077 393.955 6.62806C393.955 10.3253 391.006 13.2561 387.35 13.2561C383.693 13.2561 380.699 10.3103 380.699 6.62806ZM390.284 6.62806C390.284 4.83953 389.005 3.5019 387.335 3.5019C385.664 3.5019 384.34 4.83953 384.34 6.62806C384.34 8.41658 385.649 9.75422 387.335 9.75422C389.02 9.75422 390.284 8.41658 390.284 6.62806Z" fill="white"/>
<path d="M410.432 0.300592L405.482 12.9405H402.066L397.176 0.300592H400.847L403.781 8.08593L406.761 0.300592H410.432Z" fill="white"/>
<path d="M418.302 3.38166V5.26036H422.034V7.98072H418.302V9.85942H423.945V12.9405H414.871V0.300592H423.945V3.38166H418.302Z" fill="white"/>
<path d="M434.012 8.58191H432.582V12.9555H429.211V0.300592H435.336C437.819 0.300592 439.715 2.07409 439.715 4.40368C439.715 6.02687 438.842 7.36451 437.503 8.0709L440.316 12.9405H436.54L434.027 8.56688L434.012 8.58191ZM432.582 5.69622H434.96C435.757 5.69622 436.269 5.14013 436.269 4.52391C436.269 3.9077 435.787 3.33657 434.96 3.33657H432.582V5.69622Z" fill="white"/>
<path d="M456.357 0.300592V12.9405H453.468L448.367 6.28238V12.9405H444.996V0.300592H447.87L452.986 6.97374V0.300592H456.357Z" fill="white"/>
<path d="M461.277 6.62806C461.277 2.9458 464.212 0 467.928 0C471.645 0 474.534 2.93077 474.534 6.62806C474.534 10.3253 471.6 13.2561 467.928 13.2561C464.257 13.2561 461.277 10.3103 461.277 6.62806ZM470.863 6.62806C470.863 4.83953 469.584 3.5019 467.928 3.5019C466.273 3.5019 464.934 4.83953 464.934 6.62806C464.934 8.41658 466.243 9.75422 467.928 9.75422C469.614 9.75422 470.863 8.41658 470.863 6.62806Z" fill="white"/>
<path d="M491.252 3.33657V5.47078H494.968V8.3264H491.252V12.9405H487.821V0.300592H496.895V3.33657H491.252Z" fill="white"/>
<path d="M505.441 3.38166V5.26036H509.158V7.98072H505.441V9.85942H511.084V12.9405H502.011V0.300592H511.084V3.38166H505.441Z" fill="white"/>
<path d="M528.268 6.62806C528.268 10.2502 525.364 12.9555 521.512 12.9555H516.351V0.300592H521.512C525.364 0.300592 528.268 2.99089 528.268 6.62806ZM524.732 6.62806C524.732 4.77942 523.348 3.59208 521.347 3.59208H519.797V9.64901H521.347C523.363 9.64901 524.732 8.46167 524.732 6.61303" fill="white"/>
<path d="M536.605 3.38166V5.26036H540.321V7.98072H536.605V9.85942H542.247V12.9405H533.174V0.300592H542.247V3.38166H536.605Z" fill="white"/>
<path d="M552.314 8.58191H550.885V12.9555H547.514V0.300592H553.638C556.121 0.300592 558.017 2.07409 558.017 4.40368C558.017 6.02687 557.144 7.36451 555.805 8.0709L558.619 12.9405H554.842L552.329 8.56688L552.314 8.58191ZM550.885 5.69622H553.262C554.06 5.69622 554.571 5.14013 554.571 4.52391C554.571 3.9077 554.09 3.33657 553.262 3.33657H550.885V5.69622Z" fill="white"/>
<path d="M571.785 10.7762H566.775L565.902 12.9555H562.351L567.632 0.315622H570.867L576.209 12.9555H572.673L571.785 10.7762ZM570.551 7.75528L569.288 4.64415L568.024 7.75528H570.551Z" fill="white"/>
<path d="M589.586 9.6941V12.9405H580.678V0.300592H584.26V9.6941H589.586Z" fill="white"/>
<path d="M376.004 5.74131V6.73326C376.004 10.671 373.356 13.2411 369.865 13.2411C366.148 13.2411 363.214 10.3404 363.214 6.64309C363.214 2.9458 366.148 0 369.834 0C372.167 0 374.304 1.18734 375.477 3.14119L372.573 4.86959C372.016 3.86261 370.993 3.29148 369.804 3.29148C367.939 3.29148 366.614 4.7193 366.614 6.65812C366.614 8.59694 367.939 9.93457 369.85 9.93457C371.189 9.93457 372.046 9.25824 372.347 8.44664H368.947V5.75634H376.004V5.74131Z" fill="white"/>
<path d="M380.699 6.62806C380.699 2.9458 383.633 0 387.35 0C391.066 0 393.955 2.93077 393.955 6.62806C393.955 10.3253 391.006 13.2561 387.35 13.2561C383.693 13.2561 380.699 10.3103 380.699 6.62806ZM390.284 6.62806C390.284 4.83953 389.005 3.5019 387.335 3.5019C385.664 3.5019 384.34 4.83953 384.34 6.62806C384.34 8.41658 385.649 9.75422 387.335 9.75422C389.02 9.75422 390.284 8.41658 390.284 6.62806Z" fill="white"/>
<path d="M410.432 0.300592L405.482 12.9405H402.066L397.176 0.300592H400.847L403.781 8.08593L406.761 0.300592H410.432Z" fill="white"/>
<path d="M418.302 3.38166V5.26036H422.034V7.98072H418.302V9.85942H423.945V12.9405H414.871V0.300592H423.945V3.38166H418.302Z" fill="white"/>
<path d="M434.012 8.58191H432.582V12.9555H429.211V0.300592H435.336C437.819 0.300592 439.715 2.07409 439.715 4.40368C439.715 6.02687 438.842 7.36451 437.503 8.0709L440.316 12.9405H436.54L434.027 8.56688L434.012 8.58191ZM432.582 5.69622H434.96C435.757 5.69622 436.269 5.14013 436.269 4.52391C436.269 3.9077 435.787 3.33657 434.96 3.33657H432.582V5.69622Z" fill="white"/>
<path d="M456.357 0.300592V12.9405H453.468L448.367 6.28238V12.9405H444.996V0.300592H447.87L452.986 6.97374V0.300592H456.357Z" fill="white"/>
<path d="M461.277 6.62806C461.277 2.9458 464.212 0 467.928 0C471.645 0 474.534 2.93077 474.534 6.62806C474.534 10.3253 471.6 13.2561 467.928 13.2561C464.257 13.2561 461.277 10.3103 461.277 6.62806ZM470.863 6.62806C470.863 4.83953 469.584 3.5019 467.928 3.5019C466.273 3.5019 464.934 4.83953 464.934 6.62806C464.934 8.41658 466.243 9.75422 467.928 9.75422C469.614 9.75422 470.863 8.41658 470.863 6.62806Z" fill="white"/>
<path d="M491.252 3.33657V5.47078H494.968V8.3264H491.252V12.9405H487.821V0.300592H496.895V3.33657H491.252Z" fill="white"/>
<path d="M505.441 3.38166V5.26036H509.158V7.98072H505.441V9.85942H511.084V12.9405H502.011V0.300592H511.084V3.38166H505.441Z" fill="white"/>
<path d="M528.268 6.62806C528.268 10.2502 525.364 12.9555 521.512 12.9555H516.351V0.300592H521.512C525.364 0.300592 528.268 2.99089 528.268 6.62806ZM524.732 6.62806C524.732 4.77942 523.348 3.59208 521.347 3.59208H519.797V9.64901H521.347C523.363 9.64901 524.732 8.46167 524.732 6.61303" fill="white"/>
<path d="M536.605 3.38166V5.26036H540.321V7.98072H536.605V9.85942H542.247V12.9405H533.174V0.300592H542.247V3.38166H536.605Z" fill="white"/>
<path d="M552.314 8.58191H550.885V12.9555H547.514V0.300592H553.638C556.121 0.300592 558.017 2.07409 558.017 4.40368C558.017 6.02687 557.144 7.36451 555.805 8.0709L558.619 12.9405H554.842L552.329 8.56688L552.314 8.58191ZM550.885 5.69622H553.262C554.06 5.69622 554.571 5.14013 554.571 4.52391C554.571 3.9077 554.09 3.33657 553.262 3.33657H550.885V5.69622Z" fill="white"/>
<path d="M571.785 10.7762H566.775L565.902 12.9555H562.351L567.632 0.315622H570.867L576.209 12.9555H572.673L571.785 10.7762ZM570.551 7.75528L569.288 4.64415L568.024 7.75528H570.551Z" fill="white"/>
<path d="M589.586 9.6941V12.9405H580.678V0.300592H584.26V9.6941H589.586Z" fill="white"/>
<path d="M535.717 26.7677H511.852V50.229H535.717V26.7677Z" fill="white"/>
<path d="M489.973 41.2262C489.973 49.2069 496.383 55.6847 504.253 55.6997H510.678V26.7677H504.268C496.383 26.7677 489.973 33.2605 489.973 41.2413V41.2262Z" fill="white"/>
<path d="M510.663 93.3639V56.9021H489.973V74.0659L501.303 93.3639H510.663Z" fill="white"/>
<path d="M489.973 76.4256V93.3639H499.919L489.973 76.4256Z" fill="white"/>
<path d="M562.787 26.7677H540.818V93.3639H562.787V26.7677Z" fill="white"/>
<path d="M518.909 51.4163H511.852V93.3639H518.909C530.33 93.3639 539.629 83.9554 539.629 72.3976C539.629 60.8399 530.33 51.4313 518.909 51.4313V51.4163Z" fill="white"/>
<path d="M477.83 76.7562C473.345 72.2924 467.417 69.8426 461.142 69.8426C454.867 69.8426 448.939 72.3075 444.454 76.7562C440 81.1899 437.473 87.0816 437.322 93.3639H484.977C484.827 87.0816 482.299 81.1749 477.845 76.7562H477.83Z" fill="white"/>
<path d="M461.127 68.6252C467.718 68.6252 473.947 71.2103 478.657 75.8995C483.337 80.5587 485.985 86.7509 486.151 93.3639H488.784V74.3966L461.142 27.3389L428.068 83.6398L434.313 93.3639H436.118C436.269 86.7509 438.932 80.5587 443.612 75.8995C448.322 71.2103 454.551 68.6252 461.142 68.6252H461.127Z" fill="white"/>
<path d="M432.883 93.3639L427.376 84.7971L422.35 93.3639H432.883Z" fill="white"/>
<path d="M613 71.7964H591.031V93.3639H613V71.7964Z" fill="white"/>
<path d="M589.857 71.7964H567.888V93.3639H589.857V71.7964Z" fill="white"/>
<path d="M589.857 26.7677H567.888V70.5941H589.857V26.7677Z" fill="white"/>
<path d="M363.379 26.7677V52.769H368.149C375.236 52.769 380.985 46.9375 380.985 39.7683C380.985 32.5992 375.221 26.7677 368.149 26.7677H363.379Z" fill="white"/>
<path d="M416.406 67.7234H391.036V93.3639H420.965L426.653 83.6698L416.406 67.7234Z" fill="white"/>
<path d="M362.19 53.9713H340.221V93.3639H362.19V53.9713Z" fill="white"/>
<path d="M391.036 66.5211H415.639L391.036 28.1955V66.5211Z" fill="white"/>
<path d="M436.359 46.6369C436.359 35.6803 427.556 26.7677 416.722 26.7677H391.533L417.038 66.5211C427.692 66.3407 436.344 57.4432 436.344 46.6519L436.359 46.6369Z" fill="white"/>
<path d="M370.391 53.9713H363.379V93.3639H370.391C381.12 93.3639 389.848 84.5265 389.848 73.6601C389.848 62.7937 381.12 53.9563 370.391 53.9563V53.9713Z" fill="white"/>
<path d="M362.19 26.7677H340.221V52.769H362.19V26.7677Z" fill="white"/>
</svg>
