<svg width="30" height="32" viewBox="0 0 30 32" fill="none" xmlns="http://www.w3.org/2000/svg">
<path d="M9.61917 26.5253L2.23273 30.0931C1.10411 30.2591 0.405324 29.5811 0.323679 28.5C0.08835 25.3779 0.50858 21.9688 0.323679 18.8158C0.383712 17.6897 1.53874 16.9287 2.59532 17.4384L9.61917 20.8617V19.463C9.61917 17.9481 11.4802 16.1441 13.0146 16.0777C17.2938 16.2887 21.9787 15.7268 26.2123 16.0563C31.6416 16.4759 29.2956 24.2589 29.807 27.7106C29.6798 29.5408 28.2318 31.1481 26.3587 31.3306L12.8682 31.3093C11.3841 31.1931 9.61917 29.3843 9.61917 27.9216V26.5229V26.5253ZM13.5237 17.5854C12.311 17.7016 11.4562 18.3274 11.2233 19.5436C11.4034 22.1798 10.9543 25.1882 11.216 27.7794C11.3337 28.9386 12.2894 29.7162 13.4277 29.8253H25.9937C27.1416 29.7162 28.0781 28.9363 28.2054 27.7794C28.0565 25.1645 28.4071 22.3363 28.2102 19.7475C28.1069 18.3749 27.0431 17.6091 25.7056 17.5617C21.7794 17.8225 17.3994 17.2156 13.5261 17.5854H13.5237ZM1.92055 28.5332L9.62158 24.6998C9.54473 24.3229 9.73444 22.827 9.54473 22.616L1.92055 18.8537V28.5332Z" fill="black"/>
<path d="M19.4213 4.94732C21.7722 2.23763 26.1594 2.46995 28.1357 5.48309C30.112 8.49623 28.5776 12.607 25.0668 13.5695C22.459 14.2831 19.82 13.0574 18.6577 10.682C18.4848 10.682 18.2111 11.1846 18.079 11.3292C12.0541 17.915 2.29036 10.0656 6.87447 3.13375C10.1499 -1.81861 17.7836 -0.668829 19.4237 4.94732H19.4213ZM12.7169 1.53353C5.58016 1.57147 5.66661 12.2704 12.7649 12.2324C19.8968 12.1945 19.8224 1.4956 12.7169 1.53353ZM23.1794 4.61068C18.0358 5.17016 18.9627 12.9602 24.2408 12.1826C28.9906 11.4833 28.1357 4.07254 23.1794 4.61068Z" fill="black"/>
</svg>
