<svg width="1150" height="1093" viewBox="0 0 1150 1093" fill="none" xmlns="http://www.w3.org/2000/svg">
<g style="mix-blend-mode:multiply">
<path d="M25.0716 544.109C25.0716 544.109 -29.9305 546.185 22.9978 499.432C75.9262 452.679 168.288 413.207 168.288 413.207L92.5166 422.564L120.528 402.828C120.528 402.828 48.9358 417.359 32.3145 406.979C32.3145 406.979 26.0931 386.19 63.4524 386.19C100.812 386.19 179.678 382.038 214.964 364.378C250.249 346.718 304.199 322.83 304.199 322.83C304.199 322.83 356.075 264.645 406.929 256.341C406.929 256.341 370.622 255.288 351.927 269.85C351.927 269.85 429.772 226.226 478.522 227.248C478.522 227.248 437.015 227.248 421.446 233.476C421.446 233.476 425.594 209.588 502.386 206.459C502.386 206.459 457.753 192.95 456.732 183.594C456.732 183.594 495.143 184.616 503.439 185.669L457.784 175.29C457.784 175.29 473.353 158.684 531.481 168.009L550.176 169.063L543.955 162.835C543.955 162.835 577.167 158.684 595.831 165.964C595.831 165.964 631.117 161.813 667.455 179.473C703.761 197.133 747.373 226.226 766.037 231.431L757.742 215.847L745.299 203.392L737.004 208.597L733.878 188.861L729.73 197.164L722.457 171.201L715.183 181.58C715.183 181.58 708.961 158.714 716.204 148.335L708.93 158.714L712.026 127.546L703.731 131.698C703.731 131.698 700.604 98.453 708.93 80.7929C717.226 63.1327 725.521 18.4556 769.133 6.00052C812.713 -6.45455 870.842 -3.35628 891.58 52.7535C891.58 52.7535 896.78 58.981 913.37 75.6188C929.96 92.2255 1146.87 207.543 1150 335.316L1143.78 327.013C1143.78 327.013 1130.28 336.37 1127.19 316.634C1124.06 296.898 1063.89 190.937 911.327 146.259C911.327 146.259 858.399 134.827 848.03 142.108C848.03 142.108 852.177 158.714 873.968 178.481C895.758 198.218 963.203 263.653 963.203 319.763C963.203 319.763 960.077 358.181 955.929 369.614L951.782 363.387L948.656 392.479L944.508 385.198C944.508 385.198 938.287 408.064 932.065 418.443L926.865 413.238C926.865 413.238 916.496 441.277 911.296 447.505L906.096 440.224C906.096 440.224 897.801 454.755 891.58 462.036L888.484 454.755C888.484 454.755 872.915 473.437 861.494 483.848L862.516 470.339C862.516 470.339 818.935 512.94 800.24 518.114L805.44 510.833C805.44 510.833 745.237 566.943 734.868 570.042L741.09 559.662C741.09 559.662 669.466 600.188 666.371 623.022C663.245 645.887 679.866 707.171 686.088 735.211C686.088 735.211 699.583 777.812 705.804 786.115C712.026 794.419 717.226 795.472 722.426 807.927C727.626 820.382 747.342 833.891 763.933 845.323C780.523 856.756 888.453 944.003 910.275 956.489C932.065 968.944 927.918 967.922 927.918 967.922C927.918 967.922 948.625 975.451 966.763 986.945C966.763 986.945 1003.69 1007.39 1029.63 1016.72C1029.63 1016.72 1041.05 1018.8 1042.07 1024C1042.07 1024 1086.7 1027.13 1095 1031.28C1095 1031.28 1124.06 1035.43 1125.08 1048.94C1125.08 1048.94 1113.66 1041.66 1108.49 1048.94C1108.49 1048.94 1104.35 1053.09 1090.85 1053.09C1077.35 1053.09 1007.84 1035.43 1007.84 1035.43L1036.9 1048.94C1036.9 1048.94 1065.96 1052.07 1065.96 1069.73C1065.96 1069.73 1050.4 1054.15 1047.27 1061.43C1047.27 1061.43 1053.49 1071.81 1029.63 1064.53C1005.76 1057.25 982.92 1044.79 961.129 1038.56C939.339 1032.34 924.791 1020.9 920.644 1014.67C920.644 1014.67 912.349 1008.45 905.075 1008.45C897.801 1008.45 891.58 995.992 891.58 995.992C891.58 995.992 883.284 1080.14 866.663 1071.84C866.663 1071.84 857.315 1077.04 863.537 1088.44C863.537 1088.44 850.042 1073.91 860.442 1063.5C860.442 1063.5 857.315 1059.35 860.442 1050C863.537 1040.64 878.084 1000.14 867.715 977.279C857.346 954.414 755.637 880.675 732.795 867.166C709.952 853.658 661.202 823.542 662.224 806.905C663.245 790.298 643.528 691.587 643.528 691.587C637.307 681.208 605.148 647.963 605.148 634.455C605.148 634.455 583.357 633.401 574.01 641.736L578.157 631.356L553.241 642.789L554.293 631.356L529.377 642.789L537.672 631.356C537.672 631.356 511.734 645.887 498.239 642.789L515.881 630.334L499.26 636.562L501.334 622.031C501.334 622.031 434.91 734.219 438.036 751.879C438.036 751.879 446.332 778.896 438.036 784.07C438.036 784.07 432.836 784.07 432.836 820.413C432.836 856.756 441.132 1004.3 441.132 1015.73C441.132 1027.16 452.553 1034.41 462.922 1044.82C473.291 1055.2 500.281 1060.41 499.229 1069.76C499.229 1069.76 532.441 1072.86 527.241 1089.5L523.093 1087.42C523.093 1087.42 526.188 1094.7 511.672 1092.63C497.155 1090.55 478.46 1086.4 459.796 1084.32C441.101 1082.25 432.806 1079.12 428.658 1070.82C428.658 1070.82 427.637 1066.66 421.384 1063.53C415.163 1060.41 399.594 1053.16 404.794 1039.65C404.794 1039.65 371.582 1050.03 364.308 1062.51C357.034 1074.97 324.875 1076.02 332.149 1068.74C332.149 1068.74 322.801 1062.51 314.506 1068.74C314.506 1068.74 322.801 1055.23 339.423 1055.23C339.423 1055.23 343.57 1047.95 352.918 1045.87C362.265 1043.8 396.499 1023.01 398.572 1014.71C398.572 1014.71 405.846 945.119 401.668 898.366C397.52 851.613 395.446 772.669 395.446 772.669C395.446 772.669 390.246 747.728 400.646 736.295C411.015 724.862 456.701 618.901 456.701 618.901C456.701 618.901 427.637 624.106 417.268 620.977L434.91 612.674C434.91 612.674 353.97 612.674 334.254 608.522C314.537 604.37 289.62 607.469 283.399 613.727L290.673 601.272C290.673 601.272 251.24 618.932 236.692 618.932L247.061 610.629C247.061 610.629 146.404 629.312 140.152 631.387L146.373 616.857C146.373 616.857 64.381 656.328 15.6002 652.177L31.1692 642.82C31.1692 642.82 18.7264 648.025 8.32647 640.744L22.8431 630.365H3.28126L19.9026 622.062L3.28126 621.039L26.124 605.455L11.6074 607.531L24.0502 598.174H9.50266L22.9978 583.643C22.9978 583.643 9.50266 578.438 25.0716 544.171V544.109Z" fill="#305FE9" fill-opacity="0.5"/>
</g>
</svg>
