<svg width="442" height="103" viewBox="0 0 442 103" fill="none" xmlns="http://www.w3.org/2000/svg">
<path d="M99.0231 39.5724C99.0231 47.8934 95.5975 51.1329 88.4025 51.1329C81.2076 51.1329 77.782 47.8934 77.782 39.5724V1.05442H63.3921V40.5379C63.3921 56.2144 71.4657 63.3921 88.4025 63.3921C105.339 63.3921 113.413 56.2144 113.413 40.5379V1.05442H99.0231V39.5724Z" fill="#4F4F4F"/>
<path d="M184.586 1.05442V62.3377H200.733V1.05442H184.586Z" fill="#4F4F4F"/>
<path d="M30.1042 50.5994C19.8403 50.5994 14.6574 44.2983 14.6574 31.4293C14.6574 18.5603 18.7833 12.7801 29.2256 12.7801C35.7329 12.7801 40.3173 15.2827 43.3226 20.8343H57.8144C53.23 7.13955 44.1249 0 29.3147 0C9.30888 0 0 13.0468 0 31.785C0 50.5231 9.65271 63.3921 28.9581 63.3921C44.405 63.3921 54.3634 55.5411 58.5403 40.4744H44.6597C41.8072 47.5631 37.2737 50.6121 30.0915 50.6121L30.1042 50.5994Z" fill="#4F4F4F"/>
<path d="M357.138 50.5994C346.874 50.5994 341.691 44.2983 341.691 31.4293C341.691 18.5603 345.817 12.7801 356.259 12.7801C362.766 12.7801 367.351 15.2827 370.356 20.8343H384.848C380.276 7.13955 371.171 0 356.348 0C336.342 0 327.033 13.0468 327.033 31.785C327.033 50.5231 336.686 63.3921 355.992 63.3921C371.438 63.3921 381.397 55.5411 385.574 40.4744H371.693C368.841 47.5631 364.307 50.6121 357.125 50.6121L357.138 50.5994Z" fill="#4F4F4F"/>
<path d="M237.93 50.5994C227.666 50.5994 222.484 44.2983 222.484 31.4293C222.484 18.5603 226.61 12.7801 237.052 12.7801C243.559 12.7801 248.143 15.2827 251.149 20.8343H265.641C261.069 7.13955 251.964 0 237.141 0C217.135 0 207.826 13.0468 207.826 31.785C207.826 50.5231 217.479 63.3921 236.784 63.3921C252.231 63.3921 262.19 55.5411 266.366 40.4744H252.486C249.633 47.5631 245.1 50.6121 237.918 50.6121L237.93 50.5994Z" fill="#4F4F4F"/>
<path d="M283.252 1.05442L268.328 62.3377H282.539L286.143 44.997H305.016L308.785 62.3377H323.964L307.206 1.05442H283.252ZM294.841 34.3512C290.205 34.3512 286.449 29.981 286.449 24.5946C286.449 19.2082 290.205 14.8381 294.841 14.8381C299.476 14.8381 303.233 19.2082 303.233 24.5946C303.233 29.981 299.476 34.3512 294.841 34.3512Z" fill="#4F4F4F"/>
<path d="M425.241 1.05442H401.288L386.363 62.3377H400.575L404.179 44.997H423.051L426.821 62.3377H442L425.241 1.05442ZM414.188 34.3512C409.553 34.3512 405.796 29.981 405.796 24.5946C405.796 19.2082 409.553 14.8381 414.188 14.8381C418.823 14.8381 422.58 19.2082 422.58 24.5946C422.58 29.981 418.823 34.3512 414.188 34.3512Z" fill="#4F4F4F"/>
<path d="M151.158 35.2531C150.47 34.9101 149.744 34.6433 148.98 34.4909C142.333 33.1316 134.221 32.9029 127.625 37.0571C127.485 37.146 127.294 37.1333 127.166 37.0063C127.026 36.8665 127.026 36.6251 127.166 36.4854C128.363 35.3421 133.801 30.9084 145.542 31.2387C146.191 31.2514 146.854 31.2895 147.541 31.3276C155.806 31.912 160.48 32.3312 163.014 32.5853C163.014 32.5853 163.026 32.5853 163.039 32.5853C164.287 32.7124 165.548 32.4329 166.618 31.7596C167.509 31.1879 168.324 30.5146 169.012 29.7524C169.139 29.6126 169.254 29.4856 169.368 29.3458C172.297 25.8396 172.87 20.9994 172.921 20.4913C173.023 19.5512 173.405 15.3335 171.151 10.7728C170.272 8.99431 169.177 7.52067 167.993 6.3011C164.644 2.84566 159.957 0.990899 155.131 0.990899H128.834L129.051 1.04171H125.078V62.325H139.468V35.2785C142.804 35.5453 147.72 40.5252 159.741 62.325H177.2C166.248 45.1113 162.288 40.8809 151.132 35.2404L151.158 35.2531ZM147.057 27.0083C142.422 27.0083 138.665 22.6382 138.665 17.2518C138.665 11.8654 142.422 7.49526 147.057 7.49526C151.693 7.49526 155.449 11.8654 155.449 17.2518C155.449 22.6382 151.693 27.0083 147.057 27.0083Z" fill="#4F4F4F"/>
<path d="M8.4111 95.2451C9.24625 95.2451 9.93972 95.081 10.4915 94.7529C11.0433 94.4248 11.4832 93.9998 11.8113 93.4778C12.1543 92.941 12.393 92.337 12.5272 91.6659C12.6763 90.9799 12.7509 90.2789 12.7509 89.5631V81.5099H15.2787V89.5631C15.2787 90.6518 15.1519 91.6808 14.8984 92.6501C14.6449 93.6046 14.2422 94.4472 13.6904 95.178C13.1386 95.8938 12.4228 96.4605 11.5429 96.8781C10.6779 97.2956 9.63399 97.5044 8.4111 97.5044C7.14347 97.5044 6.06971 97.2882 5.18983 96.8557C4.32486 96.4083 3.62393 95.8192 3.08705 95.0885C2.55018 94.3428 2.16243 93.4927 1.92382 92.5383C1.6852 91.5838 1.5659 90.5921 1.5659 89.5631V81.5099H4.07133V89.5631C4.07133 90.2938 4.13844 91.0022 4.27266 91.6882C4.42179 92.3593 4.66041 92.9633 4.9885 93.5002C5.33151 94.0222 5.77891 94.4472 6.3307 94.7753C6.8974 95.0885 7.59087 95.2451 8.4111 95.2451ZM31.9656 97.3926V85.9615L27.2456 94.6187H25.8586L21.1162 85.9615V97.3926H18.6108V81.5099H21.2951L26.5521 91.2185L31.809 81.5099H34.4934V97.3926H31.9656ZM46.1076 86.2076V97.3926H43.6022V81.5099H45.5707L54.6529 92.9633V81.5323H57.1808V97.3926H55.1003L46.1076 86.2076ZM67.3502 97.5044C66.2168 97.5044 65.1803 97.2807 64.2407 96.8333C63.3161 96.371 62.5183 95.767 61.8472 95.0214C61.1761 94.2608 60.6541 93.3958 60.2813 92.4264C59.9233 91.4571 59.7444 90.4653 59.7444 89.4512C59.7444 88.3924 59.9383 87.3783 60.326 86.4089C60.7137 85.4396 61.2432 84.582 61.9143 83.8364C62.6003 83.0907 63.4056 82.5016 64.3302 82.0692C65.2698 81.6218 66.2913 81.3981 67.3949 81.3981C68.5283 81.3981 69.5573 81.6367 70.482 82.1139C71.4215 82.5762 72.2194 83.1877 72.8755 83.9482C73.5466 84.7088 74.0612 85.5738 74.4191 86.5431C74.7919 87.4976 74.9783 88.4744 74.9783 89.4736C74.9783 90.5325 74.7844 91.5466 74.3967 92.5159C74.0239 93.4853 73.4944 94.3428 72.8084 95.0885C72.1224 95.8192 71.3096 96.4083 70.3701 96.8557C69.4455 97.2882 68.4388 97.5044 67.3502 97.5044ZM62.2946 89.4512C62.2946 90.1969 62.4139 90.9202 62.6525 91.6211C62.8911 92.3221 63.2266 92.941 63.6591 93.4778C64.1065 94.0147 64.6434 94.4472 65.2698 94.7753C65.8961 95.0885 66.597 95.2451 67.3725 95.2451C68.1779 95.2451 68.8862 95.081 69.4977 94.7529C70.124 94.4099 70.6535 93.9625 71.086 93.4107C71.5184 92.8589 71.8465 92.24 72.0702 91.554C72.2939 90.868 72.4058 90.1671 72.4058 89.4512C72.4058 88.6907 72.2865 87.9674 72.0479 87.2814C71.8092 86.5804 71.4662 85.969 71.0188 85.447C70.5864 84.9101 70.0569 84.4851 69.4306 84.1719C68.8191 83.8438 68.1331 83.6798 67.3725 83.6798C66.5672 83.6798 65.8514 83.8513 65.225 84.1943C64.5987 84.5224 64.0692 84.9549 63.6368 85.4918C63.2043 86.0286 62.8687 86.6475 62.6301 87.3485C62.4064 88.0345 62.2946 88.7354 62.2946 89.4512ZM77.989 81.5099L82.7762 94.2384L87.541 81.5099H90.203L83.8499 97.3926H81.7024L75.327 81.5099H77.989ZM98.1526 97.5044C97.0191 97.5044 95.9827 97.2807 95.0431 96.8333C94.1185 96.371 93.3206 95.767 92.6495 95.0214C91.9784 94.2608 91.4565 93.3958 91.0836 92.4264C90.7257 91.4571 90.5468 90.4653 90.5468 89.4512C90.5468 88.3924 90.7406 87.3783 91.1284 86.4089C91.5161 85.4396 92.0456 84.582 92.7167 83.8364C93.4027 83.0907 94.208 82.5016 95.1326 82.0692C96.0721 81.6218 97.0937 81.3981 98.1973 81.3981C99.3307 81.3981 100.36 81.6367 101.284 82.1139C102.224 82.5762 103.022 83.1877 103.678 83.9482C104.349 84.7088 104.864 85.5738 105.221 86.5431C105.594 87.4976 105.781 88.4744 105.781 89.4736C105.781 90.5325 105.587 91.5466 105.199 92.5159C104.826 93.4853 104.297 94.3428 103.611 95.0885C102.925 95.8192 102.112 96.4083 101.172 96.8557C100.248 97.2882 99.2412 97.5044 98.1526 97.5044ZM93.0969 89.4512C93.0969 90.1969 93.2162 90.9202 93.4549 91.6211C93.6935 92.3221 94.029 92.941 94.4615 93.4778C94.9089 94.0147 95.4458 94.4472 96.0721 94.7753C96.6985 95.0885 97.3994 95.2451 98.1749 95.2451C98.9802 95.2451 99.6886 95.081 100.3 94.7529C100.926 94.4099 101.456 93.9625 101.888 93.4107C102.321 92.8589 102.649 92.24 102.873 91.554C103.096 90.868 103.208 90.1671 103.208 89.4512C103.208 88.6907 103.089 87.9674 102.85 87.2814C102.612 86.5804 102.269 85.969 101.821 85.447C101.389 84.9101 100.859 84.4851 100.233 84.1719C99.6215 83.8438 98.9355 83.6798 98.1749 83.6798C97.3696 83.6798 96.6538 83.8513 96.0274 84.1943C95.401 84.5224 94.8716 84.9549 94.4391 85.4918C94.0067 86.0286 93.6711 86.6475 93.4325 87.3485C93.2088 88.0345 93.0969 88.7354 93.0969 89.4512ZM124.923 83.7245H119.643V97.3926H117.116V83.7245H111.814V81.5099H124.923V83.7245ZM137.947 95.178V97.3926H127.053V81.5099H137.745V83.7245H129.558V88.2433H136.649V90.3237H129.558V95.178H137.947ZM153.886 97.3926V85.9615L149.166 94.6187H147.779L143.037 85.9615V97.3926H140.531V81.5099H143.216L148.473 91.2185L153.73 81.5099H156.414V97.3926H153.886ZM159.996 97.3926V81.5099H166.662C167.378 81.5099 168.034 81.659 168.631 81.9573C169.242 82.2556 169.764 82.6508 170.197 83.1429C170.629 83.6201 170.965 84.1719 171.203 84.7983C171.457 85.4097 171.584 86.0361 171.584 86.6774C171.584 87.3485 171.464 87.9972 171.226 88.6236C171.002 89.235 170.681 89.7868 170.264 90.2789C169.846 90.7562 169.339 91.1439 168.743 91.4422C168.161 91.7255 167.512 91.8672 166.796 91.8672H162.501V97.3926H159.996ZM162.501 89.6526H166.64C166.998 89.6526 167.318 89.578 167.602 89.4289C167.9 89.2797 168.153 89.071 168.362 88.8025C168.571 88.5341 168.735 88.2209 168.854 87.863C168.974 87.5051 169.033 87.1099 169.033 86.6774C169.033 86.23 168.966 85.8273 168.832 85.4694C168.698 85.1115 168.511 84.8057 168.273 84.5522C168.034 84.2838 167.758 84.0825 167.445 83.9482C167.147 83.7991 166.834 83.7245 166.506 83.7245H162.501V89.6526ZM180.533 97.5044C179.399 97.5044 178.363 97.2807 177.423 96.8333C176.498 96.371 175.701 95.767 175.03 95.0214C174.358 94.2608 173.836 93.3958 173.464 92.4264C173.106 91.4571 172.927 90.4653 172.927 89.4512C172.927 88.3924 173.121 87.3783 173.508 86.4089C173.896 85.4396 174.426 84.582 175.097 83.8364C175.783 83.0907 176.588 82.5016 177.513 82.0692C178.452 81.6218 179.474 81.3981 180.577 81.3981C181.711 81.3981 182.74 81.6367 183.664 82.1139C184.604 82.5762 185.402 83.1877 186.058 83.9482C186.729 84.7088 187.244 85.5738 187.601 86.5431C187.974 87.4976 188.161 88.4744 188.161 89.4736C188.161 90.5325 187.967 91.5466 187.579 92.5159C187.206 93.4853 186.677 94.3428 185.991 95.0885C185.305 95.8192 184.492 96.4083 183.552 96.8557C182.628 97.2882 181.621 97.5044 180.533 97.5044ZM175.477 89.4512C175.477 90.1969 175.596 90.9202 175.835 91.6211C176.073 92.3221 176.409 92.941 176.841 93.4778C177.289 94.0147 177.826 94.4472 178.452 94.7753C179.078 95.0885 179.779 95.2451 180.555 95.2451C181.36 95.2451 182.069 95.081 182.68 94.7529C183.306 94.4099 183.836 93.9625 184.268 93.4107C184.701 92.8589 185.029 92.24 185.253 91.554C185.476 90.868 185.588 90.1671 185.588 89.4512C185.588 88.6907 185.469 87.9674 185.23 87.2814C184.992 86.5804 184.649 85.969 184.201 85.447C183.769 84.9101 183.239 84.4851 182.613 84.1719C182.001 83.8438 181.315 83.6798 180.555 83.6798C179.75 83.6798 179.034 83.8513 178.407 84.1943C177.781 84.5224 177.252 84.9549 176.819 85.4918C176.387 86.0286 176.051 86.6475 175.812 87.3485C175.589 88.0345 175.477 88.7354 175.477 89.4512ZM190.161 99.5625L190.698 97.2584H189.893V94.5292H192.107V97.2584L191.324 99.5625H190.161ZM207.403 95.2451C208.238 95.2451 208.932 95.081 209.484 94.7529C210.035 94.4248 210.475 93.9998 210.803 93.4778C211.146 92.941 211.385 92.337 211.519 91.6659C211.668 90.9799 211.743 90.2789 211.743 89.5631V81.5099H214.271V89.5631C214.271 90.6518 214.144 91.6808 213.891 92.6501C213.637 93.6046 213.234 94.4472 212.683 95.178C212.131 95.8938 211.415 96.4605 210.535 96.8781C209.67 97.2956 208.626 97.5044 207.403 97.5044C206.136 97.5044 205.062 97.2882 204.182 96.8557C203.317 96.4083 202.616 95.8192 202.079 95.0885C201.542 94.3428 201.155 93.4927 200.916 92.5383C200.677 91.5838 200.558 90.5921 200.558 89.5631V81.5099H203.063V89.5631C203.063 90.2938 203.131 91.0022 203.265 91.6882C203.414 92.3593 203.653 92.9633 203.981 93.5002C204.324 94.0222 204.771 94.4472 205.323 94.7753C205.89 95.0885 206.583 95.2451 207.403 95.2451ZM230.958 97.3926V85.9615L226.238 94.6187H224.851L220.108 85.9615V97.3926H217.603V81.5099H220.287L225.544 91.2185L230.801 81.5099H233.486V97.3926H230.958ZM241.743 81.5099H243.935L250.199 97.3926H247.559L245.881 93.0752H239.752L238.096 97.3926H235.434L241.743 81.5099ZM245.389 91.2185L242.839 84.3956L240.199 91.2185H245.389ZM259.496 86.2076V97.3926H256.991V81.5099H258.959L268.041 92.9633V81.5323H270.569V97.3926H268.489L259.496 86.2076ZM280.739 97.5044C279.605 97.5044 278.569 97.2807 277.629 96.8333C276.705 96.371 275.907 95.767 275.236 95.0214C274.564 94.2608 274.042 93.3958 273.67 92.4264C273.312 91.4571 273.133 90.4653 273.133 89.4512C273.133 88.3924 273.327 87.3783 273.714 86.4089C274.102 85.4396 274.632 84.582 275.303 83.8364C275.989 83.0907 276.794 82.5016 277.719 82.0692C278.658 81.6218 279.68 81.3981 280.783 81.3981C281.917 81.3981 282.946 81.6367 283.87 82.1139C284.81 82.5762 285.608 83.1877 286.264 83.9482C286.935 84.7088 287.45 85.5738 287.807 86.5431C288.18 87.4976 288.367 88.4744 288.367 89.4736C288.367 90.5325 288.173 91.5466 287.785 92.5159C287.412 93.4853 286.883 94.3428 286.197 95.0885C285.511 95.8192 284.698 96.4083 283.759 96.8557C282.834 97.2882 281.827 97.5044 280.739 97.5044ZM275.683 89.4512C275.683 90.1969 275.802 90.9202 276.041 91.6211C276.279 92.3221 276.615 92.941 277.048 93.4778C277.495 94.0147 278.032 94.4472 278.658 94.7753C279.285 95.0885 279.985 95.2451 280.761 95.2451C281.566 95.2451 282.275 95.081 282.886 94.7529C283.512 94.4099 284.042 93.9625 284.474 93.4107C284.907 92.8589 285.235 92.24 285.459 91.554C285.682 90.868 285.794 90.1671 285.794 89.4512C285.794 88.6907 285.675 87.9674 285.436 87.2814C285.198 86.5804 284.855 85.969 284.407 85.447C283.975 84.9101 283.445 84.4851 282.819 84.1719C282.208 83.8438 281.522 83.6798 280.761 83.6798C279.956 83.6798 279.24 83.8513 278.613 84.1943C277.987 84.5224 277.458 84.9549 277.025 85.4918C276.593 86.0286 276.257 86.6475 276.018 87.3485C275.795 88.0345 275.683 88.7354 275.683 89.4512ZM291.377 81.5099L296.165 94.2384L300.929 81.5099H303.591L297.238 97.3926H295.091L288.715 81.5099H291.377ZM308.853 81.5099H311.045L317.308 97.3926H314.669L312.991 93.0752H306.862L305.206 97.3926H302.544L308.853 81.5099ZM312.499 91.2185L309.949 84.3956L307.309 91.2185H312.499ZM324.1 97.3926V81.5099H326.606V97.3926H324.1ZM332.701 86.2076V97.3926H330.195V81.5099H332.164L341.246 92.9633V81.5323H343.774V97.3926H341.694L332.701 86.2076ZM347.344 97.3926V81.5099H352.981C354.264 81.5099 355.382 81.7187 356.337 82.1363C357.306 82.5538 358.112 83.1205 358.753 83.8364C359.409 84.5522 359.901 85.3948 360.229 86.3642C360.557 87.3186 360.721 88.3402 360.721 89.4289C360.721 90.6369 360.535 91.733 360.162 92.7173C359.804 93.6866 359.29 94.5218 358.619 95.2227C357.948 95.9087 357.135 96.4456 356.18 96.8333C355.226 97.2062 354.16 97.3926 352.981 97.3926H347.344ZM358.171 89.4289C358.171 88.5937 358.052 87.8257 357.813 87.1248C357.59 86.4238 357.254 85.8273 356.807 85.3352C356.359 84.8281 355.815 84.4329 355.174 84.1496C354.532 83.8662 353.802 83.7245 352.981 83.7245H349.85V95.178H352.981C353.817 95.178 354.555 95.0363 355.196 94.7529C355.852 94.4547 356.397 94.052 356.829 93.5449C357.276 93.023 357.612 92.4115 357.836 91.7106C358.059 91.0097 358.171 90.2491 358.171 89.4289ZM370.538 79.8545L368.927 79.3624L370.202 76.9017H372.551L370.538 79.8545ZM369.979 95.2451C370.814 95.2451 371.507 95.081 372.059 94.7529C372.611 94.4248 373.051 93.9998 373.379 93.4778C373.722 92.941 373.96 92.337 374.095 91.6659C374.244 90.9799 374.318 90.2789 374.318 89.5631V81.5099H376.846V89.5631C376.846 90.6518 376.719 91.6808 376.466 92.6501C376.212 93.6046 375.81 94.4472 375.258 95.178C374.706 95.8938 373.99 96.4605 373.11 96.8781C372.245 97.2956 371.201 97.5044 369.979 97.5044C368.711 97.5044 367.637 97.2882 366.757 96.8557C365.892 96.4083 365.191 95.8192 364.655 95.0885C364.118 94.3428 363.73 93.4927 363.491 92.5383C363.253 91.5838 363.133 90.5921 363.133 89.5631V81.5099H365.639V89.5631C365.639 90.2938 365.706 91.0022 365.84 91.6882C365.989 92.3593 366.228 92.9633 366.556 93.5002C366.899 94.0222 367.346 94.4472 367.898 94.7753C368.465 95.0885 369.158 95.2451 369.979 95.2451ZM389.574 85.2457C389.425 85.0816 389.208 84.9101 388.925 84.7312C388.642 84.5373 388.306 84.3583 387.918 84.1943C387.545 84.0303 387.128 83.896 386.666 83.7916C386.218 83.6873 385.756 83.6351 385.279 83.6351C384.22 83.6351 383.437 83.8289 382.93 84.2167C382.438 84.6044 382.192 85.1413 382.192 85.8273C382.192 86.2151 382.266 86.5357 382.415 86.7892C382.579 87.0278 382.825 87.2441 383.153 87.4379C383.482 87.6169 383.892 87.781 384.384 87.9301C384.876 88.0643 385.45 88.2134 386.106 88.3775C386.912 88.5714 387.635 88.7876 388.276 89.0262C388.932 89.2648 389.484 89.5556 389.932 89.8986C390.379 90.2416 390.722 90.6667 390.961 91.1737C391.214 91.6659 391.341 92.2699 391.341 92.9857C391.341 93.791 391.184 94.4845 390.871 95.0661C390.573 95.6477 390.155 96.1249 389.618 96.4978C389.096 96.8557 388.485 97.1241 387.784 97.3031C387.083 97.4671 386.33 97.5492 385.525 97.5492C384.317 97.5492 383.146 97.3702 382.013 97.0123C380.894 96.6395 379.88 96.1026 378.97 95.4017L380.111 93.2541C380.305 93.448 380.581 93.6643 380.939 93.9029C381.312 94.1415 381.737 94.3652 382.214 94.574C382.706 94.7678 383.235 94.9393 383.802 95.0885C384.369 95.2227 384.958 95.2898 385.569 95.2898C386.554 95.2898 387.314 95.1183 387.851 94.7753C388.388 94.4323 388.656 93.9252 388.656 93.2541C388.656 92.8515 388.552 92.5159 388.343 92.2475C388.149 91.979 387.866 91.7479 387.493 91.554C387.12 91.3452 386.666 91.1588 386.129 90.9948C385.592 90.8307 384.98 90.6592 384.294 90.4803C383.504 90.2715 382.81 90.0552 382.214 89.8315C381.632 89.5929 381.148 89.3096 380.76 88.9815C380.372 88.6534 380.074 88.2731 379.865 87.8406C379.671 87.3932 379.574 86.8563 379.574 86.23C379.574 85.4545 379.723 84.7685 380.022 84.1719C380.32 83.5605 380.723 83.0534 381.23 82.6508C381.752 82.2332 382.363 81.92 383.064 81.7112C383.765 81.5025 384.525 81.3981 385.346 81.3981C386.419 81.3981 387.411 81.5696 388.321 81.9126C389.231 82.2556 390.029 82.6806 390.715 83.1877L389.574 85.2457ZM405.399 83.7245H400.12V97.3926H397.592V83.7245H392.29V81.5099H405.399V83.7245ZM407.529 97.3926V81.5099H414.441C415.157 81.5099 415.813 81.659 416.41 81.9573C417.021 82.2556 417.543 82.6508 417.976 83.1429C418.408 83.6201 418.744 84.1719 418.982 84.7983C419.236 85.4097 419.363 86.0361 419.363 86.6774C419.363 87.2142 419.288 87.7288 419.139 88.2209C418.99 88.713 418.781 89.1679 418.513 89.5855C418.244 90.003 417.916 90.3684 417.528 90.6816C417.141 90.9799 416.716 91.2036 416.253 91.3527L419.989 97.3926H417.148L413.703 91.8672H410.034V97.3926H407.529ZM410.034 89.6526H414.419C414.777 89.6526 415.098 89.578 415.381 89.4289C415.679 89.2648 415.933 89.0486 416.141 88.7801C416.35 88.4968 416.514 88.1762 416.634 87.8182C416.753 87.4603 416.813 87.08 416.813 86.6774C416.813 86.2747 416.738 85.8944 416.589 85.5365C416.455 85.1786 416.268 84.8654 416.03 84.597C415.806 84.3285 415.537 84.1197 415.224 83.9706C414.926 83.8066 414.613 83.7245 414.285 83.7245H410.034V89.6526ZM422.319 97.3926V81.5099H424.824V97.3926H422.319ZM433.089 81.5099H435.281L441.545 97.3926H438.905L437.227 93.0752H431.098L429.442 97.3926H426.78L433.089 81.5099ZM436.735 91.2185L434.185 84.3956L431.545 91.2185H436.735Z" fill="#4F4F4F"/>
</svg>
