<svg width="29" height="31" viewBox="0 0 29 31" fill="none" xmlns="http://www.w3.org/2000/svg">
<path d="M19.0013 0.917687C21.2812 0.988052 23.6558 1.19103 25.565 2.61998C27.7686 4.26814 28.6496 6.8527 28.7679 9.58069C28.6417 13.5211 28.9362 17.5698 28.7705 21.4994C28.5602 26.4764 26.0935 29.7971 21.1051 30.2761C17.5629 30.6171 13.1819 30.4683 9.60025 30.3329C7.13888 30.2409 5.09825 30.1245 3.08918 28.4926C0.612032 26.4791 0.175506 23.5887 0.0834679 20.5224C0.288582 16.5414 -0.25313 12.2004 0.262286 8.26541C0.993334 2.68222 4.84317 1.07736 9.79747 0.917687C12.7611 0.822965 16.0377 0.825671 19.0013 0.917687ZM9.61603 3.64027C5.97919 3.77288 3.32585 4.60914 2.84199 8.78232C2.54221 11.3561 2.71314 14.1869 2.72366 16.7742C2.7447 21.6537 1.91372 27.0231 8.13815 27.6266C8.87709 27.697 9.64495 27.6591 10.3865 27.6834C13.6263 27.7836 16.9239 27.8215 20.1531 27.6293C24.3606 27.3803 25.9068 25.6672 26.1304 21.3831C26.3276 17.6212 26.3223 13.7485 26.1304 9.98394C25.8884 5.20995 24.0897 3.88925 19.5877 3.68357C16.3769 3.53743 12.8347 3.5239 9.6134 3.64027H9.61603Z" fill="black"/>
<path d="M14.2179 8.07326C19.9927 7.89735 23.7479 14.3141 20.8421 19.4724C18.0573 24.4196 11.0545 24.4899 8.14341 19.6239C5.18503 14.6794 8.58782 8.24647 14.2179 8.07597V8.07326ZM13.9392 10.7796C10.6363 11.099 8.69301 14.8472 10.1788 17.8811C11.8512 21.2937 16.682 21.4751 18.5622 18.1679C20.5633 14.6524 17.8758 10.398 13.9392 10.7769V10.7796Z" fill="black"/>
<path d="M22.1175 6.01644C24.3133 5.98938 24.4237 9.34524 22.341 9.55092C19.8954 9.79449 19.735 6.0435 22.1175 6.01644Z" fill="black"/>
</svg>
