<svg width="128" height="39" viewBox="0 0 128 39" fill="none" xmlns="http://www.w3.org/2000/svg">
<path d="M16.6288 0H26.752L32.1354 14.6924H21.5099L16.6288 0Z" fill="white"/>
<path d="M24.4056 0H14.2824L0 39H11.4495C15.7656 26.0026 20.0974 13.0052 24.4056 0Z" fill="white"/>
<path d="M62.0499 26.8306C62.0499 29.1582 60.6609 30.2596 57.9378 30.2596H51.6049V23.175H57.8829C60.551 23.175 62.0499 24.4482 62.0499 26.8228V26.8306ZM61.2102 12.1148C61.2102 14.3799 59.7663 15.4891 57.0982 15.4891H40.7048V39H60.1037C68.5005 39 73.2247 34.9617 73.2247 28.3771C73.2247 23.9483 70.3918 20.0272 65.7225 18.9728C69.5599 17.9183 72.3379 14.8252 72.3379 10.123C72.3379 3.64771 67.449 0 59.4995 0H56.3134V8.63108H57.106C59.7741 8.63108 61.2181 9.79491 61.2181 12.1148H61.2102Z" fill="white"/>
<path d="M77.1798 15.4188V39H92.6864C105.195 39 113.137 30.7595 113.137 19.4727C113.137 8.18586 105.235 0.0390547 92.7884 0V9.43561C98.5249 9.77929 102.088 13.3255 102.088 19.4727C102.088 25.6199 98.1404 29.4316 91.8624 29.4316H88.0799V15.4188H77.1798Z" fill="white"/>
<path d="M128 14.9111H117.108V39H128V14.9111Z" fill="white"/>
<path fill-rule="evenodd" clip-rule="evenodd" d="M77.1798 11.279C83.4421 11.279 88.5116 6.22531 88.5116 0H77.1798V11.279Z" fill="white"/>
<path fill-rule="evenodd" clip-rule="evenodd" d="M40.7048 11.279C46.9671 11.279 52.0365 6.22531 52.0365 0H40.7048V11.279Z" fill="white"/>
<path fill-rule="evenodd" clip-rule="evenodd" d="M128 0C121.981 0 117.108 4.85059 117.108 10.8416H128V0Z" fill="white"/>
<path fill-rule="evenodd" clip-rule="evenodd" d="M23.048 19.2774C28.5177 17.4809 34.419 20.449 36.2161 25.8932C38.0131 31.3375 35.0389 37.2113 29.5692 39L23.048 19.2774Z" fill="white"/>
</svg>
