<svg width="1917" height="1182" viewBox="0 0 1917 1182" fill="none" xmlns="http://www.w3.org/2000/svg">
<g style="mix-blend-mode:soft-light">
<path d="M639.744 586.871C728.255 586.871 800.011 658.636 800.011 747.16L800.011 586.871C816.382 586.871 832.181 589.336 847.055 593.891C846.549 593.396 846.032 592.912 845.537 592.406C783.155 530.015 783.155 428.848 845.537 366.447C907.918 304.057 1009.07 304.057 1071.46 366.447C1133.86 428.837 1133.84 530.004 1071.46 592.406C1070.36 593.506 1069.24 594.584 1068.11 595.652C1084.54 589.963 1102.18 586.86 1120.55 586.86C1136.37 586.86 1151.67 589.171 1166.1 593.44C1136.57 564.446 1118.25 524.084 1118.25 479.421C1118.25 391.183 1189.78 319.649 1278 319.649C1366.23 319.649 1437.75 391.183 1437.75 479.421C1437.75 525.537 1418.21 567.075 1386.97 596.235C1403.88 590.172 1422.1 586.849 1441.1 586.849L1441.1 907.46C1352.59 907.46 1280.83 835.695 1280.83 747.171C1280.83 835.695 1209.08 907.46 1120.56 907.46C1095.05 907.46 1070.95 901.485 1049.54 890.889C1057.25 896.248 1064.6 902.366 1071.47 909.243C1133.86 971.633 1133.86 1072.8 1071.47 1135.2C1009.09 1197.59 907.94 1197.59 845.548 1135.2C783.156 1072.81 783.167 971.644 845.548 909.243C850.642 904.148 856.011 899.472 861.578 895.202C842.621 903.092 821.828 907.46 800.022 907.46L800.022 747.182C800.022 805.952 768.391 857.317 721.236 885.222C767.687 913.171 798.756 964.063 798.756 1022.23C798.756 1110.47 727.232 1182 639.007 1182C550.782 1182 479.258 1110.47 479.258 1022.23C479.258 933.99 550.782 862.456 639.007 862.456C639.26 862.456 639.502 862.456 639.755 862.456L639.755 586.871L639.744 586.871ZM1331.85 629.895C1315.03 635.925 1296.89 639.215 1277.99 639.215C1262.26 639.215 1247.07 636.926 1232.72 632.69C1262.4 661.783 1280.82 702.32 1280.82 747.16C1280.82 700.857 1300.46 659.153 1331.85 629.895ZM897.147 874.659C939.505 857.064 987.903 858.483 1029.29 878.939C987.595 850 960.277 801.771 960.277 747.171C960.277 701.176 979.651 659.715 1010.68 630.478C978.716 641.504 943.95 642.076 911.692 632.228C941.65 661.354 960.277 702.089 960.277 747.171C960.277 799.174 935.511 845.378 897.147 874.67L897.147 874.659Z" fill="#5611C0" fill-opacity="0.2"/>
<path d="M1597.5 319.66C1685.73 319.66 1757.25 391.194 1757.25 479.432L1437.75 479.432C1437.75 391.194 1509.28 319.66 1597.5 319.66Z" fill="#5611C0" fill-opacity="0.2"/>
<path d="M1437.75 159.888C1437.75 71.648 1509.27 0.115618 1597.5 0.115615C1685.73 0.115611 1757.25 71.648 1757.25 159.888C1757.25 248.127 1685.73 319.66 1597.5 319.66C1509.27 319.66 1437.75 248.127 1437.75 159.888Z" fill="#5611C0" fill-opacity="0.2"/>
<path d="M1278 319.66C1189.78 319.66 1118.25 248.125 1118.25 159.888L1437.75 159.888C1437.75 248.125 1366.23 319.66 1278 319.66Z" fill="#5611C0" fill-opacity="0.2"/>
<path d="M1917 0.115601L1917 319.66C1828.77 319.66 1757.25 248.125 1757.25 159.888C1757.25 71.6499 1828.77 0.115604 1917 0.115601Z" fill="#5611C0" fill-opacity="0.2"/>
<path d="M638.996 319.66C727.221 319.66 798.745 391.194 798.745 479.432L479.247 479.432C479.247 391.194 550.771 319.66 638.996 319.66Z" fill="#5611C0" fill-opacity="0.2"/>
<path d="M526.325 272.752C463.943 210.361 463.943 109.194 526.325 46.7928C588.706 -15.5976 689.858 -15.5976 752.251 46.7928C781.791 76.3375 797.337 114.575 798.899 153.275C802.376 68.1067 872.492 0.115646 958.505 0.115642C1044.52 0.115639 1118.25 71.6499 1118.25 159.888C1118.25 248.125 1046.73 319.66 958.505 319.66C870.28 319.66 802.31 251.614 798.899 166.391C797.304 205.046 781.769 243.229 752.251 272.74C689.869 335.131 588.717 335.131 526.325 272.74L526.325 272.752Z" fill="#5611C0" fill-opacity="0.2"/>
<path d="M159.749 479.432C159.749 391.192 231.271 319.66 319.498 319.66C407.725 319.66 479.247 391.192 479.247 479.432C479.247 567.672 407.725 639.204 319.498 639.204C231.271 639.204 159.749 567.672 159.749 479.432Z" fill="#5611C0" fill-opacity="0.2"/>
<path d="M159.749 479.432C159.749 567.67 88.225 639.204 -2.37264e-05 639.204L-3.76941e-05 319.66C88.2249 319.66 159.749 391.194 159.749 479.432Z" fill="#5611C0" fill-opacity="0.2"/>
<path d="M159.749 159.888C159.749 71.648 231.271 0.115674 319.498 0.11567C407.725 0.115667 479.247 71.648 479.247 159.888C479.247 248.127 407.725 319.66 319.498 319.66C231.271 319.66 159.749 248.127 159.749 159.888Z" fill="#5611C0" fill-opacity="0.2"/>
<path d="M1118.24 1022.22L1437.47 1022.22C1437.29 981.096 1452.88 939.921 1484.25 908.55C1546.63 846.159 1647.78 846.148 1710.17 908.55C1772.55 970.94 1772.55 1072.11 1710.17 1134.51C1647.79 1196.9 1546.64 1196.9 1484.25 1134.51C1454.82 1105.07 1439.27 1067 1437.61 1028.46C1434.34 1113.79 1364.14 1181.99 1278 1181.99C1191.87 1181.99 1118.25 1110.45 1118.25 1022.22L1118.24 1022.22Z" fill="#5611C0" fill-opacity="0.2"/>
<path d="M1757.25 1022.22C1757.25 933.979 1828.77 862.445 1917 862.445L1917 1181.99C1828.77 1181.99 1757.25 1110.45 1757.25 1022.22Z" fill="#5611C0" fill-opacity="0.2"/>
<path d="M159.749 1022.22C159.749 933.977 231.271 862.445 319.498 862.445C407.725 862.445 479.247 933.977 479.247 1022.22C479.247 1110.46 407.725 1181.99 319.498 1181.99C231.271 1181.99 159.749 1110.46 159.749 1022.22Z" fill="#5611C0" fill-opacity="0.2"/>
</g>
</svg>
