<svg width="28" height="32" viewBox="0 0 28 32" fill="none" xmlns="http://www.w3.org/2000/svg">
<path d="M20.3181 0C19.954 3.6333 22.4336 6.91904 26.0867 7.33808L28.008 7.46133V14.0057C25.3069 14.1585 22.6649 13.631 20.3181 12.2926V22.0463C19.6047 30.1855 10.0549 34.2082 3.68602 28.9875C-1.01011 25.1373 -1.14541 17.9767 3.31702 13.8825C5.82622 11.5777 9.17181 10.8186 12.5051 11.4372V18.4081C11.8655 18.2528 11.2456 17.9175 10.5814 17.8584C7.21119 17.5626 5.4154 21.7135 7.98855 23.8826C10.237 25.7782 13.5481 24.1932 13.6687 21.3167V0H20.3181ZM26.1778 9.17445C22.3131 8.99204 18.9675 5.77778 18.5395 1.93743L18.4583 1.83637H15.4989V21.7431C15.4989 22.4308 14.9922 23.6337 14.6084 24.2154C12.4928 27.4149 7.63923 27.2916 5.68354 23.9936C3.46216 20.2469 6.41169 15.6498 10.6773 16.0245V13.0887C6.35757 12.7954 2.39698 16.0713 1.94926 20.3972C1.53598 24.3904 4.10668 28.1297 7.96641 29.1674C13.1053 30.5503 18.1483 26.9909 18.4927 21.6839L18.4583 8.74555C18.5395 8.63709 18.5469 8.73076 18.6108 8.77759C20.2246 9.97308 21.3611 10.9763 23.3389 11.6221C24.2639 11.9253 25.2159 12.0584 26.1802 12.1693V9.17198L26.1778 9.17445Z" fill="black"/>
</svg>
