<svg width="120" height="120" viewBox="0 0 120 120" fill="none" xmlns="http://www.w3.org/2000/svg">
<path d="M34.2741 55.3847V69.4819L34.6413 69.8504H49.2089V91.7933C49.2089 92.0242 50.1662 93.078 50.4453 93.2524C52.0514 94.2644 53.6354 93.1591 54.0492 91.4912L54.2206 65.1833L75.6532 55.3872V69.8504H95.4846V110.425L95.1174 110.793H82.2637V94.4904C82.2637 94.3995 81.8401 93.2229 81.7422 93.051C81.0665 91.8645 79.7566 91.5256 78.4786 91.4175C76.6081 91.2578 71.9611 91.1915 70.2032 91.4838C69.2974 91.6361 67.3289 92.8274 67.3289 93.7535V110.791H8.81152V65.1906L34.2741 55.3847ZM39.1707 86.2763C39.5772 86.2763 39.5135 78.6369 39.2932 78.1849C39.1928 77.9786 38.9724 77.8091 38.7521 77.7452L17.623 77.9417V85.9103L17.9903 86.2787H39.1683L39.1707 86.2763Z" fill="#BDD425"/>
<path d="M108.703 44.3531L113.11 110.791H99.6443V67.0305C99.6443 66.7185 98.3663 65.4363 98.0529 65.4363H88.6269L90.2183 44.3531H108.703Z" fill="#BDD425"/>
<path d="M32.7708 19.8703C32.5015 25.3849 33.2458 31.43 32.8149 36.8832C32.3154 43.201 25.9718 47.3278 21.0336 50.3369C20.2134 50.838 16.9253 52.975 16.296 52.9308C10.6771 49.6294 0.727152 44.6651 0 37.3622L0.0318282 19.8703C5.67032 18.0943 10.8828 15.2916 16.2985 12.9727C21.8537 15.1295 27.0515 18.1262 32.7733 19.8703H32.7708ZM23.9201 24.7929C22.2014 25.1884 15.6277 33.4001 13.5711 34.783C11.5071 33.3559 10.3442 26.5762 6.87489 28.5634C6.25792 28.9172 5.67522 29.8039 5.64584 30.5236C5.57239 32.3364 10.327 38.7648 11.2745 40.7864C12.3885 41.5332 13.3189 41.5111 14.4329 40.7864C17.6059 36.7972 23.6018 32.7688 26.4395 28.7845C28.0407 26.5369 26.6084 24.1739 23.9201 24.7929Z" fill="#BDD425"/>
<path d="M2.86454 115.257L118.509 115.316C120.631 116.369 120.382 118.811 118.433 119.924L2.92085 120C0.783464 118.976 0.460285 116.215 2.86454 115.257Z" fill="#BDD425"/>
<path d="M92.7033 5.7043C96.5986 9.71804 98.048 15.5888 97.1936 21.0641C95.159 18.7993 93.1342 16.5664 90.8328 14.5645C89.452 13.3633 84.0901 9.04499 82.6114 8.82146C80.0896 8.44317 78.8287 10.6687 80.1924 12.7173C85.3975 16.0359 90.1865 20.0029 94.0107 24.8666C86.9841 26.8857 80.758 24.5522 75.521 19.8457C70.6562 15.4734 67.346 8.85339 60.9657 6.47806C69.1798 -1.21043 84.4819 -2.76778 92.7033 5.70676V5.7043Z" fill="#BDD425"/>
<path d="M89.0504 29.9439C95.3892 30.2903 102.597 29.2905 108.835 29.8776C110.091 29.9955 111.406 30.585 111.626 31.9852C111.773 32.9162 111.773 37.6938 111.531 38.4823C111.257 39.3715 109.998 40.1944 109.068 40.1846C102.903 39.7744 96.0429 40.7324 89.9612 40.1944C88.3331 40.0495 87.2583 39.5214 86.9694 37.797C86.7343 36.3944 86.7025 31.9655 87.5276 30.8749C87.885 30.4033 88.5118 30.1527 89.048 29.9464L89.0504 29.9439Z" fill="#BDD425"/>
<path d="M30.7754 3.95289C32.4183 3.58198 35.9487 4.33609 37.643 4.81754C43.4186 6.45841 47.6517 10.5237 49.9091 16.0703C50.6044 17.7824 51.3316 20.5237 48.6041 20.8307C45.8767 21.1378 45.4972 18.028 44.4395 16.1538C42.5494 12.7983 40.0546 10.6466 36.2866 9.60995C34.7613 9.18991 30.8268 8.96884 29.9871 8.31789C28.5083 7.17322 28.9392 4.36802 30.7779 3.95289H30.7754Z" fill="#BDD425"/>
<path d="M51.1039 5.42427C53.3955 5.20811 57.9518 10.6515 59.0438 12.5625C60.0672 14.3508 62.7065 19.659 59.7244 20.6809C56.2674 21.8649 56.1131 17.6988 55.053 15.5765C54.2132 13.8939 52.7932 12.3906 51.4148 11.1305C50.7342 10.509 49.581 10.1012 49.106 9.27343C48.1438 7.5908 49.1917 5.60359 51.1014 5.42181L51.1039 5.42427Z" fill="#BDD425"/>
<path d="M20.6394 7.50237C17.8972 4.9551 22.5295 1.40808 24.8358 3.91605C27.3625 6.66229 22.9261 9.62715 20.6394 7.50237Z" fill="#BDD425"/>
</svg>
