<svg width="120" height="120" viewBox="0 0 120 120" fill="none" xmlns="http://www.w3.org/2000/svg">
<path d="M24.4076 0.0774875C37.4419 2.61814 39.5044 20.0294 27.2115 25.2492L22.7698 26.3058C35.4428 26.4491 44.0447 35.7593 44.7791 48.1972C44.9575 51.2286 45.3517 55.6079 41.3768 56.054L2.63284 55.9436C1.28834 55.4764 0.666544 54.725 0.065862 53.4781C0.218379 51.2075 -0.140622 48.688 0.065862 46.4526C0.17849 45.2292 0.720512 43.1911 1.06778 41.9513C3.71923 32.5354 12.3024 26.273 22.0658 26.3082L19.0225 25.7282C6.95963 22.7485 6.02575 5.65189 17.3261 1.07074L20.6627 0.0774875H24.4076Z" fill="#BDD425"/>
<path d="M99.5398 0.0774875C111.626 1.53097 114.904 19.0478 103.529 24.796L99.0728 26.3058C109.008 26.5078 117.992 34.8083 119.599 44.5272C119.928 46.5183 120.268 52.0834 119.679 53.8374C119.297 54.9762 118.374 55.5022 117.335 55.9413L78.591 56.0517C74.4894 55.5914 75.008 50.7896 75.1863 47.7253C75.848 36.3651 84.5157 26.8576 96.0272 26.3058L91.6112 24.7561C80.4141 19.2521 83.2955 1.57323 95.7949 0.0774875C96.6607 -0.0258292 98.6763 -0.0258292 99.5398 0.0774875Z" fill="#BDD425"/>
<path d="M61.3894 90.0123L66.5374 91.0643C77.1784 94.4197 83.2932 104.622 82.4625 115.663C82.2983 117.833 81.4935 119.765 79.072 120L40.084 119.878C39.0304 119.476 37.944 118.431 37.7657 117.279C37.2612 114.015 37.768 108.405 38.8145 105.242C41.527 97.0332 49.838 90.3998 58.5807 90.2401L54.7537 89.0379C38.5166 81.8174 50.2791 57.1341 66.0775 65.5286C77.4975 71.5985 74.1093 88.6739 61.3941 90.01L61.3894 90.0123Z" fill="#BDD425"/>
<path d="M22.0682 63.0772C22.2841 66.1603 22.4014 68.9897 23.0771 72.0211C25.0036 80.6857 30.0155 88.5189 37.0336 93.9055L33.5328 100.081C21.8101 91.6936 14.8342 77.5439 15.0454 63.0772H22.0682Z" fill="#BDD425"/>
<path d="M104.922 63.0772C105.129 77.5345 98.1648 91.7077 86.435 100.081C85.6983 98.0476 84.3585 96.162 83.0374 94.455L82.9342 93.9055C89.9523 88.5189 94.9642 80.6857 96.8906 72.0211C97.557 69.0296 97.7377 66.1297 97.8996 63.0772H104.922Z" fill="#BDD425"/>
<path d="M81.0477 23.9695C81.3527 24.3851 79.844 25.12 79.5319 25.376C78.8655 25.9231 75.6415 29.0907 75.3248 29.1071C67.4009 25.7353 58.1983 25.0637 49.8685 27.3108C48.0266 27.8086 46.3137 28.6234 44.4671 29.0837L38.9178 24.0869C51.809 17.0919 68.079 17.2774 81.05 23.9695H81.0477Z" fill="#BDD425"/>
</svg>
