<svg width="120" height="160" viewBox="0 0 120 160" fill="none" xmlns="http://www.w3.org/2000/svg">
<path d="M36.4079 104.734C45.1487 103.919 49.4179 108.624 57.4863 109.485C59.0693 109.655 60.9982 109.799 62.5845 109.766C66.462 109.684 70.6496 108.012 74.3705 109.203C77.5169 110.211 80.5197 113.542 80.8885 116.896C81.8743 125.913 70.7541 127.215 64.1708 126.947C62.3299 126.872 58.6417 125.949 57.1403 126.309C54.4639 126.95 53.7099 131.063 56.432 131.485C62.813 131.178 69.6509 131.95 75.9764 131.511C78.7083 131.322 80.4479 130.638 82.6543 129.077C90.2952 123.685 97.6096 116.29 105.162 110.568C107.956 108.447 110.257 106.916 114.001 107.06C117.931 107.211 121.139 109.58 119.612 113.781C110.531 124.316 101.732 135.788 92.3025 146C89.0418 149.53 86.0945 151.938 81.2019 152.858C78.7735 153.312 77.406 152.972 75.1734 152.966C61.5205 152.923 47.8642 153.005 34.2146 153.002C30.8103 153.486 27.5855 162.016 22.8072 159.555L0.974833 137.947C-0.38622 136.452 -0.262191 134.109 0.974833 132.565L24.0181 109.759C27.6214 107.093 31.8972 105.156 36.4112 104.734H36.4079Z" fill="#BDD425"/>
<path d="M73.3783 99.5576H67.562V19.1723C67.4608 18.6259 65.6754 18.0075 65.0586 17.5985C57.0195 12.2849 61.2822 -0.550979 71.1588 0.0183398C80.115 0.535308 83.405 12.5434 75.885 17.6018C75.2877 18.0042 73.4697 18.6881 73.3815 19.1756V99.5609L73.3783 99.5576Z" fill="#BDD425"/>
<path d="M54.1799 99.5576L54.1408 54.3981L40.899 41.0388L40.8044 28.926C29.051 24.5972 34.2961 7.06939 46.5685 10.4722C55.6193 12.9785 55.4985 26.1972 46.6044 28.9162L46.6566 38.3819L59.993 52.0325V99.5576H54.1799Z" fill="#BDD425"/>
<path d="M80.9408 99.5576V52.0325L94.2804 38.3819L94.2934 28.8246C88.2944 26.9007 85.7191 20.095 89.0026 14.621C92.7627 8.34872 102.153 8.61702 105.6 15.0595C108.54 20.5498 105.76 26.8221 100.129 28.9293L100.035 41.042L86.793 54.4014L86.7538 99.5609H80.9375L80.9408 99.5576Z" fill="#BDD425"/>
<path d="M40.8011 99.5576L40.762 87.8374L30.8168 77.7827L30.7287 65.6569C23.5448 63.0622 21.7105 53.8288 27.8042 48.9143C32.0538 45.4886 38.6045 46.48 41.6595 50.9724C45.3282 56.3646 42.7856 63.5988 36.7147 65.6569L36.731 75.1554L46.5783 85.3082L46.6174 99.5576H40.8011Z" fill="#BDD425"/>
<path d="M94.3228 99.5576L94.362 85.3082L104.209 75.1554L104.226 65.6569C98.1579 63.5956 95.6153 56.3646 99.2807 50.9724C102.329 46.4898 108.893 45.4952 113.136 48.9143C119.233 53.8288 117.395 63.0622 110.212 65.6569L110.123 77.7827L100.178 87.8374L100.139 99.5576H94.3228Z" fill="#BDD425"/>
</svg>
