<svg width="24" height="29" viewBox="0 0 24 29" fill="none" xmlns="http://www.w3.org/2000/svg">
<path d="M15.6471 29H3.89978C1.80123 28.6669 0.152287 26.9643 0 24.7827V8.74784C0.184083 6.53563 1.96077 4.72806 4.14745 4.58391C7.80569 4.34384 11.7144 4.77176 15.3988 4.58391C17.5911 4.74054 19.3505 6.52655 19.5463 8.74784L19.5368 24.9422C19.3561 26.9461 17.6279 28.7832 15.6465 28.9994L15.6471 29ZM4.22164 6.86876C3.11882 7.01292 2.34176 7.85626 2.23076 8.97769L2.22797 24.5551C2.32168 25.7566 3.14615 26.6045 4.31871 26.7327C8.10469 26.672 11.923 26.8604 15.6912 26.6363C16.6422 26.3729 17.2358 25.537 17.32 24.5551V9.03161C17.2263 7.83015 16.4018 6.98227 15.2293 6.85401L4.22164 6.86876Z" fill="#959595"/>
<path d="M6.94719 0.0124856L19.9608 0C22.1101 0.221903 23.8059 1.97272 24 4.15996V21.7232C23.8544 23.0552 22.0415 23.1499 21.7759 21.8293L21.7732 4.44316C21.6794 3.24114 20.8544 2.39326 19.6824 2.26556L6.94719 2.25137C5.77185 1.96591 5.77241 0.297951 6.94719 0.0124856Z" fill="#959595"/>
</svg>
