<svg width="120" height="121" viewBox="0 0 120 121" fill="none" xmlns="http://www.w3.org/2000/svg">
<path d="M63.4498 0C94.7043 3.06447 111.844 38.871 93.3765 65.2099C88.8677 71.6415 82.7285 74.5405 80.6101 82.7833C80.223 84.2872 80.0541 85.7887 79.8406 87.3186H63.4521V70.7997C73.1595 71.3152 81.464 63.9094 82.1795 54.1579C82.3062 52.4223 82.4516 47.8446 81.586 46.5015C80.148 44.2741 75.7869 44.6784 73.3917 44.8274C69.772 45.052 66.3939 46.2627 63.4545 48.3789C63.5436 47.601 63.2551 46.4968 63.5741 45.7874C63.8251 45.2294 66.5933 42.7182 67.2971 41.7511C73.7131 32.9265 70.8675 21.7492 62.6287 15.3436C59.1169 12.6149 56.8038 15.5352 54.4368 18.1669C48.2788 25.0147 46.9768 34.0331 52.5859 41.7511C53.2897 42.7182 56.0578 45.2294 56.3088 45.7874C56.6279 46.4968 56.337 47.601 56.4285 48.3789C53.4891 46.2627 50.1109 45.052 46.4912 44.8274C44.096 44.6784 39.7327 44.2741 38.297 46.5015C37.4313 47.8446 37.5768 52.42 37.7034 54.1579C38.4189 63.9094 46.7258 71.3128 56.4308 70.7997V87.3186H40.0423C39.6388 82.2229 37.565 77.1202 34.0743 73.3913C28.3644 67.2954 24.754 64.283 21.6035 55.9881C11.9665 30.614 29.5866 2.08791 56.4261 0H63.4498Z" fill="#BDD425"/>
<path d="M0 42.2429V40.356C0.56771 39.0839 1.27852 38.0647 2.7494 37.8164C4.3282 37.5493 9.24053 37.5705 10.8874 37.7597C15.103 38.2468 15.103 44.3545 10.8874 44.8392C9.3156 45.0213 4.22264 45.0544 2.74706 44.7848C1.27148 44.5153 0.595861 43.4228 0 42.2429Z" fill="#BDD425"/>
<path d="M79.8406 94.3981V99.943C79.8406 102.473 75.7306 106.507 73.1079 106.606C64.8339 106.247 55.8303 107.294 47.6384 106.677C44.6145 106.45 40.04 103.187 40.04 99.9406V94.3957H79.843L79.8406 94.3981Z" fill="#BDD425"/>
<path d="M72.8147 113.75C72.8264 117.597 69.9221 120.557 66.1523 120.839C63.5225 121.037 53.8269 121.179 51.7507 120.467C49.0483 119.543 46.951 116.66 47.0613 113.747H72.817L72.8147 113.75Z" fill="#BDD425"/>
<path d="M59.8535 22.9079C65.3875 26.8023 65.0051 35.1563 60.0224 39.3936C54.7558 35.3526 54.6104 27.0577 59.8535 22.9079Z" fill="#BDD425"/>
<path d="M56.4285 63.7202C49.7098 64.3847 44.0585 58.679 44.7201 51.9187C51.4505 51.2424 57.076 56.9458 56.4285 63.7202Z" fill="#BDD425"/>
<path d="M75.1582 51.9187C75.8174 58.679 70.1685 64.3847 63.4498 63.7202C62.7906 56.9599 68.4395 51.2543 75.1582 51.9187Z" fill="#BDD425"/>
<path d="M112.322 14.2157C115.771 13.6435 117.969 17.4576 115.764 20.0444C115.222 20.6805 108.977 24.3905 108.125 24.6175C104.405 25.6082 101.96 21.5104 104.423 18.7628C105.019 18.0984 111.499 14.3529 112.32 14.2157H112.322Z" fill="#BDD425"/>
<path d="M12.1143 57.875C15.6284 57.2815 17.7679 61.1098 15.5557 63.7037C14.9786 64.3823 9.02236 67.9197 8.09104 68.2153C4.415 69.3857 1.75239 65.3139 4.11003 62.5521C4.70824 61.8499 11.2369 58.024 12.1119 57.875H12.1143Z" fill="#BDD425"/>
<path d="M106.234 57.875C107.246 57.693 107.886 57.8656 108.796 58.251C109.767 58.6624 115.057 61.7837 115.66 62.4244C118.081 65.0018 115.773 69.1162 112.137 68.3335C111.412 68.1774 105.268 64.6495 104.649 64.0844C102.568 62.1833 103.361 58.3952 106.234 57.875Z" fill="#BDD425"/>
<path d="M6.02429 14.2157C6.94154 14.0502 7.58667 14.1756 8.42885 14.5137C9.41882 14.9109 14.5141 17.8595 15.2296 18.5145C17.9861 21.0328 15.6777 25.6626 11.7483 24.6175C10.9601 24.407 4.76689 20.7632 4.2156 20.1744C2.36702 18.2048 3.36638 14.6958 6.02429 14.2134V14.2157Z" fill="#BDD425"/>
<path d="M108.578 37.8164C110.204 37.5398 114.769 37.5871 116.491 37.7502C120.957 38.1735 120.84 44.1038 117.129 44.7848C115.604 45.0638 110.863 45.0047 109.214 44.8487C104.775 44.4278 104.808 38.4549 108.576 37.8164H108.578Z" fill="#BDD425"/>
</svg>
