<svg width="121" height="132" viewBox="0 0 121 132" fill="none" xmlns="http://www.w3.org/2000/svg">
<path d="M47.3057 132C42.7512 130.447 42.149 125.072 39.3832 121.723L35.4206 121.281C31.8949 124.803 28.6536 130.723 22.8351 128.178C21.8115 127.731 17.8593 125.346 17.0813 124.636C12.9688 120.868 17.2183 114.997 17.7171 110.607L15.3339 107.496C10.8622 106.974 3.9736 109.369 1.68603 104.147C0.817524 102.167 -0.286199 97.3896 0.0679227 95.3095C0.79426 91.0252 7.64664 89.9786 10.2987 87.206C10.1177 86.1129 10.8932 84.4282 10.4719 83.5186C9.96265 82.4204 5.77523 79.1232 4.66634 77.7045C3.55744 76.2859 2.87505 74.7562 3.13353 72.8311C3.36617 71.0894 6.9384 65.1694 8.45053 64.2108C12.3226 61.7534 16.8564 65.3348 20.6328 65.6656C21.9563 65.7819 23.1737 64.1746 24.2619 63.4821C24.7867 59.0479 22.5715 51.9935 27.8471 49.779C28.9663 49.3087 34.2006 47.903 35.2888 47.903C40.474 47.8927 42.0223 54.7739 44.4029 58.2339L48.5955 58.6241C52.0514 55.9031 54.2977 50.7325 59.3303 51.2752C60.6046 51.4121 65.1281 54.0427 66.2628 54.929C71.51 59.035 66.8858 64.0686 66.343 68.862C66.2241 69.906 68.0619 71.4538 68.6745 72.3789C72.3165 72.906 77.9773 71.2522 80.8956 73.8543C82.7618 75.5185 84.4368 82.5031 83.956 84.87C83.1547 88.8003 76.4005 90.2965 73.7175 92.7074L73.3013 96.418C75.8707 99.648 81.3608 102.431 80.8852 107.08C80.7327 108.558 77.6025 114 76.491 115.075C72.7378 118.705 67.3847 115.085 63.1378 114.24L62.5769 114.325L59.7723 116.703C59.2967 120.196 60.6744 125.39 58.5394 128.367C56.6679 130.977 52.8553 130.806 50.1542 131.995H47.3109L47.3057 132ZM31.6287 79.2188C16.7763 93.7125 39.9674 115.157 53.243 99.8806C65.8208 85.4075 44.863 66.3038 31.6287 79.2188Z" fill="#BDD425"/>
<path d="M118.301 26.3497C119.787 27.7373 120.847 32.7865 120.283 34.7271C120.076 35.4403 119.453 36.2051 118.885 36.6858C117.822 37.5824 114.263 38.9287 113.731 39.5385C113.534 39.7659 113.224 41.3241 113.242 41.6264C113.32 43.0063 118.329 45.2156 118.409 48.5697C118.451 50.2803 116.016 54.6938 114.599 55.6189C113.614 56.2623 112.493 56.5233 111.311 56.4096C109.156 56.2003 105.831 53.7739 104.177 55.7946C102.727 57.5673 106.103 63.5286 100.881 65.6604C98.7076 66.5493 95.2078 67.4537 93.1864 65.9757C91.5476 64.7767 89.7072 60.0195 89.3945 59.8309C89.1463 59.681 87.3214 59.5389 86.9725 59.7663C83.9405 61.7508 82.997 66.2935 77.9669 64.1384C75.5269 63.0945 72.3139 60.9394 72.4975 57.9704C72.6034 56.2391 74.0949 53.531 74.1311 52.1331C74.144 51.6007 73.0842 50.3604 72.5 50.2519C68.8606 49.5697 64.9963 51.8721 63.13 46.9624C62.0961 44.2415 61.163 40.7737 63.7633 38.6832C64.8205 37.8331 68.4806 36.3033 68.9511 35.7349C69.1294 35.5204 69.3078 34.4454 69.3 34.1198C69.2664 32.5979 66.2603 30.6521 65.2625 29.3601C63.1585 26.6313 65.1307 22.8845 67.1003 20.608C68.0645 19.4943 69.3724 18.7501 70.8923 18.8431C72.5672 18.9465 75.5372 20.5408 76.9563 20.5305C77.3001 20.5279 78.8199 19.2617 78.8484 18.9129C78.3624 15.9748 77.9902 11.4528 81.1618 9.88172C82.3224 9.30548 86.241 8.34164 87.4714 8.48635C91.1211 8.91013 91.3693 13.4425 93.2019 15.1531C95.4275 17.2307 97.6763 13.1867 99.2556 11.9464C100.835 10.706 102.176 10.4244 104.097 10.9877C104.88 11.2177 108.036 13.0833 108.649 13.6673C109.828 14.7914 110.29 16.2539 110.091 17.8586C109.915 19.2772 108.308 22.5667 108.693 23.6675C109.598 26.2567 112.697 24.7889 114.863 25.006C115.967 25.1171 117.476 25.5874 118.295 26.3523L118.301 26.3497ZM98.3949 44.996C107.892 35.8873 94.0627 21.1455 84.3592 30.2206C74.4774 39.461 88.7405 54.2571 98.3949 44.996Z" fill="#BDD425"/>
<path d="M45.2818 30.1689C44.6459 31.1766 46.8611 34.262 47.3522 35.3705C48.0553 36.9597 50.6479 41.921 47.4117 42.2492C45.0983 42.4843 44.757 39.076 43.9919 37.4351C42.8624 35.0113 41.4821 32.6366 39.6339 30.6753C33.4924 33.2775 27.1647 35.5126 20.3666 34.4428C12.2063 33.1612 5.84502 26.975 2.02981 19.9852C0.491835 17.1661 -1.04614 15.0394 2.50025 13.1428C15.122 6.39846 29.2946 8.23311 37.3282 20.6132L40.0682 24.9672C37.1551 16.0084 39.409 8.59229 46.9671 3.09608C48.3706 2.07539 52.1419 -0.451784 53.7833 0.070188C54.7293 0.369934 55.4789 2.22785 55.8847 3.13225C59.9714 12.2228 58.4877 21.0731 50.3894 27.143C49.5286 27.789 45.442 29.9182 45.2844 30.1689H45.2818Z" fill="#BDD425"/>
</svg>
