<svg width="32" height="38" viewBox="0 0 32 38" fill="none" xmlns="http://www.w3.org/2000/svg">
<path d="M20.8628 38H5.1997C2.40164 37.5635 0.203049 35.3325 0 32.4739V11.4627C0.245444 8.56393 2.61435 6.19539 5.52994 6.0065C10.4076 5.69193 15.6192 6.25265 20.5318 6.0065C23.4548 6.21175 25.8007 8.55203 26.0617 11.4627L26.0491 32.6829C25.8081 35.3087 23.5039 37.7159 20.862 37.9993L20.8628 38ZM5.62886 9.00045C4.15842 9.18934 3.12235 10.2944 2.97434 11.7639L2.97062 32.1757C3.09557 33.75 4.19487 34.861 5.75827 35.0291C10.8062 34.9495 15.8974 35.1964 20.9215 34.9027C22.1897 34.5576 22.981 33.4622 23.0933 32.1757V11.8345C22.9684 10.2602 21.8691 9.14918 20.3057 8.98112L5.6296 9.00045H5.62886Z" fill="#B3DB02"/>
<path d="M9.26292 0.0163604L26.6144 0C29.4801 0.290769 31.7412 2.58494 32 5.45099V28.4649C31.8059 30.2102 29.3886 30.3344 29.0346 28.6039L29.0309 5.82207C28.9059 4.24701 27.8059 3.13599 26.2432 2.96867L9.26292 2.95008C7.6958 2.57602 7.69654 0.390419 9.26292 0.0163604Z" fill="#B3DB02"/>
</svg>
