<svg width="111" height="134" viewBox="0 0 111 134" fill="none" xmlns="http://www.w3.org/2000/svg">
<path d="M36.174 93.3611C36.409 105.313 47.1382 114.365 59.0938 112.144C68.1927 110.456 74.6332 102.457 74.8095 93.3611H96.334V98.7015L89.5851 101.587C88.6671 105.101 87.2865 108.476 85.3918 111.581L88.2853 118.12L80.5963 125.842L73.6785 123.073C70.6235 125.111 67.0985 126.215 63.6249 127.332L61.0105 133.776C60.5699 134.039 51.728 134.046 50.6412 133.922C50.1565 133.864 50.0243 133.9 49.7158 133.469C49.0035 132.497 47.9313 127.683 47.1969 127.201C43.7307 126.266 40.3158 125.024 37.2976 123.066L30.9305 125.849L30.2329 125.71L22.6908 118.113L25.5843 111.574C23.6969 108.476 22.3089 105.101 21.391 101.58L14.6347 98.6942V93.3538H36.1593L36.174 93.3611Z" fill="#BDD425"/>
<path d="M110.955 22.9419V86.0993C110.955 86.3769 109.993 87.3339 109.714 87.3339H88.1898L87.7785 86.9248V29.6558L110.955 22.9419ZM97.0243 42.9448C96.8995 43.1274 96.334 43.5439 96.334 43.6315V48.5628L96.7453 48.972H101.989L102.4 48.5628V43.3539L101.989 42.9448H97.0243ZM102.4 63.218C102.128 63.3056 101.798 62.9404 101.71 62.9404H97.296C97.1932 62.9404 96.3267 63.5613 96.3267 63.6271V68.5584C97.6926 69.6323 101.056 69.6177 102.4 68.5584V63.218Z" fill="#BDD425"/>
<path d="M1.26909 87.3266C0.49065 87.1586 -0.0968508 86.07 0.0133055 85.281L0.167524 46.2323L0.857837 45.5456L28.2574 45.6552C28.3969 45.7429 28.7201 46.2543 28.7201 46.3565V87.3193H20.8549L20.4436 86.9102V64.8544H8.30441V87.3193C6.28487 87.0271 3.12706 87.7138 1.26909 87.3193V87.3266Z" fill="#BDD425"/>
<path d="M60.4598 87.3266V52.9389L83.0712 46.3346L83.644 46.6342V86.9102L83.2327 87.3193H60.4671L60.4598 87.3266ZM69.0152 63.218V68.5584C70.3592 69.6177 73.7152 69.6323 75.0885 68.5584V63.6271C75.0885 63.5613 74.2293 62.9404 74.1191 62.9404H69.7056C69.6174 62.9404 69.287 63.3056 69.0152 63.218Z" fill="#BDD425"/>
<path d="M56.0462 87.3266H33.141V52.5298L56.0462 46.225V87.3266ZM46.8004 62.9477C45.8163 62.7431 43.5618 62.9477 42.3868 62.9477C42.2987 62.9477 41.9682 63.313 41.6965 63.2253V68.9821C43.5177 69.2744 45.6768 69.5739 47.4246 68.9164C47.8873 68.4561 47.9387 64.007 47.6302 63.5029C47.4173 63.3422 47.0207 62.9988 46.8004 62.955V62.9477Z" fill="#BDD425"/>
<path d="M6.92378 41.0234L9.663 19.8297C9.88331 19.4718 10.5296 19.4133 10.9261 19.3768C12.7107 19.1868 16.6102 19.1868 18.3947 19.3622C19.4302 19.4645 19.7754 19.6179 20.1132 20.6699L22.3824 41.0234H6.92378Z" fill="#BDD425"/>
<path d="M39.1188 0.835048C40.3012 2.12084 39.6402 4.17373 37.9512 4.56823C32.1496 4.97004 25.7458 4.08606 20.0177 4.56823C18.2699 4.71435 16.6616 5.31341 15.6335 6.78915C13.9738 9.16349 14.9578 11.494 14.6568 14.0364C14.3557 16.5787 10.9702 16.8856 10.3974 14.9788C9.93472 13.43 10.1403 8.35987 10.6618 6.77454C14.0546 -3.60679 29.5352 1.36105 37.7015 0.192151C38.1641 0.235985 38.8177 0.506294 39.1188 0.835048Z" fill="#BDD425"/>
<path d="M19.8929 14.5843C19.8929 14.7523 19.1585 15.6582 18.9308 15.8189C17.631 16.7541 15.7436 16.1623 15.4939 14.5624C15.3177 13.4738 15.3397 9.42649 15.6041 8.4037C15.8905 7.30055 17.5943 5.686 18.7105 5.45952H38.1788C40.7932 6.02936 39.4713 9.77716 37.9658 9.77716H19.8929V14.5843Z" fill="#BDD425"/>
</svg>
