<svg width="35" height="27" viewBox="0 0 35 27" fill="none" xmlns="http://www.w3.org/2000/svg">
<path d="M34.944 10.2111C35.0186 12.4488 35.0186 14.9598 34.944 17.1975C34.7871 21.8354 34.4526 26.0298 28.8956 26.4887C24.6661 26.8367 20.1639 26.8161 15.9267 26.7568C12.9089 26.7155 9.73424 26.7516 6.73706 26.4887C0.835313 25.9653 0.614062 22.5005 0.42111 17.4295C0.292476 14.0111 0.0171979 8.22348 0.958802 5.02159C2.2683 0.559062 5.71828 0.889047 9.57731 0.718898C14.9774 0.481721 20.3209 0.481721 25.7184 0.718898C28.4042 0.837487 31.3989 0.541016 33.2898 2.8174C34.7614 4.59107 34.8694 7.99404 34.944 10.2111ZM16.2817 2.56733C12.9269 2.80193 9.25315 2.50288 5.93438 2.96177C2.07792 3.49541 2.53843 8.01724 2.44839 10.9923C2.35834 13.9673 2.29403 17.0764 2.58217 20.0076C2.97579 24.0267 4.51168 24.2999 8.15204 24.5216C14.1284 24.8826 20.3594 24.8104 26.3281 24.5165C29.76 24.3463 32.0395 24.7666 32.6389 20.6108C33.138 17.1563 32.9811 12.6551 32.783 9.1593C32.626 6.35958 32.7675 3.41034 29.3021 2.95661C27.2517 2.6885 24.8951 2.75037 22.8138 2.68592C22.6543 2.68076 22.5051 2.61631 22.3456 2.61373L16.2817 2.56991V2.56733Z" fill="black"/>
<path d="M23.3001 12.338C24.0333 13.0701 23.7374 14.073 22.9399 14.6066C20.6245 16.1534 17.6402 17.2594 15.2527 18.7572C14.3445 19.1723 13.3438 18.5613 13.2563 17.5713C13.0119 14.8335 13.4441 11.7321 13.2563 8.95563C13.4107 7.95279 14.4835 7.43719 15.3762 7.91412C17.7122 9.3346 20.2977 10.4818 22.626 11.8946C22.8241 12.0157 23.1431 12.1807 23.3001 12.338ZM15.2836 10.2111V16.3829L20.9589 13.3975L15.2836 10.2111Z" fill="black"/>
</svg>
